<svg xmlns="http://www.w3.org/2000/svg" xmlns:xlink="http://www.w3.org/1999/xlink" width="1723.097" height="150" viewBox="0 0 1723.097 150">
  <defs>
    <linearGradient id="linear-gradient" x1="0.5" x2="0.5" y2="1" gradientUnits="objectBoundingBox">
      <stop offset="0" stop-color="#0ca0d5"/>
      <stop offset="1" stop-color="#0ca0d5" stop-opacity="0"/>
    </linearGradient>
  </defs>
  <path id="artius-roadmap" d="M-545.176,11.381h-43.358l-8.411,28.338h-35.648l47.563-145.794h18.124v.1l.1-.1h18.124l47.664,145.794h-35.648Zm-35.547-26.035h27.737L-566.6-59.914h-.6Zm123.965-1.5V39.718H-490.6V-106.076h50.768q25.334,0,40.154,11.716t14.82,32.043q0,11.315-5.958,19.426t-17.573,13.218q13.418,3.805,19.276,12.667t5.858,22.079v9.212a58.131,58.131,0,0,0,1.7,13.017q1.7,7.31,5.908,10.414v2H-410.6q-4.005-3.1-5.207-10.915a97.027,97.027,0,0,1-1.2-14.72V5.273q0-10.414-5.507-15.921t-16.121-5.507Zm0-26.035h17.123q10.214,0,15.621-4.656t5.407-13.368q0-8.912-5.557-14.369t-15.671-5.457h-16.923ZM-263.4-80.041h-38.551V39.718H-335.8V-80.041h-37.85v-26.035H-263.4Zm49.566,119.76h-33.745V-106.076h33.745ZM-69.041-106.076V-11.55q0,25.033-16.622,39.2t-43.358,14.169q-26.936,0-43.658-14.169T-189.4-11.55v-94.526h33.945V-11.55q0,13.518,7.009,20.427t19.426,6.909q12.316,0,19.176-6.859t6.859-20.477v-94.526ZM28.589,1.067q0-7.81-5.107-11.966T4.957-19.761q-27.136-8.812-40.3-18.775T-48.514-67.224q0-18.324,15.32-29.64T5.758-108.179q24.933,0,40.154,11.666t14.72,32.894l-.2.6H27.587q0-10.314-5.607-14.97T5.057-82.645q-9.212,0-14.519,4.506a14.027,14.027,0,0,0-5.307,11.115A11.979,11.979,0,0,0-9.312-56.76q5.457,3.855,20.377,9.663Q36.4-39.587,49.417-28.773T62.434.867q0,19.226-15.02,30.09T7.561,41.821q-24.733,0-41.906-11.666t-16.672-36.7l.2-.6h32.944q0,12.717,6.258,18.074T7.561,16.287q10.614,0,15.821-4.206A13.479,13.479,0,0,0,28.589,1.067ZM165.772-16.156V39.718H131.927V-106.076h50.768q25.334,0,40.154,11.716t14.82,32.043q0,11.315-5.958,19.426T214.136-29.674q13.418,3.805,19.276,12.667T239.27,5.072v9.212a58.13,58.13,0,0,0,1.7,13.017q1.7,7.31,5.908,10.414v2H211.933q-4.005-3.1-5.207-10.915a97.029,97.029,0,0,1-1.2-14.72V5.273q0-10.414-5.507-15.921T183.9-16.156Zm0-26.035h17.123q10.214,0,15.621-4.656t5.407-13.368q0-8.912-5.557-14.369t-15.671-5.457H165.772Zm218.091,22.13q0,26.936-17.073,44.409T322.18,41.821q-27.737,0-44.96-17.473T260-20.061V-46.3q0-26.836,17.173-44.359t44.81-17.523q27.437,0,44.66,17.523T383.862-46.3ZM350.117-46.5q0-15.621-7.36-25.634T321.98-82.144q-13.718,0-20.978,9.963T293.742-46.5v26.435q0,15.821,7.36,25.834T322.18,15.787q13.318,0,20.628-10.013t7.31-25.834ZM478.689,11.381H435.331L426.92,39.718H391.272l47.563-145.794H456.96v.1l.1-.1h18.124L522.848,39.718H487.2ZM443.142-14.654h27.737L457.26-59.914h-.6Zm90.12,54.372V-106.076h53.371q25.734,0,43.057,16.772T647.013-46.3v26.235q0,26.335-17.323,43.057T586.633,39.718Zm33.845-119.76V13.684h19.526q11.515,0,18.975-9.413t7.46-24.332V-46.5q0-14.72-7.46-24.132t-18.975-9.413Zm177.136,76h.6l32.944-102.036h44.76V39.718H788.7V-54.207l-.6-.1L755.959,39.718h-22.73L701.686-52.905l-.6.1V39.718H667.24V-106.076H711.6Zm179.64,15.421H880.525l-8.411,28.338H836.466l47.563-145.794h18.124v.1l.1-.1h18.124L968.041,39.718H932.394ZM888.335-14.654h27.737l-13.618-45.26h-.6ZM1012.3-10.248V39.718H978.455V-106.076h55.674q25.935,0,41.155,13.218t15.22,34.746q0,21.529-15.22,34.7t-41.155,13.168Zm0-26.035h21.829q11.015,0,16.823-6.058t5.808-15.571q0-9.713-5.758-15.921t-16.873-6.208H1012.3Z" transform="translate(632.593 108.179)" opacity="0.15" fill="url(#linear-gradient)"/>
</svg>
