<svg xmlns="http://www.w3.org/2000/svg" xmlns:xlink="http://www.w3.org/1999/xlink" width="1712.303" height="130" viewBox="0 0 1712.303 130">
  <defs>
    <linearGradient id="linear-gradient" x1="0.5" x2="0.5" y2="1" gradientUnits="objectBoundingBox">
      <stop offset="0" stop-color="#0ca0d5"/>
      <stop offset="1" stop-color="#0ca0d5" stop-opacity="0"/>
    </linearGradient>
  </defs>
  <path id="artius-community" d="M-646.444-4.561H-684.02L-691.31,20H-722.2l41.221-126.355h15.708v.087l.087-.087h15.708L-608.173,20h-30.895Zm-30.808-22.563h24.039l-11.8-39.226h-.521Zm107.436-1.3V20h-29.332V-106.356h44q21.956,0,34.8,10.154t12.844,27.77A27.654,27.654,0,0,1-512.669-51.6q-5.163,7.029-15.23,11.455,11.629,3.3,16.706,10.978t5.077,19.136v7.984a50.38,50.38,0,0,0,1.475,11.282q1.475,6.335,5.12,9.025V20h-30.287q-3.471-2.69-4.513-9.459a84.091,84.091,0,0,1-1.041-12.757V-9.854q0-9.025-4.773-13.8t-13.972-4.773Zm0-22.563h14.84q8.852,0,13.538-4.035t4.686-11.585q0-7.724-4.816-12.453t-13.581-4.73h-14.666Zm167.577-32.8h-33.411V20h-29.332V-83.793h-32.8v-22.563h95.547ZM-359.281,20h-29.246V-106.356h29.246Zm125.487-126.355v81.923q0,21.7-14.406,33.975t-37.577,12.28q-23.344,0-37.837-12.28t-14.493-33.975v-81.923h29.419v81.923q0,11.716,6.075,17.7t16.836,5.988q10.674,0,16.619-5.945t5.945-17.747v-81.923ZM-149.181-13.5q0-6.769-4.426-10.37t-16.055-7.68q-23.518-7.637-34.93-16.272T-216-72.685q0-15.881,13.278-25.688t33.758-9.806q21.609,0,34.8,10.11t12.757,28.508l-.174.521h-28.465q0-8.939-4.86-12.974t-14.666-4.035q-7.984,0-12.583,3.905a12.157,12.157,0,0,0-4.6,9.633,10.381,10.381,0,0,0,4.73,8.9q4.73,3.341,17.66,8.375,21.956,6.509,33.238,15.881t11.282,25.688q0,16.662-13.017,26.078T-167.4,21.821q-21.435,0-36.318-10.11t-14.449-31.806l.174-.521h28.551q0,11.021,5.424,15.664T-167.4-.308q9.2,0,13.712-3.645A11.682,11.682,0,0,0-149.181-13.5ZM37.4-22.611l.174.521Q37.922-.482,25.382,10.67T-10.155,21.821q-23.431,0-37.62-14.319t-14.189-37.49V-56.37q0-23.084,13.668-37.447t36.145-14.362q24.039,0,37.186,11.195t12.8,32.543l-.26.521H9.024q0-11.629-4.947-16.662t-16.228-5.033q-9.893,0-15.187,7.941t-5.294,21.131v26.555q0,13.278,5.814,21.262T-10.155-.742q10.067,0,14.536-5.033T8.85-22.611Zm121.409-9.2q0,23.344-14.8,38.488T105.352,21.821q-24.039,0-38.965-15.144T51.46-31.81V-54.547q0-23.258,14.883-38.445t38.835-15.187q23.778,0,38.7,15.187T158.81-54.547ZM129.564-54.721q0-13.538-6.379-22.216t-18.007-8.678Q93.289-85.615,87-76.98t-6.292,22.26V-31.81q0,13.712,6.378,22.39T105.352-.742q11.542,0,17.877-8.678t6.335-22.39Zm113.858,36.8h.521L272.5-106.356h38.792V20H281.954V-61.4l-.521-.087L253.576,20h-19.7L206.54-60.275l-.521.087V20H176.687V-106.356h38.445Zm154.733,0h.521l28.551-88.431H466.02V20H436.687V-61.4l-.521-.087L408.309,20h-19.7L361.273-60.275l-.521.087V20H331.42V-106.356h38.445Zm191.529-88.431v81.923q0,21.7-14.406,33.975T537.7,21.821q-23.344,0-37.837-12.28T485.372-24.434v-81.923h29.419v81.923q0,11.716,6.075,17.7T537.7-.742q10.674,0,16.619-5.945t5.945-17.747v-81.923ZM714.478,20H685.232L638.977-59.494l-.521.174V20H609.124V-106.356h29.333L684.711-26.95l.521-.174v-79.232h29.246Zm51.2,0H736.434V-106.356h29.246ZM873.029-83.793H839.618V20H810.285V-83.793h-32.8v-22.563h95.547Zm59.619,32.63h.521l25.167-55.194H990.1l-42.87,81.923V20H917.982V-25.735l-42.176-80.621h31.762Z" transform="translate(722.205 108.179)" opacity="0.15" fill="url(#linear-gradient)"/>
</svg>
