<svg xmlns="http://www.w3.org/2000/svg" xmlns:xlink="http://www.w3.org/1999/xlink" width="245.409" height="105" viewBox="0 0 245.409 105">
  <defs>
    <linearGradient id="linear-gradient" x1="0.5" x2="0.5" y2="1" gradientUnits="objectBoundingBox">
      <stop offset="0" stop-color="#0ca0d5"/>
      <stop offset="1" stop-color="#0ca0d5" stop-opacity="0"/>
    </linearGradient>
  </defs>
  <path id="bee" d="M-123.047-1.641v-105h34.4q19.543,0,30.469,7.248t10.925,21.6a25.477,25.477,0,0,1-3.462,13.305,21.317,21.317,0,0,1-10.817,8.762q9.375,2.019,13.882,8.365a24.64,24.64,0,0,1,4.507,14.639q0,15.361-10.312,23.221T-83.023-1.641Zm24.375-45.072v26.322h15.649q7.788,0,11.683-3.065t3.894-9.411q0-6.707-3.425-10.168t-11.286-3.678H-98.672Zm0-16.154h9.591q8.8,0,13.125-3.065t4.327-9.123q0-6.707-4.183-9.772t-12.837-3.065H-98.672Zm131.178,16.3h-37v26.178H39.862v18.75H-28.864v-105h68.8v18.75H-4.489v22.572h37Zm82.428,0h-37v26.178H122.29v18.75H53.564v-105h68.8v18.75H77.939v22.572h37Z" transform="translate(123.047 106.641)" opacity="0.15" fill="url(#linear-gradient)"/>
</svg>
