<svg xmlns="http://www.w3.org/2000/svg" xmlns:xlink="http://www.w3.org/1999/xlink" width="403.918" height="105" viewBox="0 0 403.918 105">
  <defs>
    <linearGradient id="linear-gradient" x1="0.5" x2="0.5" y2="1" gradientUnits="objectBoundingBox">
      <stop offset="0" stop-color="#0ca0d5"/>
      <stop offset="1" stop-color="#0ca0d5" stop-opacity="0"/>
    </linearGradient>
  </defs>
  <path id="david" d="M3.4,62.344v-105H41.836q18.534,0,31.01,12.079T85.322.4V19.291q0,18.966-12.476,31.01T41.836,62.344Zm24.375-86.25v67.5H41.836A16.7,16.7,0,0,0,55.5,36.815q5.373-6.779,5.373-17.524V.252q0-10.6-5.373-17.38a16.7,16.7,0,0,0-13.666-6.779ZM153.326,41.935H122.1l-6.058,20.409H90.37l34.255-105h13.053v.072l.072-.072H150.8l34.327,105H159.456Zm-25.6-18.75H147.7l-9.808-32.6h-.433Zm97,10.673.721,3.822h.433l.721-3.534,20.841-76.8h25.529l-34.038,105H212.605l-33.894-105h25.457Zm82.428,28.486h-24.3v-105h24.3Zm18.245,0v-105h38.438q18.534,0,31.01,12.079T407.317.4V19.291q0,18.966-12.476,31.01t-31.01,12.043Zm24.375-86.25v67.5h14.063A16.7,16.7,0,0,0,377.5,36.815q5.373-6.779,5.373-17.524V.252q0-10.6-5.373-17.38a16.7,16.7,0,0,0-13.666-6.779Z" transform="translate(-3.398 42.656)" opacity="0.15" fill="url(#linear-gradient)"/>
</svg>
