<svg xmlns="http://www.w3.org/2000/svg" xmlns:xlink="http://www.w3.org/1999/xlink" width="1206.008" height="150" viewBox="0 0 1206.008 150">
  <defs>
    <linearGradient id="linear-gradient" x1="0.5" x2="0.5" y2="1" gradientUnits="objectBoundingBox">
      <stop offset="0" stop-color="#0ca0d5"/>
      <stop offset="1" stop-color="#0ca0d5" stop-opacity="0"/>
    </linearGradient>
  </defs>
  <path id="documents" d="M-439.307,39.718V-106.076h53.371q25.734,0,43.057,16.772T-325.555-46.3v26.235q0,26.335-17.323,43.057t-43.057,16.722Zm33.845-119.76V13.684h19.526q11.515,0,18.975-9.413t7.46-24.332V-46.5q0-14.72-7.46-24.132t-18.975-9.413Zm221.3,59.98q0,26.936-17.073,44.409t-44.609,17.473q-27.737,0-44.96-17.473t-17.223-44.409V-46.3q0-26.836,17.173-44.359t44.81-17.523q27.437,0,44.66,17.523T-184.166-46.3ZM-217.911-46.5q0-15.621-7.36-25.634t-20.778-10.013q-13.718,0-20.978,9.963t-7.26,25.684v26.435q0,15.821,7.36,25.834t21.078,10.013q13.318,0,20.628-10.013t7.31-25.834ZM-51.59-9.447l.2.6q.4,24.933-14.069,37.8t-41,12.867q-27.036,0-43.408-16.522t-16.372-43.258V-48.4q0-26.635,15.771-43.208t41.706-16.572q27.737,0,42.907,12.917t14.77,37.55l-.3.6H-84.333q0-13.418-5.708-19.226t-18.725-5.808q-11.415,0-17.523,9.162T-132.4-48.6v30.641q0,15.32,6.709,24.533t19.226,9.212q11.615,0,16.772-5.808t5.157-19.426ZM86.795-106.076V-11.55q0,25.033-16.622,39.2T26.815,41.821q-26.936,0-43.658-14.169t-16.722-39.2v-94.526H.38V-11.55Q.38,1.968,7.389,8.877t19.426,6.909q12.316,0,19.176-6.859T52.85-11.55v-94.526ZM186.227-4.04h.6l32.944-102.036h44.76V39.718H230.687V-54.207l-.6-.1L197.943,39.718h-22.73L143.671-52.905l-.6.1V39.718H109.225V-106.076h44.359ZM372.976-22.665H321.608V13.684H383.19V39.718H287.763V-106.076H383.29v26.035H321.608V-48.7h51.368Zm150.8,62.383H490.033L436.661-52l-.6.2V39.718H402.215V-106.076h33.845l53.371,91.622.6-.2v-91.422h33.745ZM645.54-80.041H606.988V39.718H573.143V-80.041h-37.85v-26.035H645.54ZM732.856,1.067q0-7.81-5.107-11.966t-18.525-8.862q-27.136-8.812-40.3-18.775T655.753-67.224q0-18.324,15.32-29.64t38.952-11.315q24.933,0,40.153,11.666T764.9-63.619l-.2.6H731.855q0-10.314-5.608-14.97t-16.922-4.656q-9.212,0-14.519,4.506A14.027,14.027,0,0,0,689.5-67.024a11.979,11.979,0,0,0,5.457,10.264q5.457,3.855,20.377,9.663,25.334,7.51,38.351,18.324T766.7.867q0,19.226-15.02,30.09T711.828,41.821q-24.733,0-41.906-11.666T653.25-6.543l.2-.6h32.944q0,12.717,6.258,18.074t19.176,5.357q10.614,0,15.821-4.206A13.479,13.479,0,0,0,732.856,1.067Z" transform="translate(439.307 108.179)" opacity="0.15" fill="url(#linear-gradient)"/>
</svg>
