<svg xmlns="http://www.w3.org/2000/svg" xmlns:xlink="http://www.w3.org/1999/xlink" width="1218.024" height="150" viewBox="0 0 1218.024 150">
  <defs>
    <linearGradient id="linear-gradient" x1="0.5" x2="0.5" y2="1" gradientUnits="objectBoundingBox">
      <stop offset="0" stop-color="#0ca0d5"/>
      <stop offset="1" stop-color="#0ca0d5" stop-opacity="0"/>
    </linearGradient>
  </defs>
  <path id="how-to-buy" d="M-319.466,39.718h-33.745V-18.96h-53.972V39.718h-33.845V-106.076h33.845v61.081h53.972v-61.081h33.745Zm144.393-59.78q0,26.936-17.073,44.409t-44.609,17.473q-27.737,0-44.96-17.473t-17.223-44.409V-46.3q0-26.836,17.173-44.359t44.81-17.523q27.437,0,44.66,17.523T-175.073-46.3ZM-208.818-46.5q0-15.621-7.36-25.634t-20.778-10.013q-13.718,0-20.978,9.963t-7.26,25.684v26.435q0,15.821,7.36,25.834t21.078,10.013q13.318,0,20.628-10.013t7.31-25.834ZM-37.189-11.55h.6l17.623-94.526H15.281L-18.164,39.718H-50.006L-74.539-50.3h-.6l-24.332,90.02h-31.842L-164.86-106.076h34.346L-112.89-11.45l.6.1,24.733-94.726h25.534ZM180.8-80.041H142.25V39.718H108.4V-80.041H70.554v-26.035H180.8Zm132.076,59.98q0,26.936-17.073,44.409T251.2,41.821q-27.737,0-44.96-17.473T189.012-20.061V-46.3q0-26.836,17.173-44.359t44.81-17.523q27.437,0,44.66,17.523T312.877-46.3ZM279.132-46.5q0-15.621-7.36-25.634T250.995-82.144q-13.718,0-20.978,9.963T222.757-46.5v26.435q0,15.821,7.36,25.834T251.2,15.787q13.318,0,20.627-10.013t7.31-25.834ZM384.573,39.718V-106.076h47.764q27.136,0,42.306,10.063t15.17,29.99a35.375,35.375,0,0,1-4.806,18.475q-4.806,8.061-15.02,12.166,13.017,2.8,19.276,11.615a34.213,34.213,0,0,1,6.258,20.327q0,21.328-14.319,32.243T440.147,39.718Zm33.845-62.583V13.684h21.729q10.814,0,16.222-4.256t5.407-13.067q0-9.312-4.756-14.119t-15.671-5.107H418.418Zm0-22.43h13.318q12.216,0,18.224-4.256t6.008-12.667q0-9.312-5.808-13.568t-17.824-4.256H418.418Zm216.389-60.781V-11.55q0,25.033-16.622,39.2T574.827,41.821q-26.936,0-43.658-14.169t-16.722-39.2v-94.526h33.945V-11.55q0,13.518,7.009,20.427t19.426,6.909q12.316,0,19.175-6.859t6.859-20.477v-94.526Zm75.9,63.685h.6l29.039-63.685H777L727.53-11.55V39.718H693.785v-52.77L645.12-106.076h36.649Z" transform="translate(441.028 108.179)" opacity="0.15" fill="url(#linear-gradient)"/>
</svg>
