<svg xmlns="http://www.w3.org/2000/svg" xmlns:xlink="http://www.w3.org/1999/xlink" width="1432.209" height="150" viewBox="0 0 1432.209 150">
  <defs>
    <linearGradient id="linear-gradient" x1="0.5" x2="0.5" y2="1" gradientUnits="objectBoundingBox">
      <stop offset="0" stop-color="#0ca0d5"/>
      <stop offset="1" stop-color="#0ca0d5" stop-opacity="0"/>
    </linearGradient>
  </defs>
  <path id="indroduction" d="M-489.277,39.718h-33.745V-106.076h33.745Zm146.9,0h-33.745L-429.5-52l-.6.2V39.718h-33.845V-106.076H-430.1l53.371,91.622.6-.2v-91.422h33.745Zm121.762-119.76h-38.551V39.718h-33.845V-80.041h-37.85v-26.035h110.247Zm47.563,63.885V39.718H-206.9V-106.076h50.768q25.334,0,40.154,11.716t14.82,32.043q0,11.315-5.958,19.426t-17.573,13.218q13.418,3.805,19.276,12.667t5.858,22.079v9.212a58.131,58.131,0,0,0,1.7,13.017q1.7,7.31,5.908,10.414v2h-34.947q-4.005-3.1-5.207-10.915a97.033,97.033,0,0,1-1.2-14.72V5.273q0-10.414-5.507-15.921t-16.121-5.507Zm0-26.035h17.123q10.214,0,15.621-4.656t5.407-13.368q0-8.912-5.557-14.369t-15.671-5.457h-16.923ZM45.035-20.061q0,26.936-17.073,44.409T-16.647,41.821q-27.737,0-44.96-17.473T-78.83-20.061V-46.3q0-26.836,17.173-44.359t44.81-17.523q27.437,0,44.66,17.523T45.035-46.3ZM11.29-46.5q0-15.621-7.36-25.634T-16.848-82.144q-13.718,0-20.978,9.963T-45.085-46.5v26.435q0,15.821,7.36,25.834t21.078,10.013q13.318,0,20.627-10.013t7.31-25.834ZM65.662,39.718V-106.076h53.371q25.734,0,43.057,16.772T179.414-46.3v26.235q0,26.335-17.323,43.057T119.034,39.718ZM99.508-80.041V13.684h19.526q11.515,0,18.975-9.413t7.46-24.332V-46.5q0-14.72-7.46-24.132t-18.975-9.413ZM319.1-106.076V-11.55q0,25.033-16.622,39.2T259.12,41.821q-26.936,0-43.658-14.169T198.74-11.55v-94.526h33.945V-11.55q0,13.518,7.009,20.427t19.426,6.909q12.316,0,19.176-6.859t6.859-20.477v-94.526ZM453.48-9.447l.2.6q.4,24.933-14.069,37.8t-41,12.867q-27.036,0-43.408-16.522T338.827-17.958V-48.4q0-26.636,15.771-43.208T396.3-108.179q27.737,0,42.907,12.917t14.77,37.55l-.3.6H420.736q0-13.418-5.708-19.226T396.3-82.144q-11.415,0-17.523,9.162T372.672-48.6v30.641q0,15.32,6.709,24.533t19.226,9.212q11.616,0,16.772-5.808t5.157-19.426ZM570.936-80.041H532.385V39.718H498.54V-80.041H460.689v-26.035H570.936ZM620.5,39.718H586.757V-106.076H620.5ZM767-20.061q0,26.936-17.073,44.409T705.315,41.821q-27.737,0-44.96-17.473T643.133-20.061V-46.3q0-26.836,17.173-44.359t44.81-17.523q27.437,0,44.659,17.523T767-46.3ZM733.253-46.5q0-15.621-7.36-25.634T705.115-82.144q-13.718,0-20.978,9.963T676.877-46.5v26.435q0,15.821,7.36,25.834t21.078,10.013q13.318,0,20.627-10.013t7.31-25.834ZM909.187,39.718H875.442L822.071-52l-.6.2V39.718H787.625V-106.076H821.47l53.371,91.622.6-.2v-91.422h33.745Z" transform="translate(523.022 108.179)" opacity="0.15" fill="url(#linear-gradient)"/>
</svg>
