<svg xmlns="http://www.w3.org/2000/svg" width="130" height="300" viewBox="0 0 130 300">
  <g id="metamask" transform="translate(-140 -3475)">
    <g id="Group_29" data-name="Group 29">
      <rect id="Rectangle_15" data-name="Rectangle 15" width="130" height="130" rx="20" transform="translate(140 3475)" fill="#0f122a"/>
      <g id="MetaMask_Fox" transform="translate(138.2 3472.5)">
        <path id="Path_20" data-name="Path 20" d="M201.787,35.5,174.6,55.692l5.028-11.913Z" transform="translate(-103.782)" fill="#e2761b" stroke="#e2761b" stroke-linecap="round" stroke-linejoin="round" stroke-width="1"/>
        <g id="Group_19" data-name="Group 19" transform="translate(32.374 35.5)">
          <path id="Path_21" data-name="Path 21" d="M44.4,35.5,71.368,55.883l-4.782-12.1Z" transform="translate(-41.531 -35.5)" fill="#e4761b" stroke="#e4761b" stroke-linecap="round" stroke-linejoin="round" stroke-width="1"/>
          <path id="Path_22" data-name="Path 22" d="M219.041,206.8,211.8,217.893l15.492,4.262,4.454-15.11Z" transform="translate(-163.191 -159.995)" fill="#e4761b" stroke="#e4761b" stroke-linecap="round" stroke-linejoin="round" stroke-width="1"/>
          <path id="Path_23" data-name="Path 23" d="M33.9,207.046l4.426,15.11,15.492-4.262L46.578,206.8Z" transform="translate(-33.9 -159.995)" fill="#e4761b" stroke="#e4761b" stroke-linecap="round" stroke-linejoin="round" stroke-width="1"/>
          <path id="Path_24" data-name="Path 24" d="M92.117,113.417l-4.317,6.53,15.383.683-.546-16.531Z" transform="translate(-73.073 -85.356)" fill="#e4761b" stroke="#e4761b" stroke-linecap="round" stroke-linejoin="round" stroke-width="1"/>
          <path id="Path_25" data-name="Path 25" d="M185.611,112.909,174.955,103.4l-.355,16.722,15.356-.683Z" transform="translate(-136.156 -84.847)" fill="#e4761b" stroke="#e4761b" stroke-linecap="round" stroke-linejoin="round" stroke-width="1"/>
          <path id="Path_26" data-name="Path 26" d="M106.8,218.838l9.235-4.508-7.978-6.23Z" transform="translate(-86.881 -160.94)" fill="#e4761b" stroke="#e4761b" stroke-linecap="round" stroke-linejoin="round" stroke-width="1"/>
          <path id="Path_27" data-name="Path 27" d="M177.9,214.33l9.263,4.508L185.878,208.1Z" transform="translate(-138.554 -160.94)" fill="#e4761b" stroke="#e4761b" stroke-linecap="round" stroke-linejoin="round" stroke-width="1"/>
        </g>
        <g id="Group_20" data-name="Group 20" transform="translate(52.293 88.89)">
          <path id="Path_28" data-name="Path 28" d="M187.163,235.408,177.9,230.9l.738,6.038-.082,2.541Z" transform="translate(-158.473 -230.9)" fill="#d7c1b3" stroke="#d7c1b3" stroke-linecap="round" stroke-linejoin="round" stroke-width="1"/>
          <path id="Path_29" data-name="Path 29" d="M106.8,235.408l8.607,4.071-.055-2.541.683-6.038Z" transform="translate(-106.8 -230.9)" fill="#d7c1b3" stroke="#d7c1b3" stroke-linecap="round" stroke-linejoin="round" stroke-width="1"/>
        </g>
        <path id="Path_30" data-name="Path 30" d="M118.305,180.854l-7.705-2.268,5.437-2.486Z" transform="translate(-57.269 -102.183)" fill="#233447" stroke="#233447" stroke-linecap="round" stroke-linejoin="round" stroke-width="1"/>
        <path id="Path_31" data-name="Path 31" d="M179.7,180.854l2.268-4.754,5.465,2.486Z" transform="translate(-107.489 -102.183)" fill="#233447" stroke="#233447" stroke-linecap="round" stroke-linejoin="round" stroke-width="1"/>
        <g id="Group_21" data-name="Group 21" transform="translate(45.052 70.092)">
          <path id="Path_32" data-name="Path 32" d="M87.541,217.893,88.852,206.8l-8.552.246Z" transform="translate(-80.3 -194.586)" fill="#cd6116" stroke="#cd6116" stroke-linecap="round" stroke-linejoin="round" stroke-width="1"/>
          <path id="Path_33" data-name="Path 33" d="M207,206.8l1.312,11.093,7.241-10.847Z" transform="translate(-172.381 -194.586)" fill="#cd6116" stroke="#cd6116" stroke-linecap="round" stroke-linejoin="round" stroke-width="1"/>
          <path id="Path_34" data-name="Path 34" d="M189.956,162.1l-15.356.683,1.421,7.9,2.268-4.754,5.465,2.486Z" transform="translate(-148.834 -162.1)" fill="#cd6116" stroke="#cd6116" stroke-linecap="round" stroke-linejoin="round" stroke-width="1"/>
          <path id="Path_35" data-name="Path 35" d="M94.03,168.412l5.465-2.486,2.241,4.754,1.448-7.9L87.8,162.1Z" transform="translate(-85.751 -162.1)" fill="#cd6116" stroke="#cd6116" stroke-linecap="round" stroke-linejoin="round" stroke-width="1"/>
        </g>
        <g id="Group_22" data-name="Group 22" transform="translate(47.101 70.092)">
          <path id="Path_36" data-name="Path 36" d="M87.8,162.1l6.448,12.569-.219-6.257Z" transform="translate(-87.8 -162.1)" fill="#e4751f" stroke="#e4751f" stroke-linecap="round" stroke-linejoin="round" stroke-width="1"/>
          <path id="Path_37" data-name="Path 37" d="M207.373,168.412l-.273,6.257,6.476-12.569Z" transform="translate(-174.503 -162.1)" fill="#e4751f" stroke="#e4751f" stroke-linecap="round" stroke-linejoin="round" stroke-width="1"/>
          <path id="Path_38" data-name="Path 38" d="M140.248,164.6l-1.448,7.9,1.8,9.317.41-12.268Z" transform="translate(-124.865 -163.917)" fill="#e4751f" stroke="#e4751f" stroke-linecap="round" stroke-linejoin="round" stroke-width="1"/>
          <path id="Path_39" data-name="Path 39" d="M172.638,164.6l-.738,4.918.328,12.3,1.831-9.317Z" transform="translate(-148.921 -163.917)" fill="#e4751f" stroke="#e4751f" stroke-linecap="round" stroke-linejoin="round" stroke-width="1"/>
        </g>
        <path id="Path_40" data-name="Path 40" d="M174.931,187.468l-1.831,9.317,1.312.9,7.978-6.23.273-6.257Z" transform="translate(-102.692 -108.797)" fill="#f6851b" stroke="#f6851b" stroke-linecap="round" stroke-linejoin="round" stroke-width="1"/>
        <path id="Path_41" data-name="Path 41" d="M110.6,185.2l.219,6.257,7.978,6.23,1.312-.9-1.8-9.317Z" transform="translate(-57.269 -108.797)" fill="#f6851b" stroke="#f6851b" stroke-linecap="round" stroke-linejoin="round" stroke-width="1"/>
        <path id="Path_42" data-name="Path 42" d="M126.883,251.471l.082-2.541-.683-.6h-10.3l-.628.6.055,2.541L106.8,247.4l3.006,2.459,6.093,4.235h10.465l6.12-4.235,3.006-2.459Z" transform="translate(-54.507 -154.001)" fill="#c0ad9e" stroke="#c0ad9e" stroke-linecap="round" stroke-linejoin="round" stroke-width="1"/>
        <path id="Path_43" data-name="Path 43" d="M148.975,228.5l-1.312-.9h-7.569l-1.312.9-.683,6.038.628-.6h10.3l.683.6Z" transform="translate(-77.255 -139.612)" fill="#161616" stroke="#161616" stroke-linecap="round" stroke-linejoin="round" stroke-width="1"/>
        <g id="Group_23" data-name="Group 23" transform="translate(31.8 35.5)">
          <path id="Path_44" data-name="Path 44" d="M205.333,57l2.322-11.148L204.185,35.5,177.9,55.009l10.11,8.552,14.29,4.18,3.17-3.689-1.366-.984,2.186-1.995L204.6,59.763l2.186-1.667Z" transform="translate(-137.98 -35.5)" fill="#763d16" stroke="#763d16" stroke-linecap="round" stroke-linejoin="round" stroke-width="1"/>
          <path id="Path_45" data-name="Path 45" d="M31.8,45.856,34.122,57,32.647,58.1l2.186,1.667-1.667,1.312,2.186,1.995-1.366.984,3.142,3.689,14.29-4.18,10.11-8.552L35.243,35.5Z" transform="translate(-31.8 -35.5)" fill="#763d16" stroke="#763d16" stroke-linecap="round" stroke-linejoin="round" stroke-width="1"/>
        </g>
        <path id="Path_46" data-name="Path 46" d="M223.521,142.38l-14.29-4.18,4.344,6.53L207.1,157.3l8.525-.109H228.33Z" transform="translate(-127.402 -74.639)" fill="#f6851b" stroke="#f6851b" stroke-linecap="round" stroke-linejoin="round" stroke-width="1"/>
        <path id="Path_47" data-name="Path 47" d="M52.944,138.2l-14.29,4.18L33.9,157.19H46.578l8.5.109L48.627,144.73Z" transform="translate(-1.526 -74.639)" fill="#f6851b" stroke="#f6851b" stroke-linecap="round" stroke-linejoin="round" stroke-width="1"/>
        <path id="Path_48" data-name="Path 48" d="M138.989,92.8l.9-15.766,4.153-11.23H125.6l4.1,11.23.956,15.766.328,4.973.027,12.241h7.569l.055-12.241Z" transform="translate(-68.171 -22.021)" fill="#f6851b" stroke="#f6851b" stroke-linecap="round" stroke-linejoin="round" stroke-width="1"/>
      </g>
    </g>
    <line id="Line_3" data-name="Line 3" y2="153" transform="translate(204.5 3620.5)" fill="none" stroke="#0f122a" stroke-linecap="round" stroke-width="3" stroke-dasharray="3 9"/>
  </g>
</svg>
