<svg xmlns="http://www.w3.org/2000/svg" xmlns:xlink="http://www.w3.org/1999/xlink" width="984.012" height="150" viewBox="0 0 984.012 150">
  <defs>
    <linearGradient id="linear-gradient" x1="0.5" x2="0.5" y2="1" gradientUnits="objectBoundingBox">
      <stop offset="0" stop-color="#0ca0d5"/>
      <stop offset="1" stop-color="#0ca0d5" stop-opacity="0"/>
    </linearGradient>
  </defs>
  <path id="our-team" d="M-237-20.061q0,26.936-17.073,44.409t-44.61,17.473q-27.737,0-44.96-17.473t-17.223-44.409V-46.3q0-26.836,17.173-44.359t44.81-17.523q27.437,0,44.66,17.523T-237-46.3ZM-270.744-46.5q0-15.621-7.36-25.634t-20.778-10.013q-13.718,0-20.978,9.963t-7.26,25.684v26.435q0,15.821,7.36,25.834t21.078,10.013q13.318,0,20.628-10.013t7.31-25.834Zm173.832-59.579V-11.55q0,25.033-16.622,39.2t-43.358,14.169q-26.936,0-43.658-14.169t-16.722-39.2v-94.526h33.945V-11.55q0,13.518,7.009,20.427t19.426,6.909q12.316,0,19.176-6.859t6.859-20.477v-94.526Zm56.275,89.92V39.718H-74.482V-106.076h50.768q25.334,0,40.154,11.716t14.82,32.043Q31.259-51,25.3-42.892T7.727-29.674Q21.145-25.869,27-17.007T32.861,5.072v9.212a58.13,58.13,0,0,0,1.7,13.017q1.7,7.31,5.908,10.414v2H5.524Q1.519,36.614.317,28.8a97.029,97.029,0,0,1-1.2-14.72V5.273q0-10.414-5.507-15.921t-16.121-5.507Zm0-26.035h17.123q10.214,0,15.621-4.656t5.407-13.368q0-8.912-5.557-14.369t-15.671-5.457H-40.637ZM208.8-80.041H170.244V39.718H136.4V-80.041H98.548v-26.035H208.8Zm98.932,57.377H256.359V13.684h61.582V39.718H222.514V-106.076h95.527v26.035H256.359V-48.7h51.368ZM413.268,11.381H369.91L361.5,39.718H325.851l47.563-145.794h18.124v.1l.1-.1h18.124L457.427,39.718H421.779ZM377.721-14.654h27.737l-13.618-45.26h-.6ZM544.843-4.04h.6l32.944-102.036h44.76V39.718H589.3V-54.207l-.6-.1L556.559,39.718h-22.73L502.287-52.905l-.6.1V39.718H467.841V-106.076H512.2Z" transform="translate(360.864 108.179)" opacity="0.15" fill="url(#linear-gradient)"/>
</svg>
