<svg xmlns="http://www.w3.org/2000/svg" width="130" height="386" viewBox="0 0 130 386">
  <g id="pancakeswap" transform="translate(-140 -4101)">
    <g id="Group_31" data-name="Group 31">
      <rect id="Rectangle_17" data-name="Rectangle 17" width="130" height="130" rx="20" transform="translate(140 4101)" fill="#0f122a"/>
      <g id="pancakeswap-cake-logo" transform="translate(170 4131)">
        <path id="Path_51" data-name="Path 51" d="M12.527,10.989A9.208,9.208,0,1,1,30.769,9.231V20.659c1.319,0,2.637-.22,3.956-.22a21.323,21.323,0,0,1,3.736.22V9.231A9.286,9.286,0,0,1,47.692,0a9.505,9.505,0,0,1,9.231,10.989L54.505,24.4c8.571,3.736,15.165,10.33,15.165,18.461v5.055c0,6.813-4.4,12.527-10.769,16.264-6.374,3.956-14.725,6.154-24.176,6.154s-17.8-2.2-24.176-6.154C4.4,60.439,0,54.725,0,47.912V42.857C0,34.725,6.374,28.132,14.945,24.4ZM51.209,26.154,54.066,10.33a6.5,6.5,0,0,0-6.374-7.692,6.378,6.378,0,0,0-6.374,6.374V23.516a12.532,12.532,0,0,0-2.857-.22c-1.319,0-2.418-.22-3.736-.22a23.887,23.887,0,0,0-3.956.22c-.879,0-1.978.22-2.857.22V9.231a6.337,6.337,0,1,0-12.527,1.319l2.857,15.824c-9.231,3.516-15.385,9.67-15.385,16.7v5.055c0,10.769,14.286,19.56,31.868,19.56S66.593,58.9,66.593,48.132V43.077C66.813,35.824,60.659,29.67,51.209,26.154Z" fill="#633001" fill-rule="evenodd"/>
        <path id="Path_52" data-name="Path 52" d="M65.136,24.555c0,10.769-14.286,19.56-31.868,19.56S1.4,35.324,1.4,24.555V19.5H65.356v5.055Z" transform="translate(1.677 23.357)" fill="#fedc90"/>
        <path id="Path_53" data-name="Path 53" d="M13.708,8.992A6.337,6.337,0,1,1,26.235,7.674V22.179a66.559,66.559,0,0,1,6.813-.44c2.2,0,4.4.22,6.593.44V7.674A6.378,6.378,0,0,1,46.015,1.3a6.612,6.612,0,0,1,6.374,7.692L49.532,24.816c9.231,3.516,15.6,9.67,15.6,16.7,0,10.769-14.286,19.56-31.868,19.56S1.4,52.289,1.4,41.52c0-7.033,6.154-13.187,15.385-16.7Z" transform="translate(1.677 1.557)" fill="#d1884f" fill-rule="evenodd"/>
        <path id="Path_54" data-name="Path 54" d="M15.633,21.775c0,2.857-1.538,5.275-3.516,5.275S8.6,24.632,8.6,21.775,10.138,16.5,12.116,16.5,15.633,18.918,15.633,21.775Z" transform="translate(10.301 19.764)" fill="#633001"/>
        <path id="Path_55" data-name="Path 55" d="M26.733,21.775c0,2.857-1.538,5.275-3.516,5.275S19.7,24.632,19.7,21.775,21.238,16.5,23.216,16.5,26.733,18.918,26.733,21.775Z" transform="translate(23.596 19.764)" fill="#633001"/>
      </g>
    </g>
    <line id="Line_5" data-name="Line 5" y2="235" transform="translate(204.5 4250.5)" fill="none" stroke="#0f122a" stroke-linecap="round" stroke-width="3" stroke-dasharray="3 9"/>
  </g>
</svg>
