<svg xmlns="http://www.w3.org/2000/svg" xmlns:xlink="http://www.w3.org/1999/xlink" width="634.327" height="105" viewBox="0 0 634.327 105">
  <defs>
    <linearGradient id="linear-gradient" x1="0.5" x2="0.5" y2="1" gradientUnits="objectBoundingBox">
      <stop offset="0" stop-color="#0ca0d5"/>
      <stop offset="1" stop-color="#0ca0d5" stop-opacity="0"/>
    </linearGradient>
  </defs>
  <path id="raphael" d="M27.773,22.1v40.24H3.4v-105H39.961q18.245,0,28.918,8.438T79.552-11.142a22.98,22.98,0,0,1-4.291,13.99Q70.971,8.69,62.605,12.368q9.663,2.74,13.882,9.123t4.219,15.9v6.635A41.865,41.865,0,0,0,81.932,53.4q1.226,5.264,4.255,7.5v1.442H61.019q-2.885-2.236-3.75-7.861a69.88,69.88,0,0,1-.865-10.6V37.536q0-7.5-3.966-11.466T40.826,22.1Zm0-18.75H40.105q7.356,0,11.25-3.353t3.894-9.627a13.854,13.854,0,0,0-4-10.349q-4-3.93-11.286-3.93H27.773Zm124.76,38.582H121.307l-6.058,20.409H89.576l34.255-105h13.053v.072l.072-.072h13.053l34.327,105H158.663Zm-25.6-18.75h19.976L137.1-9.411h-.433Zm89.279,3.173V62.344H191.836v-105h40.1q18.678,0,29.639,9.519T272.533-8.113q0,15.5-10.962,24.988t-29.639,9.483Zm0-18.75h15.721q7.933,0,12.115-4.363A15.538,15.538,0,0,0,248.23-7.969a16.2,16.2,0,0,0-4.147-11.466q-4.147-4.471-12.151-4.471H216.211ZM373.567,62.344h-24.3V20.084h-38.87v42.26H286.019v-105h24.375V1.334h38.87v-43.99h24.3Zm72.981-20.409H415.322l-6.058,20.409H383.591l34.255-105H430.9v.072l.072-.072h13.053l34.327,105H452.677Zm-25.6-18.75h19.976l-9.808-32.6h-.433Zm126.274-5.769h-37V43.594h44.351v18.75H485.85v-105h68.8v18.75H510.225V-1.334h37Zm45.433,26.178h45.072v18.75H568.278v-105h24.375Z" transform="translate(-3.398 42.656)" opacity="0.15" fill="url(#linear-gradient)"/>
</svg>
