<svg xmlns="http://www.w3.org/2000/svg" xmlns:xlink="http://www.w3.org/1999/xlink" width="1274.399" height="150" viewBox="0 0 1274.399 150">
  <defs>
    <linearGradient id="linear-gradient" x1="0.5" x2="0.5" y2="1" gradientUnits="objectBoundingBox">
      <stop offset="0" stop-color="#0ca0d5"/>
      <stop offset="1" stop-color="#0ca0d5" stop-opacity="0"/>
    </linearGradient>
  </defs>
  <path id="tokenomics" d="M-357.295-80.041h-38.551V39.718h-33.845V-80.041h-37.85v-26.035h110.247Zm132.076,59.98q0,26.936-17.073,44.409T-286.9,41.821q-27.737,0-44.96-17.473t-17.223-44.409V-46.3q0-26.836,17.173-44.359t44.81-17.523q27.437,0,44.66,17.523T-225.218-46.3ZM-258.963-46.5q0-15.621-7.36-25.634T-287.1-82.144q-13.718,0-20.978,9.963t-7.26,25.684v26.435q0,15.821,7.36,25.834T-286.9,15.787q13.318,0,20.628-10.013t7.31-25.834Zm97.63,27.737h-9.413V39.718h-33.845V-106.076h33.845V-49h7.009l32.944-57.076h42.557L-134.1-39.788l49.766,79.506h-43.458ZM11.4-22.665H-39.971V13.684H21.611V39.718H-73.817V-106.076H21.711v26.035H-39.971V-48.7H11.4ZM162.2,39.718H128.453L75.082-52l-.6.2V39.718H40.636V-106.076H74.481l53.371,91.622.6-.2v-91.422H162.2Zm144.393-59.78q0,26.936-17.073,44.409T244.908,41.821q-27.737,0-44.96-17.473T182.726-20.061V-46.3q0-26.836,17.173-44.359t44.81-17.523q27.437,0,44.66,17.523T306.591-46.3ZM272.846-46.5q0-15.621-7.36-25.634T244.708-82.144q-13.718,0-20.978,9.963T216.471-46.5v26.435q0,15.821,7.36,25.834t21.078,10.013q13.318,0,20.627-10.013t7.31-25.834ZM404.221-4.04h.6l32.944-102.036h44.76V39.718H448.68V-54.207l-.6-.1L415.936,39.718h-22.73L361.664-52.905l-.6.1V39.718H327.218V-106.076h44.359ZM541.6,39.718H507.859V-106.076H541.6ZM678.887-9.447l.2.6q.4,24.933-14.069,37.8t-41,12.867q-27.036,0-43.408-16.522T564.234-17.958V-48.4q0-26.635,15.771-43.208t41.706-16.572q27.737,0,42.907,12.917t14.77,37.55l-.3.6H646.144q0-13.418-5.708-19.226t-18.725-5.808q-11.415,0-17.523,9.162T598.079-48.6v30.641q0,15.32,6.709,24.533t19.226,9.212q11.615,0,16.772-5.808t5.157-19.426ZM773.013,1.067q0-7.81-5.107-11.966t-18.525-8.862q-27.136-8.812-40.3-18.775T695.91-67.224q0-18.324,15.32-29.64t38.952-11.315q24.933,0,40.154,11.666t14.72,32.894l-.2.6H772.011q0-10.314-5.607-14.97t-16.923-4.656q-9.212,0-14.519,4.506a14.027,14.027,0,0,0-5.307,11.115,11.978,11.978,0,0,0,5.457,10.264q5.457,3.855,20.377,9.663,25.334,7.51,38.351,18.324T806.858.867q0,19.226-15.02,30.09T751.985,41.821q-24.733,0-41.906-11.666t-16.672-36.7l.2-.6h32.944q0,12.717,6.258,18.074t19.176,5.357q10.614,0,15.821-4.206A13.479,13.479,0,0,0,773.013,1.067Z" transform="translate(467.542 108.179)" opacity="0.15" fill="url(#linear-gradient)"/>
</svg>
