<svg xmlns="http://www.w3.org/2000/svg" xmlns:xlink="http://www.w3.org/1999/xlink" width="1201.001" height="150" viewBox="0 0 1201.001 150">
  <defs>
    <linearGradient id="linear-gradient" x1="0.5" x2="0.5" y2="1" gradientUnits="objectBoundingBox">
      <stop offset="0" stop-color="#0ca0d5"/>
      <stop offset="1" stop-color="#0ca0d5" stop-opacity="0"/>
    </linearGradient>
  </defs>
  <path id="Path_70" data-name="Path 70" d="M-107.681,38.934h.6l17.624-94.526h34.246L-88.656,90.2H-120.5L-145.031.182h-.6L-169.964,90.2h-31.842L-235.352-55.593h34.346l17.623,94.626.6.1,24.733-94.726h25.534ZM79.368,90.2H45.623V31.524H-8.349V90.2H-42.194V-55.593H-8.349V5.489H45.623V-55.593H79.368Zm73.9-82.109h.6l29.039-63.685h36.649L170.089,38.934V90.2H136.344V37.432L87.679-55.593h36.649ZM358.04,61.864H314.682L306.271,90.2H270.623L318.186-55.593h18.124v.1l.1-.1h18.124L402.2,90.2H366.551ZM322.492,35.829h27.737L336.611-9.431h-.6Zm123.965-1.5V90.2H412.612V-55.593H463.38q25.334,0,40.154,11.716t14.82,32.043q0,11.315-5.958,19.426T494.822,20.809Q508.24,24.614,514.1,33.476t5.858,22.079v9.212a58.131,58.131,0,0,0,1.7,13.017q1.7,7.31,5.908,10.414v2H492.619q-4.005-3.1-5.207-10.915a97.028,97.028,0,0,1-1.2-14.72V55.756q0-10.414-5.507-15.921t-16.121-5.507Zm0-26.035H463.58q10.214,0,15.621-4.656t5.407-13.368q0-8.912-5.557-14.369T463.38-29.558H446.458Zm193.358-37.85H601.264V90.2H567.419V-29.558h-37.85V-55.593H639.815ZM689.381,90.2H655.636V-55.593h33.745ZM834.174-55.593V38.934q0,25.033-16.622,39.2T774.195,92.3q-26.936,0-43.658-14.169t-16.722-39.2V-55.593h33.945V38.934q0,13.518,7.009,20.427t19.426,6.909q12.316,0,19.176-6.859t6.859-20.477V-55.593ZM931.8,51.55q0-7.81-5.107-11.966t-18.525-8.862q-27.136-8.812-40.3-18.775T854.7-16.741q0-18.324,15.32-29.64T908.974-57.7q24.933,0,40.154,11.666t14.72,32.894l-.2.6H930.8q0-10.314-5.608-14.97t-16.922-4.656q-9.212,0-14.519,4.506a14.028,14.028,0,0,0-5.307,11.115A11.979,11.979,0,0,0,893.9-6.277q5.457,3.855,20.377,9.663,25.334,7.51,38.351,18.324T965.65,51.35q0,19.226-15.02,30.09T910.777,92.3q-24.733,0-41.906-11.666T852.2,43.94l.2-.6h32.944q0,12.717,6.258,18.074t19.176,5.357q10.614,0,15.821-4.206A13.479,13.479,0,0,0,931.8,51.55Z" transform="translate(235.352 57.695)" opacity="0.15" fill="url(#linear-gradient)"/>
</svg>
