<svg width="1167" height="72" viewBox="0 0 1167 72" fill="none" xmlns="http://www.w3.org/2000/svg">
<path d="M2.29296 71C1.75963 71 1.25963 70.8 0.792963 70.4C0.392963 69.9333 0.192963 69.4333 0.192963 68.9C0.192963 68.5 0.226296 68.2 0.292963 68L23.793 3.8C23.993 3 24.4263 2.33334 25.093 1.8C25.7596 1.26667 26.6263 0.999999 27.693 0.999999H42.493C43.5596 0.999999 44.4263 1.26667 45.093 1.8C45.7596 2.33334 46.193 3 46.393 3.8L69.793 68L69.993 68.9C69.993 69.4333 69.7596 69.9333 69.293 70.4C68.893 70.8 68.393 71 67.793 71H55.493C53.893 71 52.8263 70.3 52.293 68.9L48.393 58.7H21.693L17.893 68.9C17.3596 70.3 16.2596 71 14.593 71H2.29296ZM44.393 44.3L35.093 17.9L25.793 44.3H44.393Z" fill="url(#paint0_linear)" fill-opacity="0.15"/>
<path d="M80.375 71C79.7083 71 79.1083 70.7667 78.575 70.3C78.1083 69.7667 77.875 69.1667 77.875 68.5V3.5C77.875 2.76667 78.1083 2.16667 78.575 1.7C79.1083 1.23333 79.7083 0.999999 80.375 0.999999H110.875C119.275 0.999999 125.508 2.73333 129.575 6.2C133.708 9.6 135.775 14.4667 135.775 20.8C135.775 24.1333 134.908 26.9667 133.175 29.3C131.508 31.5667 129.608 33.2333 127.475 34.3C130.208 35.5667 132.508 37.6 134.375 40.4C136.242 43.2 137.175 46.3333 137.175 49.8C137.175 56.4667 134.975 61.6667 130.575 65.4C126.175 69.1333 119.908 71 111.775 71H80.375ZM108.875 28.8C111.542 28.8 113.575 28.1333 114.975 26.8C116.375 25.4 117.075 23.5667 117.075 21.3C117.075 19.1 116.375 17.3333 114.975 16C113.575 14.6667 111.542 14 108.875 14H95.875V28.8H108.875ZM109.775 58C112.508 58 114.642 57.2 116.175 55.6C117.708 54 118.475 52.0667 118.475 49.8C118.475 47.4 117.708 45.4333 116.175 43.9C114.642 42.3 112.508 41.5 109.775 41.5H95.875V58H109.775Z" fill="url(#paint1_linear)" fill-opacity="0.15"/>
<path d="M176.885 72C167.485 72 160.085 69.7 154.685 65.1C149.285 60.5 146.418 53.7333 146.085 44.8C146.018 42.8667 145.985 40 145.985 36.2C145.985 32.3333 146.018 29.4333 146.085 27.5C146.418 18.7 149.318 11.9333 154.785 7.2C160.318 2.4 167.685 0 176.885 0C186.085 0 193.452 2.4 198.985 7.2C204.518 11.9333 207.418 18.7 207.685 27.5C207.818 31.3667 207.885 34.2667 207.885 36.2C207.885 38.0667 207.818 40.9333 207.685 44.8C207.352 53.7333 204.485 60.5 199.085 65.1C193.685 69.7 186.285 72 176.885 72ZM176.885 57.6C180.552 57.6 183.452 56.5 185.585 54.3C187.785 52.1 188.952 48.7333 189.085 44.2C189.218 40.3333 189.285 37.6 189.285 36C189.285 34.2667 189.218 31.5333 189.085 27.8C188.952 23.2667 187.785 19.9 185.585 17.7C183.385 15.5 180.485 14.4 176.885 14.4C173.285 14.4 170.385 15.5 168.185 17.7C166.052 19.9 164.885 23.2667 164.685 27.8C164.618 29.6667 164.585 32.4 164.585 36C164.585 39.5333 164.618 42.2667 164.685 44.2C164.885 48.7333 166.052 52.1 168.185 54.3C170.318 56.5 173.218 57.6 176.885 57.6Z" fill="url(#paint2_linear)" fill-opacity="0.15"/>
<path d="M248.877 72C239.477 72 232.11 69.7 226.777 65.1C221.51 60.5 218.877 53.5667 218.877 44.3V3.5C218.877 2.76667 219.11 2.16667 219.577 1.7C220.11 1.23333 220.71 0.999999 221.377 0.999999H234.277C235.01 0.999999 235.61 1.23333 236.077 1.7C236.61 2.16667 236.877 2.76667 236.877 3.5V44.2C236.877 48.5333 237.877 51.8 239.877 54C241.943 56.1333 244.91 57.2 248.777 57.2C252.577 57.2 255.51 56.1 257.577 53.9C259.643 51.7 260.677 48.4667 260.677 44.2V3.5C260.677 2.76667 260.91 2.16667 261.377 1.7C261.91 1.23333 262.51 0.999999 263.177 0.999999H276.177C276.91 0.999999 277.51 1.23333 277.977 1.7C278.443 2.16667 278.677 2.76667 278.677 3.5V44.3C278.677 53.5667 276.01 60.5 270.677 65.1C265.41 69.7 258.143 72 248.877 72Z" fill="url(#paint3_linear)" fill-opacity="0.15"/>
<path d="M309.837 71C309.171 71 308.571 70.7667 308.038 70.3C307.571 69.7667 307.337 69.1667 307.337 68.5V16.7H289.538C288.871 16.7 288.271 16.4667 287.737 16C287.271 15.4667 287.038 14.8667 287.038 14.2V3.5C287.038 2.76667 287.271 2.16667 287.737 1.7C288.271 1.23333 288.871 0.999999 289.538 0.999999H343.337C344.071 0.999999 344.671 1.23333 345.138 1.7C345.604 2.16667 345.837 2.76667 345.837 3.5V14.2C345.837 14.9333 345.604 15.5333 345.138 16C344.671 16.4667 344.071 16.7 343.337 16.7H325.538V68.5C325.538 69.1667 325.304 69.7667 324.837 70.3C324.371 70.7667 323.771 71 323.038 71H309.837Z" fill="url(#paint4_linear)" fill-opacity="0.15"/>
<path d="M389.427 71C388.761 71 388.161 70.7667 387.627 70.3C387.161 69.7667 386.927 69.1667 386.927 68.5V16.7H369.127C368.461 16.7 367.861 16.4667 367.327 16C366.861 15.4667 366.627 14.8667 366.627 14.2V3.5C366.627 2.76667 366.861 2.16667 367.327 1.7C367.861 1.23333 368.461 0.999999 369.127 0.999999H422.927C423.661 0.999999 424.261 1.23333 424.727 1.7C425.194 2.16667 425.427 2.76667 425.427 3.5V14.2C425.427 14.9333 425.194 15.5333 424.727 16C424.261 16.4667 423.661 16.7 422.927 16.7H405.127V68.5C405.127 69.1667 404.894 69.7667 404.427 70.3C403.961 70.7667 403.361 71 402.627 71H389.427Z" fill="url(#paint5_linear)" fill-opacity="0.15"/>
<path d="M437.016 71C436.282 71 435.682 70.7667 435.216 70.3C434.749 69.8333 434.516 69.2333 434.516 68.5V3.5C434.516 2.76667 434.749 2.16667 435.216 1.7C435.749 1.23333 436.349 0.999999 437.016 0.999999H449.916C450.649 0.999999 451.249 1.23333 451.716 1.7C452.249 2.16667 452.516 2.76667 452.516 3.5V27.6H477.116V3.5C477.116 2.76667 477.349 2.16667 477.816 1.7C478.282 1.23333 478.882 0.999999 479.616 0.999999H492.516C493.249 0.999999 493.849 1.23333 494.316 1.7C494.782 2.16667 495.016 2.76667 495.016 3.5V68.5C495.016 69.2333 494.782 69.8333 494.316 70.3C493.849 70.7667 493.249 71 492.516 71H479.616C478.882 71 478.282 70.7667 477.816 70.3C477.349 69.8333 477.116 69.2333 477.116 68.5V43.6H452.516V68.5C452.516 69.2333 452.249 69.8333 451.716 70.3C451.249 70.7667 450.649 71 449.916 71H437.016Z" fill="url(#paint6_linear)" fill-opacity="0.15"/>
<path d="M511.527 71C510.861 71 510.261 70.7667 509.727 70.3C509.261 69.7667 509.027 69.1667 509.027 68.5V3.5C509.027 2.76667 509.261 2.16667 509.727 1.7C510.261 1.23333 510.861 0.999999 511.527 0.999999H558.227C558.961 0.999999 559.561 1.23333 560.027 1.7C560.494 2.16667 560.727 2.76667 560.727 3.5V12.9C560.727 13.5667 560.494 14.1667 560.027 14.7C559.561 15.1667 558.961 15.4 558.227 15.4H526.327V28.9H556.027C556.761 28.9 557.361 29.1667 557.827 29.7C558.294 30.1667 558.527 30.7667 558.527 31.5V40.2C558.527 40.8667 558.294 41.4667 557.827 42C557.361 42.4667 556.761 42.7 556.027 42.7H526.327V56.6H559.027C559.761 56.6 560.361 56.8333 560.827 57.3C561.294 57.7667 561.527 58.3667 561.527 59.1V68.5C561.527 69.1667 561.294 69.7667 560.827 70.3C560.361 70.7667 559.761 71 559.027 71H511.527Z" fill="url(#paint7_linear)" fill-opacity="0.15"/>
<path d="M609.74 71C609.073 71 608.473 70.7667 607.94 70.3C607.473 69.7667 607.24 69.1667 607.24 68.5V16.7H589.44C588.773 16.7 588.173 16.4667 587.64 16C587.173 15.4667 586.94 14.8667 586.94 14.2V3.5C586.94 2.76667 587.173 2.16667 587.64 1.7C588.173 1.23333 588.773 0.999999 589.44 0.999999H643.24C643.973 0.999999 644.573 1.23333 645.04 1.7C645.506 2.16667 645.74 2.76667 645.74 3.5V14.2C645.74 14.9333 645.506 15.5333 645.04 16C644.573 16.4667 643.973 16.7 643.24 16.7H625.44V68.5C625.44 69.1667 625.207 69.7667 624.74 70.3C624.273 70.7667 623.673 71 622.94 71H609.74Z" fill="url(#paint8_linear)" fill-opacity="0.15"/>
<path d="M657.328 71C656.661 71 656.061 70.7667 655.528 70.3C655.061 69.7667 654.828 69.1667 654.828 68.5V3.5C654.828 2.76667 655.061 2.16667 655.528 1.7C656.061 1.23333 656.661 0.999999 657.328 0.999999H704.028C704.761 0.999999 705.361 1.23333 705.828 1.7C706.295 2.16667 706.528 2.76667 706.528 3.5V12.9C706.528 13.5667 706.295 14.1667 705.828 14.7C705.361 15.1667 704.761 15.4 704.028 15.4H672.128V28.9H701.828C702.561 28.9 703.161 29.1667 703.628 29.7C704.095 30.1667 704.328 30.7667 704.328 31.5V40.2C704.328 40.8667 704.095 41.4667 703.628 42C703.161 42.4667 702.561 42.7 701.828 42.7H672.128V56.6H704.828C705.561 56.6 706.161 56.8333 706.628 57.3C707.095 57.7667 707.328 58.3667 707.328 59.1V68.5C707.328 69.1667 707.095 69.7667 706.628 70.3C706.161 70.7667 705.561 71 704.828 71H657.328Z" fill="url(#paint9_linear)" fill-opacity="0.15"/>
<path d="M744.795 72C738.462 72 733.029 71.0667 728.495 69.2C723.962 67.3333 720.529 64.9 718.195 61.9C715.929 58.8333 714.729 55.5 714.595 51.9C714.595 51.3667 714.795 50.9 715.195 50.5C715.662 50.0333 716.195 49.8 716.795 49.8H729.395C730.195 49.8 730.829 49.9667 731.295 50.3C731.829 50.5667 732.362 51 732.895 51.6C733.762 53.3333 735.162 54.7667 737.095 55.9C739.029 57.0333 741.595 57.6 744.795 57.6C748.595 57.6 751.495 57 753.495 55.8C755.495 54.6 756.495 52.9667 756.495 50.9C756.495 49.4333 755.962 48.2333 754.895 47.3C753.895 46.3667 752.295 45.5333 750.095 44.8C747.895 44.0667 744.629 43.2333 740.295 42.3C732.295 40.6333 726.295 38.2 722.295 35C718.362 31.7333 716.395 27.1 716.395 21.1C716.395 17.0333 717.529 13.4 719.795 10.2C722.062 7 725.295 4.5 729.495 2.7C733.695 0.9 738.595 0 744.195 0C749.995 0 755.029 1 759.295 3C763.562 5 766.795 7.53333 768.995 10.6C771.262 13.6 772.462 16.5667 772.595 19.5C772.595 20.1 772.395 20.6 771.995 21C771.595 21.4 771.095 21.6 770.495 21.6H757.295C756.495 21.6 755.829 21.4667 755.295 21.2C754.829 20.9333 754.395 20.5 753.995 19.9C753.595 18.3667 752.495 17.0667 750.695 16C748.962 14.9333 746.795 14.4 744.195 14.4C741.195 14.4 738.895 14.9333 737.295 16C735.695 17.0667 734.895 18.6333 734.895 20.7C734.895 22.1 735.329 23.2667 736.195 24.2C737.129 25.1333 738.595 26 740.595 26.8C742.662 27.5333 745.595 28.3 749.395 29.1C755.595 30.2333 760.529 31.6667 764.195 33.4C767.929 35.0667 770.662 37.2667 772.395 40C774.129 42.6667 774.995 46.0333 774.995 50.1C774.995 54.5667 773.695 58.4667 771.095 61.8C768.562 65.0667 764.995 67.6 760.395 69.4C755.862 71.1333 750.662 72 744.795 72Z" fill="url(#paint10_linear)" fill-opacity="0.15"/>
<path d="M787.504 71C786.837 71 786.237 70.7667 785.704 70.3C785.237 69.7667 785.004 69.1667 785.004 68.5V3.5C785.004 2.76667 785.237 2.16667 785.704 1.7C786.237 1.23333 786.837 0.999999 787.504 0.999999H800.704C801.437 0.999999 802.037 1.23333 802.504 1.7C802.971 2.16667 803.204 2.76667 803.204 3.5V55.9H833.504C834.237 55.9 834.837 56.1667 835.304 56.7C835.771 57.1667 836.004 57.7667 836.004 58.5V68.5C836.004 69.1667 835.771 69.7667 835.304 70.3C834.837 70.7667 834.237 71 833.504 71H787.504Z" fill="url(#paint11_linear)" fill-opacity="0.15"/>
<path d="M840.672 71C840.139 71 839.639 70.8 839.172 70.4C838.772 69.9333 838.572 69.4333 838.572 68.9C838.572 68.5 838.605 68.2 838.672 68L862.172 3.8C862.372 3 862.805 2.33334 863.472 1.8C864.139 1.26667 865.005 0.999999 866.072 0.999999H880.872C881.939 0.999999 882.805 1.26667 883.472 1.8C884.139 2.33334 884.572 3 884.772 3.8L908.172 68L908.372 68.9C908.372 69.4333 908.139 69.9333 907.672 70.4C907.272 70.8 906.772 71 906.172 71H893.872C892.272 71 891.205 70.3 890.672 68.9L886.772 58.7H860.072L856.272 68.9C855.739 70.3 854.639 71 852.972 71H840.672ZM882.772 44.3L873.472 17.9L864.172 44.3H882.772Z" fill="url(#paint12_linear)" fill-opacity="0.15"/>
<path d="M963.704 72C954.171 72 946.704 69.7 941.304 65.1C935.971 60.4333 933.137 53.7 932.804 44.9C932.737 43.1 932.704 40.1667 932.704 36.1C932.704 31.9667 932.737 28.9667 932.804 27.1C933.137 18.4333 936.037 11.7667 941.504 7.1C946.971 2.36667 954.371 0 963.704 0C969.571 0 974.837 1 979.504 3C984.171 4.93334 987.837 7.73334 990.504 11.4C993.237 15 994.637 19.2333 994.704 24.1V24.3C994.704 24.8333 994.471 25.3 994.004 25.7C993.604 26.0333 993.137 26.2 992.604 26.2H979.104C978.237 26.2 977.571 26.0333 977.104 25.7C976.637 25.3 976.237 24.6 975.904 23.6C974.971 20.2 973.504 17.8333 971.504 16.5C969.504 15.1 966.871 14.4 963.604 14.4C955.737 14.4 951.671 18.8 951.404 27.6C951.337 29.4 951.304 32.1667 951.304 35.9C951.304 39.6333 951.337 42.4667 951.404 44.4C951.671 53.2 955.737 57.6 963.604 57.6C966.871 57.6 969.537 56.9 971.604 55.5C973.671 54.0333 975.104 51.6667 975.904 48.4C976.171 47.4 976.537 46.7333 977.004 46.4C977.471 46 978.171 45.8 979.104 45.8H992.604C993.204 45.8 993.704 46 994.104 46.4C994.571 46.8 994.771 47.3 994.704 47.9C994.637 52.7667 993.237 57.0333 990.504 60.7C987.837 64.3 984.171 67.1 979.504 69.1C974.837 71.0333 969.571 72 963.704 72Z" fill="url(#paint13_linear)" fill-opacity="0.15"/>
<path d="M1033.82 72C1024.42 72 1017.02 69.7 1011.62 65.1C1006.22 60.5 1003.35 53.7333 1003.02 44.8C1002.95 42.8667 1002.92 40 1002.92 36.2C1002.92 32.3333 1002.95 29.4333 1003.02 27.5C1003.35 18.7 1006.25 11.9333 1011.72 7.2C1017.25 2.4 1024.62 0 1033.82 0C1043.02 0 1050.39 2.4 1055.92 7.2C1061.45 11.9333 1064.35 18.7 1064.62 27.5C1064.75 31.3667 1064.82 34.2667 1064.82 36.2C1064.82 38.0667 1064.75 40.9333 1064.62 44.8C1064.29 53.7333 1061.42 60.5 1056.02 65.1C1050.62 69.7 1043.22 72 1033.82 72ZM1033.82 57.6C1037.49 57.6 1040.39 56.5 1042.52 54.3C1044.72 52.1 1045.89 48.7333 1046.02 44.2C1046.15 40.3333 1046.22 37.6 1046.22 36C1046.22 34.2667 1046.15 31.5333 1046.02 27.8C1045.89 23.2667 1044.72 19.9 1042.52 17.7C1040.32 15.5 1037.42 14.4 1033.82 14.4C1030.22 14.4 1027.32 15.5 1025.12 17.7C1022.99 19.9 1021.82 23.2667 1021.62 27.8C1021.55 29.6667 1021.52 32.4 1021.52 36C1021.52 39.5333 1021.55 42.2667 1021.62 44.2C1021.82 48.7333 1022.99 52.1 1025.12 54.3C1027.25 56.5 1030.15 57.6 1033.82 57.6Z" fill="url(#paint14_linear)" fill-opacity="0.15"/>
<path d="M1078.91 71C1078.24 71 1077.64 70.7667 1077.11 70.3C1076.64 69.7667 1076.41 69.1667 1076.41 68.5V3.5C1076.41 2.76667 1076.64 2.16667 1077.11 1.7C1077.64 1.23333 1078.24 0.999999 1078.91 0.999999H1092.31C1093.04 0.999999 1093.64 1.23333 1094.11 1.7C1094.64 2.16667 1094.91 2.76667 1094.91 3.5V68.5C1094.91 69.2333 1094.64 69.8333 1094.11 70.3C1093.64 70.7667 1093.04 71 1092.31 71H1078.91Z" fill="url(#paint15_linear)" fill-opacity="0.15"/>
<path d="M1111.33 71C1110.67 71 1110.07 70.7667 1109.53 70.3C1109.07 69.7667 1108.83 69.1667 1108.83 68.5V3.5C1108.83 2.76667 1109.07 2.16667 1109.53 1.7C1110.07 1.23333 1110.67 0.999999 1111.33 0.999999H1121.93C1123.6 0.999999 1124.73 1.63333 1125.33 2.9L1149.73 41.3V3.5C1149.73 2.76667 1149.97 2.16667 1150.43 1.7C1150.97 1.23333 1151.57 0.999999 1152.23 0.999999H1164.23C1164.97 0.999999 1165.57 1.23333 1166.03 1.7C1166.5 2.16667 1166.73 2.76667 1166.73 3.5V68.4C1166.73 69.1333 1166.5 69.7667 1166.03 70.3C1165.57 70.7667 1164.97 71 1164.23 71H1153.53C1152.07 71 1150.97 70.3667 1150.23 69.1L1125.83 32.1V68.5C1125.83 69.1667 1125.6 69.7667 1125.13 70.3C1124.67 70.7667 1124.07 71 1123.33 71H1111.33Z" fill="url(#paint16_linear)" fill-opacity="0.15"/>
<defs>
<linearGradient id="paint0_linear" x1="586.5" y1="-12.9907" x2="586.5" y2="70.4206" gradientUnits="userSpaceOnUse">
<stop stop-color="#E82127"/>
<stop offset="1" stop-color="#E82127" stop-opacity="0"/>
</linearGradient>
<linearGradient id="paint1_linear" x1="586.5" y1="-12.9907" x2="586.5" y2="70.4206" gradientUnits="userSpaceOnUse">
<stop stop-color="#E82127"/>
<stop offset="1" stop-color="#E82127" stop-opacity="0"/>
</linearGradient>
<linearGradient id="paint2_linear" x1="586.5" y1="-12.9907" x2="586.5" y2="70.4206" gradientUnits="userSpaceOnUse">
<stop stop-color="#E82127"/>
<stop offset="1" stop-color="#E82127" stop-opacity="0"/>
</linearGradient>
<linearGradient id="paint3_linear" x1="586.5" y1="-12.9907" x2="586.5" y2="70.4206" gradientUnits="userSpaceOnUse">
<stop stop-color="#E82127"/>
<stop offset="1" stop-color="#E82127" stop-opacity="0"/>
</linearGradient>
<linearGradient id="paint4_linear" x1="586.5" y1="-12.9907" x2="586.5" y2="70.4206" gradientUnits="userSpaceOnUse">
<stop stop-color="#E82127"/>
<stop offset="1" stop-color="#E82127" stop-opacity="0"/>
</linearGradient>
<linearGradient id="paint5_linear" x1="586.5" y1="-12.9907" x2="586.5" y2="70.4206" gradientUnits="userSpaceOnUse">
<stop stop-color="#E82127"/>
<stop offset="1" stop-color="#E82127" stop-opacity="0"/>
</linearGradient>
<linearGradient id="paint6_linear" x1="586.5" y1="-12.9907" x2="586.5" y2="70.4206" gradientUnits="userSpaceOnUse">
<stop stop-color="#E82127"/>
<stop offset="1" stop-color="#E82127" stop-opacity="0"/>
</linearGradient>
<linearGradient id="paint7_linear" x1="586.5" y1="-12.9907" x2="586.5" y2="70.4206" gradientUnits="userSpaceOnUse">
<stop stop-color="#E82127"/>
<stop offset="1" stop-color="#E82127" stop-opacity="0"/>
</linearGradient>
<linearGradient id="paint8_linear" x1="586.5" y1="-12.9907" x2="586.5" y2="70.4206" gradientUnits="userSpaceOnUse">
<stop stop-color="#E82127"/>
<stop offset="1" stop-color="#E82127" stop-opacity="0"/>
</linearGradient>
<linearGradient id="paint9_linear" x1="586.5" y1="-12.9907" x2="586.5" y2="70.4206" gradientUnits="userSpaceOnUse">
<stop stop-color="#E82127"/>
<stop offset="1" stop-color="#E82127" stop-opacity="0"/>
</linearGradient>
<linearGradient id="paint10_linear" x1="586.5" y1="-12.9907" x2="586.5" y2="70.4206" gradientUnits="userSpaceOnUse">
<stop stop-color="#E82127"/>
<stop offset="1" stop-color="#E82127" stop-opacity="0"/>
</linearGradient>
<linearGradient id="paint11_linear" x1="586.5" y1="-12.9907" x2="586.5" y2="70.4206" gradientUnits="userSpaceOnUse">
<stop stop-color="#E82127"/>
<stop offset="1" stop-color="#E82127" stop-opacity="0"/>
</linearGradient>
<linearGradient id="paint12_linear" x1="586.5" y1="-12.9907" x2="586.5" y2="70.4206" gradientUnits="userSpaceOnUse">
<stop stop-color="#E82127"/>
<stop offset="1" stop-color="#E82127" stop-opacity="0"/>
</linearGradient>
<linearGradient id="paint13_linear" x1="586.5" y1="-12.9907" x2="586.5" y2="70.4206" gradientUnits="userSpaceOnUse">
<stop stop-color="#E82127"/>
<stop offset="1" stop-color="#E82127" stop-opacity="0"/>
</linearGradient>
<linearGradient id="paint14_linear" x1="586.5" y1="-12.9907" x2="586.5" y2="70.4206" gradientUnits="userSpaceOnUse">
<stop stop-color="#E82127"/>
<stop offset="1" stop-color="#E82127" stop-opacity="0"/>
</linearGradient>
<linearGradient id="paint15_linear" x1="586.5" y1="-12.9907" x2="586.5" y2="70.4206" gradientUnits="userSpaceOnUse">
<stop stop-color="#E82127"/>
<stop offset="1" stop-color="#E82127" stop-opacity="0"/>
</linearGradient>
<linearGradient id="paint16_linear" x1="586.5" y1="-12.9907" x2="586.5" y2="70.4206" gradientUnits="userSpaceOnUse">
<stop stop-color="#E82127"/>
<stop offset="1" stop-color="#E82127" stop-opacity="0"/>
</linearGradient>
</defs>
</svg>
