<svg width="90" height="90" viewBox="0 0 90 90" fill="none" xmlns="http://www.w3.org/2000/svg">
<rect y="-0.000488281" width="90" height="90" rx="16" fill="#E82127"/>
<g clip-path="url(#clip0)">
<path d="M35.2148 40.9114L44.8791 31.2471L54.5519 40.9157L60.1755 35.2921L44.8826 20L29.5969 35.2857L35.2148 40.9107V40.9114ZM20.0005 44.8821L25.6241 39.2579L31.2469 44.8807L25.6233 50.5043L20.0005 44.8821ZM35.2148 48.8536L44.8791 58.5179L54.5519 48.8493L60.1784 54.47L44.8826 69.7643L29.5969 54.4786L29.5891 54.4707L35.2205 48.855L35.2148 48.8536ZM58.5198 44.8864L64.1434 39.2607L69.7662 44.8836L64.1434 50.5079L58.5198 44.8864Z" fill="#F3BA2F"/>
<path d="M50.586 44.8793L44.8803 39.1729L40.666 43.3872L40.1817 43.8721L39.1817 44.8721L39.1738 44.88L39.1817 44.8878L44.8831 50.59L50.5895 44.8836H50.5846" fill="#F3BA2F"/>
</g>
<defs>
<clipPath id="clip0">
<rect width="49.7643" height="49.7643" fill="white" transform="translate(20.0005 20)"/>
</clipPath>
</defs>
</svg>
