<svg width="88" height="870" viewBox="0 0 88 870" fill="none" xmlns="http://www.w3.org/2000/svg">
<rect x="0.706177" width="86.5877" height="86.5877" rx="16" fill="#E82127"/>
<g clip-path="url(#clip0)">
<path d="M65.7879 20.9595L47.1049 34.8355L50.5601 26.6488L65.7879 20.9595Z" fill="#E2761B" stroke="#E2761B" stroke-linecap="round" stroke-linejoin="round"/>
<path d="M22.6575 20.9595L41.19 34.9667L37.9038 26.6516L22.6575 20.9595Z" fill="#E4761B" stroke="#E4761B" stroke-linecap="round" stroke-linejoin="round"/>
<path d="M59.0663 53.124L54.0902 60.7472L64.7364 63.676L67.7972 53.2924L59.0663 53.124Z" fill="#E4761B" stroke="#E4761B" stroke-linecap="round" stroke-linejoin="round"/>
<path d="M20.6859 53.2931L23.7275 63.6767L34.3736 60.7479L29.3983 53.124L20.6859 53.2931Z" fill="#E4761B" stroke="#E4761B" stroke-linecap="round" stroke-linejoin="round"/>
<path d="M33.7731 40.2432L30.8064 44.7306L41.3776 45.2L41.0024 33.8398L33.7731 40.2432Z" fill="#E4761B" stroke="#E4761B" stroke-linecap="round" stroke-linejoin="round"/>
<path d="M54.6715 40.2438L47.3487 33.7092L47.1047 45.2007L57.6574 44.7313L54.6715 40.2438Z" fill="#E4761B" stroke="#E4761B" stroke-linecap="round" stroke-linejoin="round"/>
<path d="M34.3744 60.7474L40.7207 57.6494L35.2382 53.3682L34.3744 60.7474Z" fill="#E4761B" stroke="#E4761B" stroke-linecap="round" stroke-linejoin="round"/>
<path d="M47.7246 57.6494L54.0902 60.7474L53.2071 53.3682L47.7246 57.6494Z" fill="#E4761B" stroke="#E4761B" stroke-linecap="round" stroke-linejoin="round"/>
<path d="M54.0903 60.7473L47.7247 57.6494L48.2319 61.7988L48.1755 63.5449L54.0903 60.7473Z" fill="#D7C1B3" stroke="#D7C1B3" stroke-linecap="round" stroke-linejoin="round"/>
<path d="M34.3744 60.7473L40.2891 63.5449L40.2514 61.7988L40.7207 57.6494L34.3744 60.7473Z" fill="#D7C1B3" stroke="#D7C1B3" stroke-linecap="round" stroke-linejoin="round"/>
<path d="M40.3826 50.6268L35.0876 49.0682L38.824 47.3599L40.3826 50.6268Z" fill="#233447" stroke="#233447" stroke-linecap="round" stroke-linejoin="round"/>
<path d="M48.0621 50.6268L49.6207 47.3599L53.3763 49.0682L48.0621 50.6268Z" fill="#233447" stroke="#233447" stroke-linecap="round" stroke-linejoin="round"/>
<path d="M34.3744 60.7479L35.2753 53.1248L29.3983 53.2938L34.3744 60.7479Z" fill="#CD6116" stroke="#CD6116" stroke-linecap="round" stroke-linejoin="round"/>
<path d="M53.1886 53.1248L54.0902 60.7479L59.0662 53.2938L53.1886 53.1248Z" fill="#CD6116" stroke="#CD6116" stroke-linecap="round" stroke-linejoin="round"/>
<path d="M57.6576 44.7312L47.1049 45.2006L48.0814 50.6295L49.64 47.3625L53.3955 49.0709L57.6576 44.7312Z" fill="#CD6116" stroke="#CD6116" stroke-linecap="round" stroke-linejoin="round"/>
<path d="M35.0877 49.0688L38.8432 47.3604L40.3833 50.6274L41.3783 45.1985L30.8064 44.7312L35.0877 49.0688Z" fill="#CD6116" stroke="#CD6116" stroke-linecap="round" stroke-linejoin="round"/>
<path d="M30.8064 44.7312L35.2375 53.3687L35.087 49.0688L30.8064 44.7312Z" fill="#E4751F" stroke="#E4751F" stroke-linecap="round" stroke-linejoin="round"/>
<path d="M53.3948 49.0688L53.2072 53.3687L57.6575 44.7312L53.3948 49.0688Z" fill="#E4751F" stroke="#E4751F" stroke-linecap="round" stroke-linejoin="round"/>
<path d="M41.3776 45.2004L40.3826 50.6293L41.6195 57.032L41.9013 48.6014L41.3776 45.2004Z" fill="#E4751F" stroke="#E4751F" stroke-linecap="round" stroke-linejoin="round"/>
<path d="M47.1048 45.2004L46.5977 48.5801L46.8231 57.0327L48.0813 50.63L47.1048 45.2004Z" fill="#E4751F" stroke="#E4751F" stroke-linecap="round" stroke-linejoin="round"/>
<path d="M48.0814 50.6269L46.8231 57.0295L47.7247 57.648L53.2072 53.3667L53.3948 49.0669L48.0814 50.6269Z" fill="#F6851B" stroke="#F6851B" stroke-linecap="round" stroke-linejoin="round"/>
<path d="M35.0876 49.0681L35.2381 53.368L40.7207 57.6492L41.6223 57.0308L40.3853 50.6281L35.0876 49.0681Z" fill="#F6851B" stroke="#F6851B" stroke-linecap="round" stroke-linejoin="round"/>
<path d="M48.1755 63.5454L48.2319 61.7992L47.7625 61.3869H40.6843L40.2527 61.7992L40.2905 63.5454L34.3744 60.7478L36.4401 62.4376L40.6273 65.3479H47.8188L52.0245 62.4376L54.0903 60.7478L48.1755 63.5454Z" fill="#C0AD9E" stroke="#C0AD9E" stroke-linecap="round" stroke-linejoin="round"/>
<path d="M47.7246 57.648L46.823 57.0295H41.6216L40.72 57.648L40.2506 61.7974L40.6822 61.385H47.7604L48.2297 61.7974L47.7246 57.648Z" fill="#161616" stroke="#161616" stroke-linecap="round" stroke-linejoin="round"/>
<path d="M66.5767 35.7344L68.1724 28.0734L65.7878 20.9595L47.7246 34.3661L54.6722 40.2431L64.4924 43.1156L66.6708 40.5805L65.7321 39.9043L67.2343 38.5333L66.073 37.6331L67.5752 36.4875L66.5767 35.7344Z" fill="#763D16" stroke="#763D16" stroke-linecap="round" stroke-linejoin="round"/>
<path d="M20.2915 28.0762L21.8872 35.7344L20.8736 36.4903L22.3758 37.6358L21.2302 38.5375L22.7325 39.9084L21.7937 40.5846L23.9529 43.1197L33.7731 40.2472L40.7207 34.3703L22.6575 20.9595L20.2915 28.0762Z" fill="#763D16" stroke="#763D16" stroke-linecap="round" stroke-linejoin="round"/>
<path d="M64.4917 43.1157L54.6716 40.2432L57.6568 44.7306L53.2072 53.3688L59.0656 53.2939H67.7965L64.4917 43.1157Z" fill="#F6851B" stroke="#F6851B" stroke-linecap="round" stroke-linejoin="round"/>
<path d="M33.773 40.2432L23.9529 43.1157L20.6859 53.2932H29.3983L35.2395 53.3681L30.8064 44.7306L33.773 40.2432Z" fill="#F6851B" stroke="#F6851B" stroke-linecap="round" stroke-linejoin="round"/>
<path d="M47.1048 45.2034L47.7233 34.3689L50.5772 26.6516H37.9038L40.7213 34.3689L41.3783 45.2034L41.6037 48.6208L41.6223 57.0329H46.8237L46.8615 48.6208L47.1048 45.2034Z" fill="#F6851B" stroke="#F6851B" stroke-linecap="round" stroke-linejoin="round"/>
</g>
<line x1="46" y1="102.332" x2="46" y2="224.777" stroke="#444D61" stroke-width="4" stroke-linecap="round" stroke-dasharray="10 10"/>
<line x1="46" y1="342.853" x2="46" y2="465.299" stroke="#444D61" stroke-width="4" stroke-linecap="round" stroke-dasharray="10 10"/>
<line x1="46" y1="583.375" x2="46" y2="767.668" stroke="#444D61" stroke-width="4" stroke-linecap="round" stroke-dasharray="10 10"/>
<rect x="0.706177" y="240.521" width="86.5877" height="86.5877" rx="16" fill="#E82127"/>
<g clip-path="url(#clip1)">
<path d="M34.5853 279.882L43.8832 270.584L53.1893 279.886L58.5997 274.476L43.8866 259.763L29.1805 274.47L34.5853 279.881V279.882ZM19.9479 283.702L25.3582 278.291L30.7679 283.701L25.3575 289.111L19.9479 283.702ZM34.5853 287.523L43.8832 296.821L53.1893 287.519L58.6024 292.927L43.8866 307.641L29.1805 292.935L29.1729 292.927L34.5908 287.524L34.5853 287.523ZM57.0067 283.706L62.4171 278.294L67.8267 283.704L62.4171 289.115L57.0067 283.706Z" fill="#F3BA2F"/>
<path d="M49.3739 283.699L43.8845 278.209L39.83 282.264L39.3641 282.73L38.402 283.692L38.3944 283.7L38.402 283.708L43.8873 289.194L49.3773 283.703H49.3725" fill="#F3BA2F"/>
</g>
<rect x="0.706177" y="481.043" width="86.5877" height="86.5877" rx="16" fill="#E82127"/>
<g clip-path="url(#clip2)">
<path fill-rule="evenodd" clip-rule="evenodd" d="M28.5565 507.836C28.3855 506.969 28.398 506.076 28.5931 505.214C28.7882 504.353 29.1616 503.541 29.6893 502.833C30.2169 502.124 30.8871 501.534 31.6567 501.1C32.4263 500.666 33.2783 500.398 34.1577 500.313C35.0371 500.228 35.9246 500.329 36.7629 500.608C37.6012 500.887 38.3718 501.338 39.0251 501.933C39.6783 502.528 40.1998 503.253 40.5558 504.062C40.9119 504.87 41.0947 505.744 41.0925 506.628V514.481C41.9989 514.481 42.9046 514.33 43.811 514.33C44.6696 514.305 45.5287 514.356 46.3784 514.481V506.628C46.3883 504.948 47.0599 503.341 48.2474 502.153C49.4349 500.966 51.0426 500.294 52.722 500.284C53.6569 500.3 54.5775 500.516 55.4217 500.918C56.2659 501.32 57.014 501.898 57.6154 502.614C58.2168 503.33 58.6575 504.167 58.9076 505.067C59.1578 505.968 59.2117 506.912 59.0656 507.836L57.4039 517.052C63.2939 519.619 67.8254 524.151 67.8254 529.738V533.212C67.8254 537.894 64.8017 541.821 60.4249 544.389C56.0446 547.108 50.3058 548.618 43.811 548.618C37.3163 548.618 31.5788 547.106 27.1972 544.389C22.9716 541.818 19.9479 537.891 19.9479 533.21V529.736C19.9479 524.147 24.3281 519.617 30.2181 517.052L28.5565 507.836ZM55.1389 518.257L57.1022 507.383C57.2224 506.739 57.1994 506.077 57.0349 505.442C56.8705 504.808 56.5686 504.218 56.1506 503.714C55.7326 503.209 55.2088 502.803 54.6163 502.524C54.0238 502.244 53.3771 502.099 52.722 502.097C51.5605 502.098 50.4468 502.56 49.6255 503.381C48.8042 504.202 48.3425 505.316 48.3418 506.477V516.445C47.6953 516.319 47.0365 516.269 46.3784 516.293C45.472 516.293 44.7168 516.142 43.811 516.142C42.9022 516.117 41.9929 516.168 41.0925 516.293C40.4884 516.293 39.7332 516.445 39.1291 516.445V506.628C39.1327 506.015 39.0071 505.409 38.7604 504.848C38.5138 504.288 38.1516 503.785 37.6976 503.374C37.2436 502.963 36.7079 502.652 36.1256 502.462C35.5433 502.272 34.9275 502.207 34.3184 502.271C33.7092 502.335 33.1204 502.527 32.5905 502.834C32.0606 503.142 31.6014 503.557 31.243 504.054C30.8846 504.55 30.635 505.117 30.5105 505.717C30.386 506.317 30.3894 506.936 30.5205 507.534L32.4838 518.409C26.1403 520.825 21.9112 525.054 21.9112 529.885V533.359C21.9112 540.759 31.7286 546.8 43.811 546.8C55.8934 546.8 65.7108 540.761 65.7108 533.361V529.887C65.862 524.903 61.633 520.674 55.1389 518.257Z" fill="#633001"/>
<path d="M65.862 533.21C65.862 540.61 56.0446 546.651 43.9622 546.651C31.8798 546.651 22.0624 540.61 22.0624 533.21V529.736H66.0132V533.21H65.862Z" fill="#FEDC90"/>
<path fill-rule="evenodd" clip-rule="evenodd" d="M30.5205 507.534C30.3894 506.935 30.3859 506.316 30.5105 505.716C30.635 505.117 30.8846 504.55 31.2431 504.053C31.6015 503.557 32.0607 503.141 32.5907 502.834C33.1207 502.527 33.7095 502.335 34.3187 502.271C34.9279 502.207 35.5437 502.272 36.126 502.462C36.7083 502.652 37.2439 502.963 37.6979 503.374C38.1519 503.785 38.514 504.288 38.7607 504.848C39.0073 505.409 39.1328 506.016 39.1291 506.628V516.596C40.6835 516.415 42.2462 516.314 43.811 516.294C45.3229 516.294 46.8347 516.445 48.3417 516.596V506.628C48.3425 505.467 48.8042 504.353 49.6255 503.532C50.4468 502.71 51.5605 502.249 52.722 502.248C53.3728 502.263 54.0128 502.417 54.5988 502.7C55.1848 502.984 55.703 503.39 56.1183 503.891C56.5337 504.393 56.8365 504.977 57.0062 505.606C57.176 506.234 57.2087 506.892 57.1022 507.534L55.1389 518.408C61.4825 520.824 65.8593 525.053 65.8593 529.884C65.8593 537.285 56.0419 543.326 43.9594 543.326C31.877 543.326 22.0624 537.288 22.0624 529.887C22.0624 525.054 26.2914 520.825 32.635 518.411L30.5205 507.534Z" fill="#D1884F"/>
<path d="M37.7699 528.83C37.7699 530.793 36.713 532.455 35.3537 532.455C33.9944 532.455 32.9368 530.793 32.9368 528.83C32.9368 526.867 33.9937 525.205 35.353 525.205C36.7123 525.205 37.7699 526.867 37.7699 528.83Z" fill="#633001"/>
<path d="M54.5342 528.83C54.5342 530.793 53.4772 532.455 52.1179 532.455C50.7587 532.455 49.701 530.793 49.701 528.83C49.701 526.867 50.758 525.205 52.1173 525.205C53.4766 525.205 54.5342 526.867 54.5342 528.83Z" fill="#633001"/>
</g>
<rect x="0.706177" y="783.412" width="86.5877" height="86.5877" rx="16" fill="#E82127"/>
<path d="M43.7726 852.82L51.207 811.008C58.2933 811.008 60.5285 811.785 60.8512 814.957C60.8512 814.957 65.6049 813.185 68.0025 809.585C58.6464 805.249 49.2457 805.054 49.2457 805.054L43.7602 811.735L43.7726 811.734L38.2871 805.053C38.2871 805.053 28.8862 805.248 19.5314 809.584C21.9269 813.184 26.6824 814.956 26.6824 814.956C27.0071 811.784 29.2395 811.007 36.2783 811.002L43.7726 852.82Z" fill="white"/>
<path d="M43.7698 803.124C51.3329 803.066 59.9897 804.294 68.8516 808.157C70.036 806.025 70.3405 805.082 70.3405 805.082C60.6531 801.25 51.581 799.938 43.7688 799.905C35.9569 799.938 26.8852 801.25 17.1991 805.082C17.1991 805.082 17.6312 806.243 18.687 808.157C27.5472 804.294 36.2055 803.066 43.7688 803.124H43.7698" fill="white"/>
<defs>
<clipPath id="clip0">
<rect width="48.5681" height="45.0758" fill="white" transform="translate(19.9479 20.616)"/>
</clipPath>
<clipPath id="clip1">
<rect width="47.8775" height="47.8775" fill="white" transform="translate(19.9479 259.763)"/>
</clipPath>
<clipPath id="clip2">
<rect width="47.8775" height="48.3304" fill="white" transform="translate(19.9479 500.284)"/>
</clipPath>
</defs>
</svg>
