<svg width="55" height="55" viewBox="0 0 55 55" fill="none" xmlns="http://www.w3.org/2000/svg">
<path d="M27.5 55C42.6878 55 55 42.6878 55 27.5C55 12.3122 42.6878 0 27.5 0C12.3122 0 0 12.3122 0 27.5C0 42.6878 12.3122 55 27.5 55Z" fill="white"/>
<path d="M40.0039 18.1221C40.0039 18.1221 36.4268 15.3184 32.1943 14.9961L31.8184 15.7588C35.6426 16.6934 37.3936 18.0361 39.2305 19.6797C36.0723 18.0684 32.9463 16.5537 27.5107 16.5537C22.0752 16.5537 18.9492 18.0684 15.791 19.6797C17.6279 18.0361 19.7119 16.543 23.2031 15.7588L22.8272 14.9961C18.3906 15.415 15.0176 18.1221 15.0176 18.1221C15.0176 18.1221 11.0215 23.9229 10.334 35.3096C14.3623 39.9609 20.4854 39.9932 20.4854 39.9932L21.7637 38.2852C19.5938 37.5332 17.1338 36.1797 15.0176 33.7412C17.542 35.6533 21.3662 37.6514 27.5215 37.6514C33.6768 37.6514 37.4902 35.6641 40.0254 33.7412C37.9092 36.1797 35.4492 37.5332 33.2793 38.2852L34.5576 39.9932C34.5576 39.9932 40.6807 39.9609 44.709 35.3096C44 23.9229 40.0039 18.1221 40.0039 18.1221ZM22.4189 32.1836C20.9043 32.1836 19.6797 30.7871 19.6797 29.0576C19.6797 27.3281 20.9043 25.9316 22.4189 25.9316C23.9336 25.9316 25.1582 27.3281 25.1582 29.0576C25.1582 30.7871 23.9336 32.1836 22.4189 32.1836ZM32.5811 32.1836C31.0664 32.1836 29.8418 30.7871 29.8418 29.0576C29.8418 27.3281 31.0664 25.9316 32.5811 25.9316C34.0957 25.9316 35.3203 27.3281 35.3203 29.0576C35.3203 30.7871 34.085 32.1836 32.5811 32.1836Z" fill="#444D61"/>
</svg>
