<svg width="55" height="55" viewBox="0 0 55 55" fill="none" xmlns="http://www.w3.org/2000/svg">
<path d="M27.5 0C12.3114 0 0 12.3114 0 27.5C0 42.6886 12.3131 55 27.5 55C42.6886 55 55 42.6886 55 27.5C55 12.3114 42.6886 0 27.5 0ZM31.0527 32.5875C31.625 33.0842 32.0702 34.8356 32.0702 35.64V42.7625H28.0053H23.9353C23.9353 42.7625 23.9473 40.3477 23.9353 38.6925C18.3666 39.8905 16.8128 35.64 16.8128 35.64C15.7953 33.605 14.7778 32.5875 14.7778 32.5875C12.7428 31.3792 14.7778 31.57 14.7778 31.57C16.8128 31.57 17.8303 33.605 17.8303 33.605C19.6161 36.6369 22.7941 36.1488 23.9353 35.64C23.9353 34.6225 24.3805 33.0842 24.9528 32.5875C20.5081 32.0873 16.8094 29.535 16.8094 24.4475C16.8094 19.36 17.8303 18.3425 18.8478 17.325C18.6416 16.8231 17.7908 14.9703 18.8788 12.2375C18.8788 12.2375 20.8777 12.2375 22.9127 15.29C23.9216 14.2811 26.9827 14.2725 28.0019 14.2725C29.0177 14.2725 32.0805 14.2811 33.0877 15.29C35.1227 12.2375 37.1267 12.2375 37.1267 12.2375C38.2147 14.9703 37.3639 16.8231 37.1577 17.325C38.1752 18.3425 39.1927 19.36 39.1927 24.4475C39.1944 29.535 35.4991 32.0873 31.0527 32.5875Z" fill="white"/>
</svg>
