<svg width="604" height="72" viewBox="0 0 604 72" fill="none" xmlns="http://www.w3.org/2000/svg">
<path d="M2.73828 71C2.00495 71 1.40495 70.7667 0.938282 70.3C0.471615 69.8333 0.238281 69.2333 0.238281 68.5V3.5C0.238281 2.76667 0.471615 2.16667 0.938282 1.7C1.47161 1.23333 2.07161 0.999999 2.73828 0.999999H15.6383C16.3716 0.999999 16.9716 1.23333 17.4383 1.7C17.9716 2.16667 18.2383 2.76667 18.2383 3.5V27.6H42.8383V3.5C42.8383 2.76667 43.0716 2.16667 43.5383 1.7C44.005 1.23333 44.605 0.999999 45.3383 0.999999H58.2383C58.9716 0.999999 59.5716 1.23333 60.0383 1.7C60.5049 2.16667 60.7383 2.76667 60.7383 3.5V68.5C60.7383 69.2333 60.5049 69.8333 60.0383 70.3C59.5716 70.7667 58.9716 71 58.2383 71H45.3383C44.605 71 44.005 70.7667 43.5383 70.3C43.0716 69.8333 42.8383 69.2333 42.8383 68.5V43.6H18.2383V68.5C18.2383 69.2333 17.9716 69.8333 17.4383 70.3C16.9716 70.7667 16.3716 71 15.6383 71H2.73828Z" fill="url(#paint0_linear)" fill-opacity="0.15"/>
<path d="M103.35 72C93.95 72 86.55 69.7 81.15 65.1C75.75 60.5 72.8833 53.7333 72.55 44.8C72.4833 42.8667 72.45 40 72.45 36.2C72.45 32.3333 72.4833 29.4333 72.55 27.5C72.8833 18.7 75.7833 11.9333 81.25 7.2C86.7833 2.4 94.15 0 103.35 0C112.55 0 119.917 2.4 125.45 7.2C130.983 11.9333 133.883 18.7 134.15 27.5C134.283 31.3667 134.35 34.2667 134.35 36.2C134.35 38.0667 134.283 40.9333 134.15 44.8C133.817 53.7333 130.95 60.5 125.55 65.1C120.15 69.7 112.75 72 103.35 72ZM103.35 57.6C107.017 57.6 109.917 56.5 112.05 54.3C114.25 52.1 115.417 48.7333 115.55 44.2C115.683 40.3333 115.75 37.6 115.75 36C115.75 34.2667 115.683 31.5333 115.55 27.8C115.417 23.2667 114.25 19.9 112.05 17.7C109.85 15.5 106.95 14.4 103.35 14.4C99.75 14.4 96.85 15.5 94.65 17.7C92.5167 19.9 91.35 23.2667 91.15 27.8C91.0833 29.6667 91.05 32.4 91.05 36C91.05 39.5333 91.0833 42.2667 91.15 44.2C91.35 48.7333 92.5167 52.1 94.65 54.3C96.7833 56.5 99.6833 57.6 103.35 57.6Z" fill="url(#paint1_linear)" fill-opacity="0.15"/>
<path d="M156.36 71C155.227 71 154.327 70.7 153.66 70.1C152.993 69.4333 152.593 68.6333 152.46 67.7L141.56 3.8C141.493 3.6 141.46 3.36667 141.46 3.1C141.46 2.56667 141.66 2.1 142.06 1.7C142.527 1.23333 143.027 0.999999 143.56 0.999999H155.96C157.827 0.999999 158.86 1.73333 159.06 3.2L165.56 42.2L172.76 19.2C173.493 17.4 174.593 16.5 176.06 16.5H183.26C184.927 16.5 186.027 17.4 186.56 19.2L193.76 42.2L200.26 3.2C200.46 1.73333 201.493 0.999999 203.36 0.999999H215.76C216.36 0.999999 216.86 1.23333 217.26 1.7C217.727 2.1 217.96 2.56667 217.96 3.1L217.86 3.8L206.96 67.7C206.827 68.6333 206.393 69.4333 205.66 70.1C204.993 70.7 204.127 71 203.06 71H193.56C192.494 71 191.66 70.7333 191.06 70.2C190.46 69.6667 190.027 69.0667 189.76 68.4L179.66 39.8L169.56 68.4C168.96 70.1333 167.727 71 165.86 71H156.36Z" fill="url(#paint2_linear)" fill-opacity="0.15"/>
<path d="M264.33 71C263.663 71 263.063 70.7667 262.53 70.3C262.063 69.7667 261.83 69.1667 261.83 68.5V16.7H244.03C243.363 16.7 242.763 16.4667 242.23 16C241.763 15.4667 241.53 14.8667 241.53 14.2V3.5C241.53 2.76667 241.763 2.16667 242.23 1.7C242.763 1.23333 243.363 0.999999 244.03 0.999999H297.83C298.563 0.999999 299.163 1.23333 299.63 1.7C300.096 2.16667 300.33 2.76667 300.33 3.5V14.2C300.33 14.9333 300.096 15.5333 299.63 16C299.163 16.4667 298.563 16.7 297.83 16.7H280.03V68.5C280.03 69.1667 279.796 69.7667 279.33 70.3C278.863 70.7667 278.263 71 277.53 71H264.33Z" fill="url(#paint3_linear)" fill-opacity="0.15"/>
<path d="M336.944 72C327.544 72 320.144 69.7 314.744 65.1C309.344 60.5 306.477 53.7333 306.144 44.8C306.077 42.8667 306.044 40 306.044 36.2C306.044 32.3333 306.077 29.4333 306.144 27.5C306.477 18.7 309.377 11.9333 314.844 7.2C320.377 2.4 327.744 0 336.944 0C346.144 0 353.51 2.4 359.044 7.2C364.577 11.9333 367.477 18.7 367.744 27.5C367.877 31.3667 367.944 34.2667 367.944 36.2C367.944 38.0667 367.877 40.9333 367.744 44.8C367.41 53.7333 364.544 60.5 359.144 65.1C353.744 69.7 346.344 72 336.944 72ZM336.944 57.6C340.61 57.6 343.51 56.5 345.644 54.3C347.844 52.1 349.01 48.7333 349.144 44.2C349.277 40.3333 349.344 37.6 349.344 36C349.344 34.2667 349.277 31.5333 349.144 27.8C349.01 23.2667 347.844 19.9 345.644 17.7C343.444 15.5 340.544 14.4 336.944 14.4C333.344 14.4 330.444 15.5 328.244 17.7C326.11 19.9 324.944 23.2667 324.744 27.8C324.677 29.6667 324.644 32.4 324.644 36C324.644 39.5333 324.677 42.2667 324.744 44.2C324.944 48.7333 326.11 52.1 328.244 54.3C330.377 56.5 333.277 57.6 336.944 57.6Z" fill="url(#paint4_linear)" fill-opacity="0.15"/>
<path d="M403.324 71C402.658 71 402.058 70.7667 401.524 70.3C401.058 69.7667 400.824 69.1667 400.824 68.5V3.5C400.824 2.76667 401.058 2.16667 401.524 1.7C402.058 1.23333 402.658 0.999999 403.324 0.999999H433.824C442.224 0.999999 448.458 2.73333 452.524 6.2C456.658 9.6 458.724 14.4667 458.724 20.8C458.724 24.1333 457.858 26.9667 456.124 29.3C454.458 31.5667 452.558 33.2333 450.424 34.3C453.158 35.5667 455.458 37.6 457.324 40.4C459.191 43.2 460.124 46.3333 460.124 49.8C460.124 56.4667 457.924 61.6667 453.524 65.4C449.124 69.1333 442.858 71 434.724 71H403.324ZM431.824 28.8C434.491 28.8 436.524 28.1333 437.924 26.8C439.324 25.4 440.024 23.5667 440.024 21.3C440.024 19.1 439.324 17.3333 437.924 16C436.524 14.6667 434.491 14 431.824 14H418.824V28.8H431.824ZM432.724 58C435.458 58 437.591 57.2 439.124 55.6C440.658 54 441.424 52.0667 441.424 49.8C441.424 47.4 440.658 45.4333 439.124 43.9C437.591 42.3 435.458 41.5 432.724 41.5H418.824V58H432.724Z" fill="url(#paint5_linear)" fill-opacity="0.15"/>
<path d="M500.634 72C491.234 72 483.868 69.7 478.534 65.1C473.268 60.5 470.634 53.5667 470.634 44.3V3.5C470.634 2.76667 470.868 2.16667 471.334 1.7C471.868 1.23333 472.468 0.999999 473.134 0.999999H486.034C486.768 0.999999 487.368 1.23333 487.834 1.7C488.368 2.16667 488.634 2.76667 488.634 3.5V44.2C488.634 48.5333 489.634 51.8 491.634 54C493.701 56.1333 496.668 57.2 500.534 57.2C504.334 57.2 507.268 56.1 509.334 53.9C511.401 51.7 512.434 48.4667 512.434 44.2V3.5C512.434 2.76667 512.668 2.16667 513.134 1.7C513.668 1.23333 514.268 0.999999 514.934 0.999999H527.934C528.668 0.999999 529.268 1.23333 529.734 1.7C530.201 2.16667 530.434 2.76667 530.434 3.5V44.3C530.434 53.5667 527.768 60.5 522.434 65.1C517.168 69.7 509.901 72 500.634 72Z" fill="url(#paint6_linear)" fill-opacity="0.15"/>
<path d="M564.195 71C563.529 71 562.929 70.7667 562.395 70.3C561.929 69.7667 561.695 69.1667 561.695 68.5V47L538.495 4.2C538.295 3.6 538.195 3.23333 538.195 3.1C538.195 2.56667 538.395 2.1 538.795 1.7C539.262 1.23333 539.795 0.999999 540.395 0.999999H552.895C554.229 0.999999 555.395 1.7 556.395 3.1L570.695 28.9L585.095 3.1C585.895 1.7 587.062 0.999999 588.595 0.999999H601.095C601.695 0.999999 602.195 1.23333 602.595 1.7C602.995 2.1 603.195 2.56667 603.195 3.1C603.195 3.43333 603.129 3.8 602.995 4.2L579.795 47V68.5C579.795 69.2333 579.529 69.8333 578.995 70.3C578.529 70.7667 577.929 71 577.195 71H564.195Z" fill="url(#paint7_linear)" fill-opacity="0.15"/>
<defs>
<linearGradient id="paint0_linear" x1="299" y1="-12.9907" x2="299" y2="70.4206" gradientUnits="userSpaceOnUse">
<stop stop-color="#E82127"/>
<stop offset="1" stop-color="#E82127" stop-opacity="0"/>
</linearGradient>
<linearGradient id="paint1_linear" x1="299" y1="-12.9907" x2="299" y2="70.4206" gradientUnits="userSpaceOnUse">
<stop stop-color="#E82127"/>
<stop offset="1" stop-color="#E82127" stop-opacity="0"/>
</linearGradient>
<linearGradient id="paint2_linear" x1="299" y1="-12.9907" x2="299" y2="70.4206" gradientUnits="userSpaceOnUse">
<stop stop-color="#E82127"/>
<stop offset="1" stop-color="#E82127" stop-opacity="0"/>
</linearGradient>
<linearGradient id="paint3_linear" x1="299" y1="-12.9907" x2="299" y2="70.4206" gradientUnits="userSpaceOnUse">
<stop stop-color="#E82127"/>
<stop offset="1" stop-color="#E82127" stop-opacity="0"/>
</linearGradient>
<linearGradient id="paint4_linear" x1="299" y1="-12.9907" x2="299" y2="70.4206" gradientUnits="userSpaceOnUse">
<stop stop-color="#E82127"/>
<stop offset="1" stop-color="#E82127" stop-opacity="0"/>
</linearGradient>
<linearGradient id="paint5_linear" x1="299" y1="-12.9907" x2="299" y2="70.4206" gradientUnits="userSpaceOnUse">
<stop stop-color="#E82127"/>
<stop offset="1" stop-color="#E82127" stop-opacity="0"/>
</linearGradient>
<linearGradient id="paint6_linear" x1="299" y1="-12.9907" x2="299" y2="70.4206" gradientUnits="userSpaceOnUse">
<stop stop-color="#E82127"/>
<stop offset="1" stop-color="#E82127" stop-opacity="0"/>
</linearGradient>
<linearGradient id="paint7_linear" x1="299" y1="-12.9907" x2="299" y2="70.4206" gradientUnits="userSpaceOnUse">
<stop stop-color="#E82127"/>
<stop offset="1" stop-color="#E82127" stop-opacity="0"/>
</linearGradient>
</defs>
</svg>
