<svg width="108" height="108" viewBox="0 0 108 108" fill="none" xmlns="http://www.w3.org/2000/svg">
<circle cx="54" cy="54" r="54" fill="#E82127"/>
<g clip-path="url(#clip0)">
<path d="M40.6578 65.3231C41.0976 64.9361 41.3658 64.3903 41.4036 63.8057C41.4413 63.221 41.2455 62.6453 40.8591 62.2049L40.7372 62.0655C40.5459 61.8481 40.3134 61.6708 40.0532 61.5437C39.793 61.4166 39.5102 61.3422 39.2212 61.325H39.074C38.5393 61.3249 38.0229 61.5201 37.6219 61.8738L34.6606 64.4741L31.9635 66.841C31.5248 67.2286 31.2575 67.7741 31.2199 68.3583C31.1823 68.9424 31.3777 69.5177 31.7631 69.9582L31.887 70.0996C32.2744 70.5392 32.8203 70.8073 33.405 70.8451C33.9897 70.8828 34.5655 70.6871 35.0062 70.3009L37.0798 68.4819L40.6578 65.3231Z" fill="white"/>
<path d="M33.5463 71.3668C33.4854 71.3668 33.4244 71.3668 33.3634 71.361C33.0045 71.3388 32.6535 71.2457 32.3308 71.087C32.0081 70.9283 31.72 70.7072 31.4834 70.4364L31.3585 70.2942C30.8815 69.7483 30.64 69.0359 30.6866 68.3125C30.7332 67.5891 31.0642 66.9136 31.6073 66.4335L37.2686 61.4624C37.8146 60.9832 38.5281 60.7396 39.2531 60.7847C39.6121 60.8069 39.963 60.9 40.2857 61.0587C40.6084 61.2174 40.8965 61.4385 41.1331 61.7093L41.3064 61.9116C41.7615 62.4595 41.985 63.1633 41.9293 63.8734C41.8736 64.5835 41.5432 65.2439 41.0082 65.7142L35.3499 70.6852C34.8522 71.1241 34.2108 71.3652 33.5473 71.3629L33.5463 71.3668ZM39.0721 61.8477C38.6641 61.8497 38.2709 62.0001 37.9656 62.2707L32.3072 67.2418C31.9736 67.5369 31.7704 67.9521 31.7421 68.3965C31.7138 68.841 31.8627 69.2786 32.1562 69.6136L32.2811 69.7559C32.5759 70.0899 32.9911 70.2935 33.4357 70.3218C33.8804 70.3501 34.3181 70.2009 34.6529 69.9069L40.3103 64.9359C40.6444 64.6416 40.848 64.2267 40.8765 63.7824C40.905 63.3381 40.756 62.9006 40.4623 62.566L40.3383 62.4237C40.1933 62.258 40.0167 62.1226 39.819 62.0256C39.6212 61.9285 39.4062 61.8717 39.1863 61.8583L39.0721 61.8477Z" fill="white"/>
<path d="M48.5998 70.8489C48.0653 70.8492 47.5492 71.0439 47.1477 71.3968L44.2271 73.9603C44.0019 74.1497 43.8168 74.3821 43.6827 74.644C43.5485 74.9058 43.4679 75.1918 43.4457 75.4852C43.4235 75.7786 43.46 76.0735 43.5532 76.3525C43.6464 76.6316 43.7944 76.8893 43.9884 77.1104C44.1825 77.3316 44.4187 77.5118 44.6833 77.6405C44.9479 77.7692 45.2355 77.8439 45.5293 77.86C45.823 77.8761 46.1171 77.8335 46.3942 77.7345C46.6713 77.6355 46.9258 77.4823 47.1429 77.2837L50.0636 74.7202C50.4019 74.4238 50.6416 74.0312 50.7509 73.5948C50.8601 73.1585 50.8337 72.6992 50.675 72.2784C50.5163 71.8575 50.233 71.495 49.8629 71.2394C49.4928 70.9838 49.0535 70.8472 48.6037 70.8479L48.5998 70.8489Z" fill="white"/>
<path d="M45.684 78.3602C45.1268 78.3609 44.5826 78.1916 44.124 77.875C43.6655 77.5583 43.3145 77.1093 43.1179 76.5879C42.9212 76.0665 42.8883 75.4975 43.0236 74.9569C43.1588 74.4163 43.4557 73.9298 43.8747 73.5624L46.7964 70.999C47.3511 70.5397 48.0605 70.31 48.7791 70.3568C49.4978 70.4036 50.1713 70.7234 50.6619 71.2507C51.1413 71.7969 51.3841 72.5112 51.3369 73.2365C51.2897 73.9618 50.9564 74.6386 50.4102 75.1181L47.4895 77.6815C46.9905 78.1203 46.3485 78.3616 45.684 78.3602ZM48.6008 71.3794C48.1928 71.3763 47.7976 71.5223 47.4895 71.7899L44.5717 74.3553C44.4057 74.5011 44.27 74.6782 44.1724 74.8764C44.0748 75.0747 44.0172 75.2902 44.0029 75.5107C43.9887 75.7312 44.0179 75.9524 44.0891 76.1616C44.1603 76.3708 44.272 76.5639 44.4178 76.73C44.5636 76.896 44.7407 77.0316 44.939 77.1292C45.1372 77.2268 45.3528 77.2844 45.5733 77.2987C45.7938 77.313 46.0149 77.2837 46.2241 77.2125C46.4333 77.1414 46.6265 77.0297 46.7925 76.8839L49.7141 74.3233C49.9715 74.0979 50.154 73.7993 50.2371 73.4674C50.3203 73.1356 50.3002 72.7862 50.1795 72.4661C50.0587 72.146 49.8432 71.8703 49.5616 71.6759C49.2801 71.4816 48.9459 71.3778 48.6037 71.3784L48.6008 71.3794Z" fill="white"/>
<path d="M22.5461 30.3185L16.608 56.2241L21.3515 58.8921L33.6354 38.9101L22.5461 30.3185Z" fill="white"/>
<path d="M21.5354 59.6028L16 56.4923L22.2102 29.394L34.3334 38.7843L21.5354 59.6028ZM17.2082 55.958L21.1676 58.1797L32.9413 39.0341L22.8733 31.245L17.2082 55.958Z" fill="white"/>
<path d="M33.7873 62.3152C34.2278 61.9282 34.4966 61.3823 34.5347 60.7972C34.5728 60.2122 34.3772 59.6359 33.9906 59.1951L33.9529 59.1515C33.762 58.933 33.5296 58.7545 33.2692 58.6263C33.0088 58.4982 32.7256 58.423 32.4359 58.4052H32.2888C31.754 58.4051 31.2377 58.6003 30.8367 58.9541L27.2896 62.0596C26.8654 62.4546 26.6108 62.9987 26.5794 63.5775C26.5479 64.1562 26.742 64.7247 27.1209 65.1633C27.4997 65.602 28.0339 65.8768 28.6111 65.9298C29.1883 65.9829 29.7636 65.8101 30.2161 65.4479L30.2452 65.4237L30.5143 65.1875L33.2133 62.8186L33.7873 62.3152Z" fill="white"/>
<path d="M28.8086 66.5022C28.7398 66.5033 28.6709 66.5007 28.6024 66.4945C27.8628 66.4368 27.1761 66.0887 26.6924 65.5264C26.2132 64.9805 25.9704 64.2666 26.0174 63.5417C26.0644 62.8168 26.3974 62.1403 26.9431 61.6609L30.4853 58.5524C31.0373 58.068 31.7591 57.8228 32.4919 57.8706C33.2248 57.9185 33.9086 58.2555 34.3929 58.8075C34.8773 59.3595 35.1225 60.0813 35.0747 60.8141C35.0268 61.5469 34.6898 62.2307 34.1378 62.7151L30.5966 65.8236C30.1038 66.2611 29.4676 66.5025 28.8086 66.5022ZM32.2936 58.9328C31.8856 58.9344 31.4922 59.0849 31.1871 59.3559L27.645 62.4644C27.4789 62.61 27.3431 62.787 27.2454 62.9851C27.1478 63.1833 27.0901 63.3987 27.0757 63.6191C27.0613 63.8396 27.0905 64.0607 27.1616 64.2698C27.2327 64.479 27.3443 64.6721 27.4901 64.8381C27.7921 65.1897 28.2207 65.4079 28.6827 65.4451C28.9028 65.4621 29.1239 65.4347 29.3332 65.3645C29.5424 65.2944 29.7353 65.1828 29.9006 65.0366L33.4418 61.9281C33.777 61.6338 33.9816 61.2184 34.0106 60.7733C34.0397 60.3281 33.8908 59.8897 33.5967 59.5543C33.4498 59.3769 33.2684 59.2312 33.0636 59.1259C32.8588 59.0205 32.6347 58.9578 32.405 58.9415L32.2936 58.9328Z" fill="white"/>
<path d="M46.1429 68.506C46.1626 68.2162 46.1246 67.9253 46.031 67.6503C45.9375 67.3753 45.7902 67.1215 45.5979 66.9038L45.5659 66.868C45.3749 66.6508 45.1427 66.4735 44.8829 66.3464C44.623 66.2193 44.3406 66.1449 44.0519 66.1274H43.9047C43.37 66.1273 42.8536 66.3225 42.4526 66.6763L42.106 66.9813L38.5241 70.1265L37.5725 70.9581C37.2461 71.2531 37.0136 71.6375 36.9039 72.0635C36.7942 72.4896 36.8122 72.9385 36.9556 73.3544C37.099 73.7703 37.3615 74.1349 37.7104 74.4028C38.0593 74.6708 38.4793 74.8302 38.9182 74.8614C39.208 74.8815 39.499 74.8436 39.7741 74.7501C40.0492 74.6565 40.3028 74.509 40.5203 74.3164L45.3994 70.0336C45.6186 69.8411 45.7972 69.6069 45.9248 69.3446C46.0525 69.0823 46.1266 68.7972 46.1429 68.506Z" fill="white"/>
<path d="M39.0605 75.3861C39.0004 75.3861 38.9414 75.3861 38.8804 75.3803C38.335 75.3465 37.8118 75.1518 37.377 74.8207C36.9422 74.4897 36.6153 74.0371 36.4376 73.5204C36.26 73.0036 36.2395 72.4457 36.3788 71.9173C36.518 71.3889 36.8108 70.9136 37.2202 70.5515L42.0954 66.2639C42.6422 65.7861 43.3551 65.5427 44.0799 65.5863C44.4383 65.6081 44.7888 65.7008 45.111 65.8592C45.4333 66.0176 45.7208 66.2384 45.957 66.5089C46.2025 66.7776 46.3919 67.0925 46.5143 67.4353C46.6366 67.7781 46.6895 68.1418 46.6696 68.5052C46.6498 68.8686 46.5577 69.2244 46.3988 69.5518C46.2399 69.8792 46.0173 70.1717 45.744 70.4121L40.865 74.6949C40.3683 75.1384 39.7263 75.3843 39.0605 75.3861ZM42.4487 67.3675L37.921 71.3424C37.5855 71.6365 37.3803 72.0517 37.3505 72.497C37.3207 72.9422 37.4688 73.381 37.7623 73.7171C37.9094 73.8921 38.0902 74.0358 38.2939 74.1396C38.4976 74.2434 38.7201 74.3051 38.9482 74.3212C39.1694 74.3369 39.3914 74.3082 39.6014 74.2369C39.8114 74.1656 40.005 74.0531 40.1708 73.9059L45.0499 69.6231C45.2159 69.4776 45.3516 69.3009 45.4493 69.103C45.5469 68.905 45.6047 68.6898 45.6191 68.4695C45.6336 68.2493 45.6045 68.0284 45.5336 67.8193C45.4627 67.6103 45.3513 67.4173 45.2058 67.2514C45.0591 67.0755 44.8784 66.9312 44.6744 66.8272C44.4704 66.7232 44.2474 66.6617 44.0189 66.6463H43.9066C43.4983 66.6462 43.1042 66.7968 42.8001 67.0694L42.4487 67.3675Z" fill="white"/>
<path d="M75.3768 61.4392L58.1635 47.4128C51.5719 50.9123 46.9038 49.1117 44.6724 47.6867C44.3051 47.4465 44.0071 47.1143 43.8078 46.7233C43.6085 46.3322 43.5149 45.8959 43.5364 45.4575C43.5578 45.0192 43.6935 44.594 43.9299 44.2243C44.1664 43.8545 44.4955 43.5531 44.8844 43.3497L50.6212 40.3023C50.4731 40.28 50.3308 40.2606 50.1982 40.248C45.0209 41.066 39.7921 41.5163 34.5512 41.5956L24.522 57.9076L26.7582 59.6114L29.3865 57.3036C29.8205 56.9226 30.3252 56.6308 30.8719 56.445C31.4186 56.2591 31.9966 56.1827 32.5728 56.2202C33.149 56.2577 33.7122 56.4083 34.2303 56.6634C34.7483 56.9186 35.211 57.2733 35.5919 57.7072L35.6296 57.7508C36.1562 58.3542 36.5062 59.0912 36.6413 59.8806C37.4384 59.3367 38.3949 59.0759 39.3577 59.14C39.9342 59.1759 40.4978 59.3258 41.0159 59.5811C41.534 59.8363 41.9963 60.1918 42.3761 60.6269L42.5001 60.7683C42.8819 61.2011 43.1742 61.7054 43.36 62.2519C43.5458 62.7984 43.6213 63.3764 43.5824 63.9523V63.9591C43.7837 63.9385 43.9861 63.9317 44.1884 63.9387C44.7648 63.9747 45.3284 64.1246 45.8465 64.3799C46.3646 64.6351 46.827 64.9906 47.2068 65.4257L46.4169 66.1827L47.2388 65.4615C47.6211 65.8945 47.9139 66.399 48.1 66.9459C48.2861 67.4928 48.3619 68.0711 48.323 68.6474C48.323 68.662 48.3162 68.6755 48.3153 68.691C49.1301 68.63 49.9456 68.7993 50.6687 69.1797C51.3919 69.5601 51.9934 70.1362 52.4047 70.8422C52.816 71.5483 53.0205 72.3557 52.9948 73.1724C52.969 73.9891 52.7141 74.782 52.2592 75.4607L56.9757 78.182C57.4728 78.464 58.0607 78.5399 58.6132 78.3935C59.1657 78.2471 59.6389 77.89 59.9312 77.3988C60.209 76.9292 60.2973 76.3713 60.1781 75.8389C60.0588 75.3064 59.741 74.8395 59.2893 74.5333L51.78 69.329C51.7732 69.329 51.7703 69.3173 51.7655 69.3135L51.2601 68.963C51.032 68.7939 50.8786 68.5426 50.8324 68.2624C50.7862 67.9822 50.8507 67.695 51.0124 67.4615C51.1741 67.2281 51.4202 67.0666 51.6988 67.0113C51.9774 66.9561 52.2665 67.0113 52.5051 67.1653L63.0968 74.5023C63.3291 74.6634 63.5909 74.7771 63.8671 74.837C64.1434 74.8969 64.4287 74.9017 64.7069 74.8513C64.985 74.8009 65.2505 74.6961 65.4882 74.5431C65.7258 74.39 65.931 74.1916 66.092 73.9592C66.4116 73.4923 66.5353 72.9186 66.4365 72.3614C66.3376 71.8042 66.0242 71.3081 65.5634 70.9795L55.023 63.5031C55.0163 63.5031 55.0143 63.4915 55.0085 63.4876C54.8865 63.4063 54.782 63.3014 54.7012 63.1789C54.6205 63.0565 54.5652 62.9191 54.5386 62.7749C54.512 62.6306 54.5146 62.4826 54.5464 62.3394C54.5781 62.1962 54.6383 62.0608 54.7233 61.9414C54.8083 61.8219 54.9165 61.7207 55.0414 61.6438C55.1663 61.567 55.3053 61.516 55.4503 61.4939C55.5953 61.4718 55.7432 61.479 55.8854 61.5152C56.0275 61.5513 56.1609 61.6157 56.2777 61.7044L68.0949 70.0879C68.5841 70.4213 69.1833 70.5525 69.7671 70.4539C70.3508 70.3553 70.8737 70.0346 71.2262 69.5591C71.5788 69.0835 71.7336 68.49 71.6582 67.9028C71.5829 67.3156 71.2832 66.7804 70.822 66.4093L58.1073 57.2474C57.986 57.1685 57.8816 57.0663 57.8 56.9467C57.7185 56.8272 57.6615 56.6926 57.6323 56.5509C57.6031 56.4091 57.6024 56.263 57.6301 56.121C57.6578 55.9789 57.7134 55.8438 57.7937 55.7234C57.874 55.603 57.9774 55.4997 58.0979 55.4196C58.2184 55.3394 58.3536 55.284 58.4957 55.2564C58.6378 55.2289 58.7839 55.2299 58.9256 55.2592C59.0674 55.2886 59.2018 55.3457 59.3213 55.4274L59.3765 55.4671L60.2477 56.0867H60.2594L72.0437 64.5767C72.066 64.5922 72.0815 64.6125 72.1028 64.629L72.2964 64.7684C72.3333 64.7938 72.3686 64.8216 72.4019 64.8516L72.6139 64.9968C73.0882 65.3367 73.6749 65.4816 74.2529 65.4017C74.8309 65.3217 75.3562 65.0229 75.7204 64.567C75.9432 64.2853 76.0951 63.9543 76.1634 63.6017C76.2316 63.2491 76.2141 62.8853 76.1125 62.5408C75.9868 62.1078 75.7306 61.7241 75.3787 61.4421L75.3768 61.4392Z" fill="white"/>
<path d="M58.0473 79C57.5797 79.0003 57.1202 78.8774 56.7152 78.6437L51.508 75.6427L51.8255 75.177C52.199 74.6137 52.4177 73.962 52.4596 73.2874C52.5016 72.6128 52.3653 71.9391 52.0644 71.3338C51.7636 70.7286 51.3087 70.2132 50.7456 69.8393C50.1825 69.4655 49.531 69.2464 48.8564 69.204C48.7253 69.1977 48.5939 69.2013 48.4634 69.2147L47.7538 69.2592L47.7954 68.6571C47.8612 67.8034 47.6416 66.9521 47.171 66.2369L46.7741 66.5864L46.0587 65.8119L46.4604 65.4247C45.8209 64.8611 45.012 64.5263 44.1613 64.473C44.0072 64.4679 43.8529 64.4727 43.6995 64.4876L43.1312 64.5302L43.0606 63.9038V63.8816C43.116 62.8735 42.7744 61.8838 42.1089 61.1245L41.9841 60.9822C41.3688 60.276 40.5162 59.8197 39.5873 59.6997C38.6585 59.5796 37.7178 59.8041 36.9433 60.3307L36.2657 60.7837L36.1243 59.9841C36.009 59.3027 35.7139 58.6643 35.2695 58.135C34.8251 57.6058 34.2475 57.2047 33.5963 56.9732C32.9451 56.7417 32.2439 56.6882 31.5651 56.8183C30.8863 56.9483 30.2546 57.2572 29.735 57.713L26.7805 60.3065L23.8172 58.0402L34.2472 41.0747L34.5318 41.066C39.7444 40.9865 44.9449 40.5394 50.0946 39.7281L50.1681 39.7136L50.2437 39.7204C50.3831 39.733 50.5341 39.7543 50.6977 39.7775L52.2844 40.0157L45.1303 43.8153C44.8217 43.9749 44.5603 44.2126 44.3722 44.5048C44.1841 44.7969 44.076 45.1333 44.0586 45.4803C44.0411 45.8273 44.115 46.1728 44.2728 46.4823C44.4306 46.7918 44.6669 47.0546 44.958 47.2443C47.0577 48.5841 51.5409 50.3305 57.9137 46.9471L58.2235 46.7825L75.7059 61.0316C76.14 61.3841 76.455 61.8617 76.6082 62.3994C76.7338 62.8245 76.7555 63.2736 76.6712 63.7088C76.587 64.1439 76.3993 64.5525 76.1241 64.9C75.6742 65.4623 75.0257 65.8306 74.3123 65.9289C73.5988 66.0273 72.8749 65.8482 72.2896 65.4286L71.6962 64.9852L59.0628 55.8853C59.0028 55.8422 58.9349 55.8113 58.863 55.7944C58.791 55.7776 58.7165 55.7751 58.6436 55.787C58.5707 55.799 58.5008 55.8252 58.438 55.8641C58.3753 55.9031 58.3208 55.954 58.2777 56.014C58.2345 56.0742 58.2035 56.1423 58.1866 56.2144C58.1697 56.2866 58.1672 56.3614 58.1793 56.4345C58.1913 56.5076 58.2177 56.5776 58.2568 56.6405C58.296 56.7034 58.3472 56.758 58.4074 56.8011L71.124 65.9707C71.7096 66.42 72.0956 67.0811 72.1993 67.8119C72.3029 68.5428 72.1159 69.2851 71.6783 69.8795C71.2407 70.474 70.5875 70.8732 69.8589 70.9914C69.1303 71.1097 68.3844 70.9375 67.7813 70.5119L55.9611 62.1322C55.9006 62.0892 55.8322 62.0585 55.7598 62.0419C55.6874 62.0253 55.6125 62.0231 55.5393 62.0355C55.4661 62.0479 55.396 62.0745 55.3331 62.114C55.2702 62.1534 55.2156 62.2049 55.1726 62.2654C55.0857 62.3876 55.0509 62.5393 55.0759 62.6872C55.1008 62.835 55.1835 62.967 55.3057 63.0539L65.8635 70.5477C66.4293 70.9621 66.8102 71.5817 66.9246 72.2736C67.039 72.9655 66.8778 73.6747 66.4756 74.2492C66.0733 74.8237 65.462 75.2177 64.7726 75.3468C64.0833 75.4759 63.3708 75.3298 62.7879 74.9399L52.1982 67.6009C52.0779 67.511 51.9269 67.4726 51.7783 67.4942C51.6297 67.5157 51.4957 67.5953 51.4058 67.7156C51.316 67.8359 51.2776 67.987 51.2991 68.1356C51.3206 68.2842 51.4003 68.4181 51.5205 68.508L51.5515 68.5293L59.5865 74.0996C60.0089 74.3889 60.3395 74.7932 60.5394 75.2645C60.7393 75.7359 60.8 76.2546 60.7143 76.7593C60.6287 77.2641 60.4003 77.7338 60.0562 78.1128C59.712 78.4919 59.2665 78.7644 58.7724 78.8983C58.5363 78.9642 58.2924 78.9984 58.0473 79ZM52.9891 75.2709L57.2486 77.7269C57.6119 77.9183 58.0339 77.9658 58.4306 77.86C58.8273 77.7542 59.1696 77.5029 59.3893 77.1561C59.609 76.8092 59.6901 76.3924 59.6163 75.9885C59.5425 75.5846 59.3193 75.2234 58.9912 74.9766L52.9891 70.8139C53.3955 71.6057 53.5783 72.4933 53.5177 73.3813C53.4745 74.041 53.2945 74.6845 52.9891 75.2709ZM51.8913 66.4469C52.2207 66.4474 52.542 66.5487 52.812 66.7374L63.4017 74.0744C63.7546 74.3101 64.1858 74.3983 64.603 74.32C65.0201 74.2417 65.39 74.0031 65.6334 73.6554C65.8768 73.3077 65.9743 72.8785 65.9052 72.4598C65.836 72.0411 65.6056 71.666 65.2633 71.4151L54.6474 63.8777C54.317 63.6157 54.1015 63.2354 54.0467 62.8172C53.9919 62.3991 54.102 61.9761 54.3537 61.6378C54.6054 61.2994 54.979 61.0724 55.3952 61.0048C55.8115 60.9372 56.2377 61.0343 56.5836 61.2755L68.4037 69.659C68.7796 69.9277 69.246 70.0379 69.7024 69.9661C70.1588 69.8942 70.5687 69.6459 70.8438 69.2747C71.1189 68.9035 71.2372 68.4391 71.1731 67.9815C71.1091 67.5239 70.868 67.1098 70.5015 66.8284L57.7966 57.6733C57.4578 57.4188 57.232 57.042 57.1675 56.6232C57.1029 56.2044 57.2047 55.7771 57.4512 55.4324C57.6976 55.0877 58.0691 54.8531 58.4862 54.7787C58.9033 54.7044 59.333 54.7961 59.6833 55.0343L60.5652 55.6597L72.6023 64.3424C72.6566 64.3813 72.7083 64.4236 72.7572 64.4692L72.9062 64.566C73.2691 64.8289 73.719 64.9425 74.1632 64.8834C74.6074 64.8244 75.012 64.5971 75.2935 64.2485C75.4641 64.0333 75.5806 63.7803 75.6334 63.5109C75.6861 63.2414 75.6735 62.9632 75.5965 62.6996C75.5046 62.3674 75.3122 62.0719 75.0457 61.8534L58.1044 48.0458C51.4247 51.4622 46.656 49.5822 44.3936 48.1359C43.9471 47.846 43.5844 47.4442 43.3417 46.9704C43.099 46.4967 42.9847 45.9676 43.0102 45.4359C43.0358 44.9042 43.2003 44.3885 43.4874 43.9403C43.7745 43.492 44.174 43.1268 44.6463 42.8812L47.8893 41.159C44.5911 41.6062 40.0886 41.9392 34.86 42.1106L25.2345 57.775L26.7476 58.927L29.0448 56.9017C29.5307 56.475 30.096 56.1482 30.7082 55.94C31.3205 55.7317 31.9678 55.6461 32.6131 55.688C33.2585 55.7299 33.8893 55.8984 34.4694 56.1841C35.0496 56.4698 35.5679 56.8669 35.9946 57.3529C36.4368 57.8529 36.7742 58.4366 36.9869 59.0693C37.7357 58.7053 38.5667 58.5438 39.3974 58.6007C40.0444 58.6404 40.6771 58.8082 41.2587 59.0943C41.8404 59.3805 42.3594 59.7794 42.7856 60.2677L42.9105 60.4101C43.6417 61.239 44.0701 62.2916 44.1254 63.3956H44.231C45.3701 63.4699 46.4474 63.94 47.2765 64.7248L47.2939 64.7102L47.5844 65.0384L47.6153 65.0723L47.9484 65.4518L47.9338 65.4663C48.5016 66.245 48.826 67.1744 48.8661 68.1372H48.931C49.4007 68.1681 49.8635 68.2659 50.3056 68.4276C50.25 68.1893 50.2492 67.9414 50.3031 67.7027C50.3571 67.464 50.4644 67.2405 50.6172 67.0493C50.7699 66.858 50.9639 66.7038 51.1848 66.5983C51.4056 66.4928 51.6475 66.4388 51.8923 66.4402L51.8913 66.4469Z" fill="white"/>
<path d="M84.7051 29.9255L73.6139 38.5162L83.8755 55.2039C83.9445 55.2385 84.0094 55.2807 84.0691 55.3297C84.2448 55.5111 84.3511 55.7486 84.3692 56.0006L85.9065 58.5001L90.65 55.8312L84.7051 29.9255Z" fill="white"/>
<path d="M85.7138 59.2097L83.8474 56.1719L83.8358 56.0489C83.8289 55.9195 83.7764 55.7968 83.6877 55.7023L83.4844 55.5813L83.4224 55.4758L72.913 38.3884L85.0391 28.998L91.2502 56.0964L85.7138 59.2097ZM84.8678 55.8214L86.0798 57.7924L90.0392 55.5707L84.3769 30.8529L74.309 38.6459L84.2511 54.8127C84.3167 54.8518 84.3775 54.8986 84.4321 54.9521C84.6641 55.1875 84.8162 55.4899 84.8668 55.8166L84.8678 55.8214Z" fill="white"/>
<path d="M70.7668 41.4784C68.6153 42.3644 66.2179 42.4516 64.0077 41.7243L58.1848 39.8346C57.7863 39.7084 57.3669 39.6622 56.9506 39.6986C56.5343 39.735 56.1292 39.8532 55.7588 40.0466L53.7849 41.0951C53.7636 41.1057 53.7461 41.1183 53.7239 41.128L45.9028 45.2829C45.8479 45.3094 45.8012 45.3505 45.7681 45.4018C45.735 45.453 45.7166 45.5124 45.715 45.5734C45.7108 45.6281 45.7216 45.6829 45.7464 45.7319C45.7711 45.7809 45.8088 45.8222 45.8554 45.8512C48.1555 47.3188 52.0956 48.3895 57.7365 45.1532C57.9282 45.0428 58.1487 44.993 58.3692 45.0103C58.5896 45.0276 58.7997 45.1111 58.9718 45.25L76.7505 59.7411C76.9979 59.9445 77.2213 60.1754 77.4165 60.4294L81.8125 56.0305L72.4445 40.793L70.7668 41.4784Z" fill="white"/>
<path d="M77.371 61.2203L77.0031 60.7537C76.8334 60.531 76.6385 60.3286 76.4223 60.1506L58.6397 45.6644C58.5511 45.5934 58.4433 45.5506 58.3302 45.5412C58.2171 45.5319 58.1037 45.5566 58.0047 45.6121C52.1333 48.9839 48.0055 47.8464 45.5756 46.2975C45.4494 46.2188 45.3468 46.1074 45.2786 45.9752C45.2104 45.8429 45.1793 45.6948 45.1884 45.5463C45.1946 45.3937 45.2416 45.2456 45.3243 45.1173C45.407 44.9889 45.5225 44.8851 45.6589 44.8163L55.5119 39.5839C55.9448 39.3571 56.4183 39.2183 56.9052 39.1754C57.392 39.1325 57.8825 39.1865 58.3484 39.3341L64.1694 41.2209C66.2584 41.9086 68.5246 41.8269 70.5587 40.9905L72.6565 40.1318L82.4785 56.105L77.371 61.2203ZM58.2777 44.4785C58.6515 44.4778 59.0141 44.6056 59.3048 44.8405L77.0844 59.3316C77.2096 59.4325 77.3285 59.5408 77.4407 59.6559L81.1426 55.954L72.2296 41.4513L70.9711 41.9673C68.7027 42.9012 66.1751 42.9928 63.8451 42.2258L58.0279 40.3371C57.6962 40.2329 57.3471 40.1952 57.0008 40.2261C56.6544 40.257 56.3176 40.3559 56.0095 40.5171L46.4556 45.5947C48.6696 46.8812 52.3114 47.6644 57.48 44.6953C57.7227 44.5553 57.9975 44.4806 58.2777 44.4785Z" fill="white"/>
</g>
<defs>
<clipPath id="clip0">
<rect width="75.2493" height="50" fill="white" transform="translate(16 29)"/>
</clipPath>
</defs>
</svg>
