<svg width="108" height="108" viewBox="0 0 108 108" fill="none" xmlns="http://www.w3.org/2000/svg">
<circle cx="54" cy="54" r="54" fill="#E82127"/>
<g clip-path="url(#clip0)">
<path d="M53.9996 43.6583C51.9543 43.6583 49.9549 44.2648 48.2543 45.4011C46.5537 46.5375 45.2282 48.1525 44.4455 50.0422C43.6628 51.9318 43.458 54.0111 43.857 56.0171C44.256 58.0231 45.2409 59.8657 46.6872 61.312C48.1334 62.7582 49.9761 63.7432 51.9821 64.1422C53.9881 64.5412 56.0674 64.3364 57.957 63.5537C59.8466 62.771 61.4617 61.4455 62.598 59.7449C63.7343 58.0443 64.3409 56.0449 64.3409 53.9996C64.3409 51.2569 63.2513 48.6266 61.312 46.6872C59.3726 44.7478 56.7423 43.6583 53.9996 43.6583V43.6583Z" fill="white"/>
<path d="M52.977 32.1445C52.9515 32.2483 52.9655 32.1775 52.9655 41.6313C53.6538 41.576 54.3454 41.576 55.0337 41.6313C55.0337 32.4387 55.0494 32.2516 55.0222 32.1445C55.9987 31.8954 56.8507 31.2983 57.4182 30.4654C57.9856 29.6325 58.2294 28.6211 58.1039 27.6211C57.9783 26.6211 57.492 25.7014 56.7363 25.0346C55.9806 24.3678 55.0074 23.9999 53.9996 23.9999C52.9918 23.9999 52.0186 24.3678 51.2629 25.0346C50.5072 25.7014 50.0209 26.6211 49.8953 27.6211C49.7698 28.6211 50.0136 29.6325 50.581 30.4654C51.1485 31.2983 52.0005 31.8954 52.977 32.1445V32.1445Z" fill="white"/>
<path d="M55.0222 75.8547C55.0477 75.7509 55.0337 75.8217 55.0337 66.3679C54.3454 66.4238 53.6537 66.4238 52.9655 66.3679C52.9655 75.5605 52.9498 75.7476 52.977 75.8547C52.0005 76.1039 51.1485 76.7009 50.581 77.5338C50.0136 78.3668 49.7698 79.3782 49.8953 80.3781C50.0209 81.3781 50.5072 82.2979 51.2629 82.9646C52.0186 83.6314 52.9918 83.9993 53.9996 83.9993C55.0074 83.9993 55.9806 83.6314 56.7363 82.9646C57.492 82.2979 57.9783 81.3781 58.1039 80.3781C58.2294 79.3782 57.9856 78.3668 57.4182 77.5338C56.8507 76.7009 55.9987 76.1039 55.0222 75.8547V75.8547Z" fill="white"/>
<path d="M79.8528 49.863C78.9354 49.8653 78.0448 50.1724 77.3211 50.7361C76.5973 51.2998 76.0815 52.0881 75.8547 52.977C75.7509 52.9514 75.8217 52.9654 66.3679 52.9654C66.4232 53.6537 66.4232 54.3454 66.3679 55.0337C75.5605 55.0337 75.7476 55.0493 75.8547 55.0222C76.0462 55.7727 76.4446 56.4544 77.0045 56.9897C77.5644 57.5249 78.2634 57.8922 79.0218 58.0497C79.7802 58.2072 80.5676 58.1485 81.2944 57.8804C82.0211 57.6124 82.658 57.1456 83.1325 56.5334C83.6069 55.9211 83.9 55.1879 83.9782 54.4173C84.0564 53.6466 83.9167 52.8695 83.5749 52.1744C83.2331 51.4793 82.703 50.8941 82.045 50.4855C81.3869 50.0768 80.6274 49.8612 79.8528 49.863V49.863Z" fill="white"/>
<path d="M32.1445 55.0222C32.2483 55.0477 32.1774 55.0337 41.6313 55.0337C41.5759 54.3454 41.5759 53.6537 41.6313 52.9654C32.4386 52.9654 32.2516 52.9498 32.1445 52.977C31.8953 52.0004 31.2982 51.1484 30.4653 50.581C29.6324 50.0136 28.621 49.7697 27.621 49.8953C26.6211 50.0208 25.7013 50.5071 25.0346 51.2629C24.3678 52.0186 23.9998 52.9917 23.9998 53.9996C23.9998 55.0074 24.3678 55.9805 25.0346 56.7363C25.7013 57.492 26.6211 57.9783 27.621 58.1038C28.621 58.2294 29.6324 57.9856 30.4653 57.4181C31.2982 56.8507 31.8953 55.9987 32.1445 55.0222V55.0222Z" fill="white"/>
<path d="M63.4723 45.9828C69.8708 39.5951 70.1237 39.3702 70.1756 39.2672C71.043 39.7807 72.068 39.9598 73.0581 39.7709C74.0482 39.582 74.9353 39.0382 75.5527 38.2414C76.1701 37.4447 76.4753 36.4499 76.4111 35.444C76.3468 34.4381 75.9175 33.4903 75.2037 32.7786C74.49 32.0668 73.5409 31.6402 72.5348 31.5788C71.5288 31.5175 70.5349 31.8256 69.7399 32.4452C68.9449 33.0649 68.4036 33.9535 68.2175 34.9442C68.0315 35.9348 68.2135 36.9593 68.7295 37.8252C68.6578 37.8606 62.0699 44.4724 62.0139 44.5284C62.5404 44.971 63.0283 45.4576 63.4723 45.9828V45.9828Z" fill="white"/>
<path d="M44.5268 62.0146C44.4708 62.0707 37.859 68.6586 37.8235 68.7303C36.9568 68.2163 35.9322 68.0363 34.9421 68.2242C33.9521 68.4121 33.0647 68.955 32.4465 69.7508C31.8284 70.5467 31.5221 71.5409 31.585 72.5466C31.648 73.5524 32.0759 74.5005 32.7885 75.2131C33.5011 75.9257 34.4492 76.3536 35.455 76.4166C36.4608 76.4795 37.4549 76.1732 38.2508 75.5551C39.0466 74.9369 39.5895 74.0495 39.7774 73.0595C39.9653 72.0694 39.7854 71.0448 39.2713 70.1781C39.3743 70.1262 39.2927 70.1781 45.987 63.4748C45.4596 63.0304 44.9712 62.542 44.5268 62.0146Z" fill="white"/>
<path d="M70.1765 68.7303C70.141 68.6586 63.5292 62.0707 63.4732 62.0146C63.0293 62.5413 62.5414 63.0292 62.0147 63.4731C68.4024 69.8715 68.6273 70.1245 68.7303 70.1764C68.2156 71.0429 68.0349 72.0674 68.2222 73.0576C68.4094 74.0478 68.9517 74.9356 69.7472 75.5543C70.5428 76.173 71.5368 76.48 72.5426 76.4176C73.5485 76.3553 74.497 75.9279 75.21 75.2157C75.923 74.5035 76.3515 73.5555 76.415 72.5497C76.4785 71.5439 76.1726 70.5496 75.5548 69.7533C74.9371 68.9571 74.0499 68.4138 73.0599 68.2254C72.0699 68.0371 71.0451 68.2166 70.1781 68.7303H70.1765Z" fill="white"/>
<path d="M37.8252 39.2697C37.8771 39.3735 37.8252 39.2911 44.5285 45.9854C44.9724 45.4587 45.4603 44.9708 45.987 44.5269C45.9309 44.4708 39.343 37.859 39.2713 37.8236C39.785 36.9566 39.9645 35.9318 39.7762 34.9418C39.5878 33.9518 39.0445 33.0646 38.2483 32.4468C37.452 31.8291 36.4577 31.5232 35.4519 31.5867C34.4461 31.6502 33.4981 32.0787 32.7859 32.7917C32.0737 33.5047 31.6463 34.4532 31.584 35.4591C31.5216 36.4649 31.8286 37.4589 32.4473 38.2544C33.066 39.0499 33.9538 39.5922 34.944 39.7795C35.9342 39.9667 36.9588 39.786 37.8252 39.2714V39.2697Z" fill="white"/>
</g>
<defs>
<clipPath id="clip0">
<rect width="60" height="60" fill="white" transform="translate(24 24)"/>
</clipPath>
</defs>
</svg>
