<svg width="108" height="108" viewBox="0 0 108 108" fill="none" xmlns="http://www.w3.org/2000/svg">
<circle cx="54" cy="54" r="54" fill="#E82127"/>
<g clip-path="url(#clip0)">
<path d="M44.5241 36.3811C44.5241 36.8021 44.6914 37.2059 44.9891 37.5036C45.2868 37.8013 45.6906 37.9686 46.1116 37.9686H61.984C62.4051 37.9686 62.8088 37.8013 63.1066 37.5036C63.4043 37.2059 63.5715 36.8021 63.5715 36.3811C63.5715 35.96 63.4043 35.5563 63.1066 35.2585C62.8088 34.9608 62.4051 34.7936 61.984 34.7936H46.1116C45.6906 34.7936 45.2868 34.9608 44.9891 35.2585C44.6914 35.5563 44.5241 35.96 44.5241 36.3811Z" fill="white"/>
<path d="M60.953 31.6186L63.001 24L54.271 25.2537C54.1232 25.2696 53.9741 25.2696 53.8263 25.2537L45.0955 24L47.14 31.6186H60.953Z" fill="white"/>
<path d="M61.4126 41.1427H46.6821C40.3173 46.2695 35 57.016 35 64.9526V71.3017C35 78.0632 40.1906 84 46.1108 84H61.984C67.905 84 73.0948 78.0632 73.0948 71.3017V64.9526C73.093 57.016 67.7775 46.2695 61.4126 41.1427ZM55.6349 76.0633V79.2357H52.4599V76.0633H46.1108V72.8883H55.634C56.8969 72.8883 58.108 72.3867 59.001 71.4937C59.894 70.6007 60.3956 69.3896 60.3956 68.1267C60.3956 66.8638 59.894 65.6527 59.001 64.7597C58.108 63.8668 56.8969 63.3651 55.634 63.3651H52.4599C51.4176 63.3651 50.3856 63.1598 49.4227 62.7609C48.4597 62.3621 47.5848 61.7775 46.8478 61.0405C46.1109 60.3035 45.5262 59.4286 45.1274 58.4657C44.7285 57.5028 44.5233 56.4707 44.5233 55.4285C44.5233 54.3862 44.7285 53.3542 45.1274 52.3912C45.5262 51.4283 46.1109 50.5534 46.8478 49.8164C47.5848 49.0794 48.4597 48.4948 49.4227 48.096C50.3856 47.6971 51.4176 47.4918 52.4599 47.4918V44.3177H55.6349V47.4927H61.984V50.666H52.4608C51.1979 50.666 49.9868 51.1676 49.0938 52.0606C48.2008 52.9536 47.6991 54.1647 47.6991 55.4276C47.6991 56.6904 48.2008 57.9016 49.0938 58.7946C49.9868 59.6875 51.1979 60.1892 52.4608 60.1892H55.6358C57.7407 60.1892 59.7594 61.0254 61.2478 62.5138C62.7362 64.0022 63.5724 66.0209 63.5724 68.1258C63.5724 70.2308 62.7362 72.2495 61.2478 73.7379C59.7594 75.2263 57.7407 76.0625 55.6358 76.0625L55.6349 76.0633Z" fill="white"/>
</g>
<defs>
<clipPath id="clip0">
<rect width="38.0948" height="60" fill="white" transform="translate(35 24)"/>
</clipPath>
</defs>
</svg>
