<svg width="599" height="72" viewBox="0 0 599 72" fill="none" xmlns="http://www.w3.org/2000/svg">
<path d="M2.56836 71C1.90169 71 1.30169 70.7667 0.76836 70.3C0.301693 69.7667 0.0683594 69.1667 0.0683594 68.5V3.5C0.0683594 2.76667 0.301693 2.16667 0.76836 1.7C1.30169 1.23333 1.90169 0.999999 2.56836 0.999999H15.1684C15.9017 0.999999 16.5017 1.23333 16.9684 1.7C17.435 2.16667 17.6684 2.76667 17.6684 3.5V25.7L36.1684 2.9C36.9684 1.63333 38.2684 0.999999 40.0684 0.999999H54.4684C55.0684 0.999999 55.5684 1.23333 55.9684 1.7C56.3684 2.1 56.5684 2.56667 56.5684 3.1C56.5684 3.56667 56.4684 3.96667 56.2684 4.3L32.2684 34.5L58.0684 67.7C58.335 67.9667 58.4684 68.3667 58.4684 68.9C58.4684 69.4333 58.2684 69.9333 57.8684 70.4C57.4684 70.8 56.9684 71 56.3684 71H41.4684C39.8684 71 38.535 70.3333 37.4684 69L17.6684 44.3V68.5C17.6684 69.2333 17.435 69.8333 16.9684 70.3C16.5017 70.7667 15.9017 71 15.1684 71H2.56836Z" fill="url(#paint0_linear)" fill-opacity="0.15"/>
<path d="M68.877 71C68.2103 71 67.6103 70.7667 67.077 70.3C66.6103 69.7667 66.377 69.1667 66.377 68.5V3.5C66.377 2.76667 66.6103 2.16667 67.077 1.7C67.6103 1.23333 68.2103 0.999999 68.877 0.999999H115.577C116.31 0.999999 116.91 1.23333 117.377 1.7C117.844 2.16667 118.077 2.76667 118.077 3.5V12.9C118.077 13.5667 117.844 14.1667 117.377 14.7C116.91 15.1667 116.31 15.4 115.577 15.4H83.677V28.9H113.377C114.11 28.9 114.71 29.1667 115.177 29.7C115.644 30.1667 115.877 30.7667 115.877 31.5V40.2C115.877 40.8667 115.644 41.4667 115.177 42C114.71 42.4667 114.11 42.7 113.377 42.7H83.677V56.6H116.377C117.11 56.6 117.71 56.8333 118.177 57.3C118.644 57.7667 118.877 58.3667 118.877 59.1V68.5C118.877 69.1667 118.644 69.7667 118.177 70.3C117.71 70.7667 117.11 71 116.377 71H68.877Z" fill="url(#paint1_linear)" fill-opacity="0.15"/>
<path d="M150.744 71C150.077 71 149.477 70.7667 148.944 70.3C148.477 69.7667 148.244 69.1667 148.244 68.5V47L125.044 4.2C124.844 3.6 124.744 3.23333 124.744 3.1C124.744 2.56667 124.944 2.1 125.344 1.7C125.811 1.23333 126.344 0.999999 126.944 0.999999H139.444C140.777 0.999999 141.944 1.7 142.944 3.1L157.244 28.9L171.644 3.1C172.444 1.7 173.611 0.999999 175.144 0.999999H187.644C188.244 0.999999 188.744 1.23333 189.144 1.7C189.544 2.1 189.744 2.56667 189.744 3.1C189.744 3.43333 189.677 3.8 189.544 4.2L166.344 47V68.5C166.344 69.2333 166.077 69.8333 165.544 70.3C165.077 70.7667 164.477 71 163.744 71H150.744Z" fill="url(#paint2_linear)" fill-opacity="0.15"/>
<path d="M219.268 71C218.601 71 218.001 70.7667 217.468 70.3C217.001 69.7667 216.768 69.1667 216.768 68.5V3.5C216.768 2.76667 217.001 2.16667 217.468 1.7C218.001 1.23333 218.601 0.999999 219.268 0.999999H247.268C255.801 0.999999 262.501 2.96667 267.368 6.9C272.301 10.8333 274.768 16.5667 274.768 24.1C274.768 31.5667 272.334 37.2 267.468 41C262.601 44.7333 255.868 46.6 247.268 46.6H235.368V68.5C235.368 69.2333 235.101 69.8333 234.568 70.3C234.101 70.7667 233.501 71 232.768 71H219.268ZM246.768 32.8C249.701 32.8 252.001 32.0667 253.668 30.6C255.334 29.0667 256.168 26.8333 256.168 23.9C256.168 21.1667 255.368 19 253.768 17.4C252.234 15.7333 249.901 14.9 246.768 14.9H235.068V32.8H246.768Z" fill="url(#paint3_linear)" fill-opacity="0.15"/>
<path d="M286.846 71C286.179 71 285.579 70.7667 285.046 70.3C284.579 69.7667 284.346 69.1667 284.346 68.5V3.5C284.346 2.76667 284.579 2.16667 285.046 1.7C285.579 1.23333 286.179 0.999999 286.846 0.999999H333.546C334.279 0.999999 334.879 1.23333 335.346 1.7C335.812 2.16667 336.046 2.76667 336.046 3.5V12.9C336.046 13.5667 335.812 14.1667 335.346 14.7C334.879 15.1667 334.279 15.4 333.546 15.4H301.646V28.9H331.346C332.079 28.9 332.679 29.1667 333.146 29.7C333.612 30.1667 333.846 30.7667 333.846 31.5V40.2C333.846 40.8667 333.612 41.4667 333.146 42C332.679 42.4667 332.079 42.7 331.346 42.7H301.646V56.6H334.346C335.079 56.6 335.679 56.8333 336.146 57.3C336.612 57.7667 336.846 58.3667 336.846 59.1V68.5C336.846 69.1667 336.612 69.7667 336.146 70.3C335.679 70.7667 335.079 71 334.346 71H286.846Z" fill="url(#paint4_linear)" fill-opacity="0.15"/>
<path d="M376.227 72C366.827 72 359.427 69.7 354.027 65.1C348.627 60.5 345.76 53.7333 345.427 44.8C345.36 42.8667 345.327 40 345.327 36.2C345.327 32.3333 345.36 29.4333 345.427 27.5C345.76 18.7 348.66 11.9333 354.127 7.2C359.66 2.4 367.027 0 376.227 0C385.427 0 392.794 2.4 398.327 7.2C403.86 11.9333 406.76 18.7 407.027 27.5C407.16 31.3667 407.227 34.2667 407.227 36.2C407.227 38.0667 407.16 40.9333 407.027 44.8C406.694 53.7333 403.827 60.5 398.427 65.1C393.027 69.7 385.627 72 376.227 72ZM376.227 57.6C379.894 57.6 382.794 56.5 384.927 54.3C387.127 52.1 388.294 48.7333 388.427 44.2C388.56 40.3333 388.627 37.6 388.627 36C388.627 34.2667 388.56 31.5333 388.427 27.8C388.294 23.2667 387.127 19.9 384.927 17.7C382.727 15.5 379.827 14.4 376.227 14.4C372.627 14.4 369.727 15.5 367.527 17.7C365.394 19.9 364.227 23.2667 364.027 27.8C363.96 29.6667 363.927 32.4 363.927 36C363.927 39.5333 363.96 42.2667 364.027 44.2C364.227 48.7333 365.394 52.1 367.527 54.3C369.66 56.5 372.56 57.6 376.227 57.6Z" fill="url(#paint5_linear)" fill-opacity="0.15"/>
<path d="M421.318 71C420.652 71 420.052 70.7667 419.518 70.3C419.052 69.7667 418.818 69.1667 418.818 68.5V3.5C418.818 2.76667 419.052 2.16667 419.518 1.7C420.052 1.23333 420.652 0.999999 421.318 0.999999H449.318C457.852 0.999999 464.552 2.96667 469.418 6.9C474.352 10.8333 476.818 16.5667 476.818 24.1C476.818 31.5667 474.385 37.2 469.518 41C464.652 44.7333 457.918 46.6 449.318 46.6H437.418V68.5C437.418 69.2333 437.152 69.8333 436.618 70.3C436.152 70.7667 435.552 71 434.818 71H421.318ZM448.818 32.8C451.752 32.8 454.052 32.0667 455.718 30.6C457.385 29.0667 458.218 26.8333 458.218 23.9C458.218 21.1667 457.418 19 455.818 17.4C454.285 15.7333 451.952 14.9 448.818 14.9H437.118V32.8H448.818Z" fill="url(#paint6_linear)" fill-opacity="0.15"/>
<path d="M488.896 71C488.23 71 487.63 70.7667 487.096 70.3C486.63 69.7667 486.396 69.1667 486.396 68.5V3.5C486.396 2.76667 486.63 2.16667 487.096 1.7C487.63 1.23333 488.23 0.999999 488.896 0.999999H502.096C502.83 0.999999 503.43 1.23333 503.896 1.7C504.363 2.16667 504.596 2.76667 504.596 3.5V55.9H534.896C535.63 55.9 536.23 56.1667 536.696 56.7C537.163 57.1667 537.396 57.7667 537.396 58.5V68.5C537.396 69.1667 537.163 69.7667 536.696 70.3C536.23 70.7667 535.63 71 534.896 71H488.896Z" fill="url(#paint7_linear)" fill-opacity="0.15"/>
<path d="M548.564 71C547.898 71 547.298 70.7667 546.764 70.3C546.298 69.7667 546.064 69.1667 546.064 68.5V3.5C546.064 2.76667 546.298 2.16667 546.764 1.7C547.298 1.23333 547.898 0.999999 548.564 0.999999H595.264C595.998 0.999999 596.598 1.23333 597.064 1.7C597.531 2.16667 597.764 2.76667 597.764 3.5V12.9C597.764 13.5667 597.531 14.1667 597.064 14.7C596.598 15.1667 595.998 15.4 595.264 15.4H563.364V28.9H593.064C593.798 28.9 594.398 29.1667 594.864 29.7C595.331 30.1667 595.564 30.7667 595.564 31.5V40.2C595.564 40.8667 595.331 41.4667 594.864 42C594.398 42.4667 593.798 42.7 593.064 42.7H563.364V56.6H596.064C596.798 56.6 597.398 56.8333 597.864 57.3C598.331 57.7667 598.564 58.3667 598.564 59.1V68.5C598.564 69.1667 598.331 69.7667 597.864 70.3C597.398 70.7667 596.798 71 596.064 71H548.564Z" fill="url(#paint8_linear)" fill-opacity="0.15"/>
<defs>
<linearGradient id="paint0_linear" x1="299.316" y1="0" x2="299.316" y2="72" gradientUnits="userSpaceOnUse">
<stop stop-color="#E82127"/>
<stop offset="1" stop-color="#E82127" stop-opacity="0"/>
</linearGradient>
<linearGradient id="paint1_linear" x1="299.316" y1="0" x2="299.316" y2="72" gradientUnits="userSpaceOnUse">
<stop stop-color="#E82127"/>
<stop offset="1" stop-color="#E82127" stop-opacity="0"/>
</linearGradient>
<linearGradient id="paint2_linear" x1="299.316" y1="0" x2="299.316" y2="72" gradientUnits="userSpaceOnUse">
<stop stop-color="#E82127"/>
<stop offset="1" stop-color="#E82127" stop-opacity="0"/>
</linearGradient>
<linearGradient id="paint3_linear" x1="299.316" y1="0" x2="299.316" y2="72" gradientUnits="userSpaceOnUse">
<stop stop-color="#E82127"/>
<stop offset="1" stop-color="#E82127" stop-opacity="0"/>
</linearGradient>
<linearGradient id="paint4_linear" x1="299.316" y1="0" x2="299.316" y2="72" gradientUnits="userSpaceOnUse">
<stop stop-color="#E82127"/>
<stop offset="1" stop-color="#E82127" stop-opacity="0"/>
</linearGradient>
<linearGradient id="paint5_linear" x1="299.316" y1="0" x2="299.316" y2="72" gradientUnits="userSpaceOnUse">
<stop stop-color="#E82127"/>
<stop offset="1" stop-color="#E82127" stop-opacity="0"/>
</linearGradient>
<linearGradient id="paint6_linear" x1="299.316" y1="0" x2="299.316" y2="72" gradientUnits="userSpaceOnUse">
<stop stop-color="#E82127"/>
<stop offset="1" stop-color="#E82127" stop-opacity="0"/>
</linearGradient>
<linearGradient id="paint7_linear" x1="299.316" y1="0" x2="299.316" y2="72" gradientUnits="userSpaceOnUse">
<stop stop-color="#E82127"/>
<stop offset="1" stop-color="#E82127" stop-opacity="0"/>
</linearGradient>
<linearGradient id="paint8_linear" x1="299.316" y1="0" x2="299.316" y2="72" gradientUnits="userSpaceOnUse">
<stop stop-color="#E82127"/>
<stop offset="1" stop-color="#E82127" stop-opacity="0"/>
</linearGradient>
</defs>
</svg>
