<svg width="91" height="91" viewBox="0 0 91 91" fill="none" xmlns="http://www.w3.org/2000/svg">
<path d="M45.6573 90.5387L58.3092 19.3841C70.3686 19.3841 74.1725 20.7065 74.7217 26.1041C74.7217 26.1041 82.8115 23.0877 86.8917 16.9615C70.9696 9.58354 54.9715 9.25081 54.9715 9.25081L45.6363 20.6209L45.6573 20.6195L36.3222 9.24902C36.3222 9.24902 20.3237 9.58212 4.40375 16.9601C8.48039 23.0863 16.5734 26.1027 16.5734 26.1027C17.1258 20.7047 20.925 19.3823 32.9035 19.3738L45.6573 90.5387Z" fill="white"/>
<path d="M45.6523 5.96613C58.5231 5.8677 73.2552 7.95719 88.3364 14.5303C90.3521 10.9022 90.8702 9.29884 90.8702 9.29884C74.3843 2.77642 58.9454 0.544272 45.6506 0.488281C32.3564 0.544272 16.9183 2.77678 0.434448 9.29884C0.434448 9.29884 1.16982 11.2739 2.96652 14.5303C18.0449 7.95719 32.7794 5.8677 45.6506 5.96613H45.6523" fill="white"/>
</svg>
