<svg width="76" height="75" viewBox="0 0 76 75" fill="none" xmlns="http://www.w3.org/2000/svg">
<path d="M37.6648 75L48.2022 15.7374C58.2462 15.7374 61.4143 16.8388 61.8717 21.3343C61.8717 21.3343 68.6094 18.822 72.0077 13.7197C58.7467 7.57478 45.4223 7.29766 45.4223 7.29766L37.6473 16.7675L37.6648 16.7663L29.8899 7.29617C29.8899 7.29617 16.5652 7.5736 3.30591 13.7185C6.70123 18.8208 13.4417 21.3331 13.4417 21.3331C13.9018 16.8373 17.066 15.7359 27.0426 15.7288L37.6648 75Z" fill="#E82127"/>
<path d="M37.6607 4.56234C48.3804 4.48036 60.6503 6.22064 73.211 11.6952C74.8898 8.67349 75.3214 7.33806 75.3214 7.33806C61.5907 1.90573 48.7321 0.0466333 37.6592 0C26.5869 0.0466333 13.7289 1.90602 0 7.33806C0 7.33806 0.61247 8.983 2.10889 11.6952C14.6672 6.22064 26.9392 4.48036 37.6592 4.56234H37.6607" fill="#E82127"/>
</svg>
