<svg width="267" height="60" viewBox="0 0 267 60" fill="none" xmlns="http://www.w3.org/2000/svg">
<path d="M79.6161 42.3601C79.3761 42.3601 79.1721 42.2761 79.0041 42.1081C78.8361 41.9401 78.7521 41.7361 78.7521 41.4961V21.5881H72.0921C71.8521 21.5881 71.6481 21.5041 71.4801 21.3361C71.3121 21.1681 71.2281 20.9641 71.2281 20.7241V18.0601C71.2281 17.7961 71.3001 17.5801 71.4441 17.4121C71.6121 17.244 71.8281 17.16 72.0921 17.16H90.4521C90.7161 17.16 90.9321 17.244 91.1001 17.4121C91.2681 17.5801 91.3521 17.7961 91.3521 18.0601V20.7241C91.3521 20.9641 91.2681 21.1681 91.1001 21.3361C90.9321 21.5041 90.7161 21.5881 90.4521 21.5881H83.8281V41.4961C83.8281 41.7361 83.7441 41.9401 83.5761 42.1081C83.4081 42.2761 83.1921 42.3601 82.9281 42.3601H79.6161Z" fill="#E82127"/>
<path d="M95.869 42.3601C95.629 42.3601 95.425 42.2761 95.257 42.1081C95.089 41.9401 95.005 41.7361 95.005 41.4961V18.0601C95.005 17.7961 95.077 17.5801 95.221 17.4121C95.389 17.244 95.605 17.16 95.869 17.16H111.709C111.973 17.16 112.189 17.244 112.357 17.4121C112.525 17.5801 112.609 17.7961 112.609 18.0601V20.4361C112.609 20.7001 112.525 20.9161 112.357 21.0841C112.189 21.2281 111.973 21.3001 111.709 21.3001H99.865V27.6721H110.917C111.181 27.6721 111.397 27.7561 111.565 27.9241C111.733 28.0681 111.817 28.2721 111.817 28.5361V30.7681C111.817 31.0321 111.733 31.2481 111.565 31.4161C111.397 31.5601 111.181 31.6321 110.917 31.6321H99.865V38.2201H111.997C112.261 38.2201 112.477 38.3041 112.645 38.4721C112.813 38.6401 112.897 38.8561 112.897 39.1201V41.4961C112.897 41.7601 112.813 41.9761 112.645 42.1441C112.477 42.2881 112.261 42.3601 111.997 42.3601H95.869Z" fill="#E82127"/>
<path d="M126.148 42.7201C124.012 42.7201 122.176 42.3961 120.64 41.7481C119.104 41.1001 117.94 40.2481 117.148 39.1921C116.356 38.1361 115.936 36.9961 115.888 35.7721C115.888 35.5561 115.96 35.3761 116.104 35.2321C116.248 35.0881 116.428 35.0161 116.644 35.0161H119.848C120.136 35.0161 120.352 35.0761 120.496 35.1961C120.664 35.2921 120.82 35.4601 120.964 35.7001C121.204 36.5161 121.756 37.2001 122.62 37.7521C123.484 38.3041 124.66 38.5801 126.148 38.5801C127.852 38.5801 129.136 38.3041 130 37.7521C130.864 37.1761 131.296 36.3841 131.296 35.3761C131.296 34.7041 131.068 34.1521 130.612 33.7201C130.18 33.2881 129.52 32.9161 128.632 32.6041C127.768 32.2921 126.472 31.9081 124.744 31.4521C121.912 30.7801 119.836 29.8921 118.516 28.7881C117.22 27.6601 116.572 26.0641 116.572 24.0001C116.572 22.6081 116.944 21.3721 117.688 20.2921C118.456 19.2121 119.548 18.3601 120.964 17.7361C122.404 17.112 124.072 16.8 125.968 16.8C127.936 16.8 129.64 17.148 131.08 17.8441C132.52 18.5401 133.612 19.4161 134.356 20.4721C135.124 21.5041 135.532 22.5361 135.58 23.5681C135.58 23.7841 135.508 23.9641 135.364 24.1081C135.22 24.2521 135.04 24.3241 134.824 24.3241H131.476C130.972 24.3241 130.624 24.0961 130.432 23.6401C130.288 22.8721 129.808 22.2361 128.992 21.7321C128.176 21.2041 127.168 20.9401 125.968 20.9401C124.624 20.9401 123.568 21.1921 122.8 21.6961C122.032 22.2001 121.648 22.9321 121.648 23.8921C121.648 24.5641 121.84 25.1161 122.224 25.5481C122.608 25.9801 123.208 26.3641 124.024 26.7001C124.864 27.0361 126.064 27.4081 127.624 27.8161C129.736 28.2961 131.416 28.8361 132.664 29.4361C133.936 30.0361 134.872 30.7921 135.472 31.7041C136.072 32.6161 136.372 33.7801 136.372 35.1961C136.372 36.7321 135.94 38.0761 135.076 39.2281C134.236 40.3561 133.036 41.2201 131.476 41.8201C129.94 42.4201 128.164 42.7201 126.148 42.7201Z" fill="#E82127"/>
<path d="M141.361 42.3601C141.121 42.3601 140.917 42.2761 140.749 42.1081C140.581 41.9401 140.497 41.7361 140.497 41.4961V18.0241C140.497 17.7601 140.581 17.5561 140.749 17.4121C140.917 17.244 141.121 17.16 141.361 17.16H144.709C144.973 17.16 145.177 17.244 145.321 17.4121C145.489 17.5561 145.573 17.7601 145.573 18.0241V38.0761H156.985C157.249 38.0761 157.465 38.1601 157.633 38.3281C157.801 38.4961 157.885 38.7121 157.885 38.9761V41.4961C157.885 41.7601 157.801 41.9761 157.633 42.1441C157.465 42.2881 157.249 42.3601 156.985 42.3601H141.361Z" fill="#E82127"/>
<path d="M159.832 42.3601C159.64 42.3601 159.46 42.2881 159.292 42.1441C159.148 42.0001 159.076 41.8201 159.076 41.6041L159.148 41.2801L167.824 18.0601C167.992 17.4601 168.412 17.16 169.084 17.16H173.008C173.632 17.16 174.052 17.4601 174.268 18.0601L182.944 41.2801C182.968 41.3521 182.98 41.4601 182.98 41.6041C182.98 41.8201 182.908 42.0001 182.764 42.1441C182.62 42.2881 182.452 42.3601 182.26 42.3601H179.128C178.816 42.3601 178.576 42.2881 178.408 42.1441C178.24 42.0001 178.132 41.8441 178.084 41.6761L176.392 37.2841H165.7L164.008 41.6761C163.816 42.1321 163.468 42.3601 162.964 42.3601H159.832ZM175.132 33.1441L171.028 22.0201L166.96 33.1441H175.132Z" fill="#E82127"/>
<path d="M195.569 42.7201C192.257 42.7201 189.689 41.8681 187.865 40.1641C186.065 38.4601 185.105 36.0601 184.985 32.9641C184.961 32.3161 184.949 31.2601 184.949 29.7961C184.949 28.3081 184.961 27.2281 184.985 26.5561C185.105 23.4841 186.077 21.0961 187.901 19.3921C189.749 17.6641 192.305 16.8 195.569 16.8C197.705 16.8 199.565 17.172 201.149 17.9161C202.733 18.6361 203.957 19.6321 204.821 20.9041C205.685 22.1521 206.141 23.5681 206.189 25.1521V25.2241C206.189 25.4161 206.105 25.5841 205.937 25.7281C205.793 25.8481 205.625 25.9081 205.433 25.9081H202.013C201.725 25.9081 201.509 25.8481 201.365 25.7281C201.221 25.6081 201.101 25.3801 201.005 25.0441C200.621 23.5321 199.985 22.4761 199.097 21.8761C198.209 21.2521 197.021 20.9401 195.533 20.9401C192.077 20.9401 190.277 22.8721 190.133 26.7361C190.109 27.3841 190.097 28.3801 190.097 29.7241C190.097 31.0681 190.109 32.0881 190.133 32.7841C190.277 36.6481 192.077 38.5801 195.533 38.5801C197.021 38.5801 198.209 38.2681 199.097 37.6441C200.009 37.0201 200.645 35.9641 201.005 34.4761C201.077 34.1401 201.185 33.9121 201.329 33.7921C201.497 33.6721 201.725 33.6121 202.013 33.6121H205.433C205.649 33.6121 205.829 33.6841 205.973 33.8281C206.141 33.9721 206.213 34.1521 206.189 34.3681C206.141 35.9521 205.685 37.3801 204.821 38.6521C203.957 39.9001 202.733 40.8961 201.149 41.6401C199.565 42.3601 197.705 42.7201 195.569 42.7201Z" fill="#E82127"/>
<path d="M220.142 42.7201C216.878 42.7201 214.334 41.8921 212.51 40.2361C210.686 38.5801 209.726 36.1201 209.63 32.8561C209.606 32.1601 209.594 31.1401 209.594 29.7961C209.594 28.4281 209.606 27.3961 209.63 26.7001C209.726 23.5081 210.71 21.0601 212.582 19.3561C214.454 17.6521 216.974 16.8 220.142 16.8C223.31 16.8 225.83 17.6521 227.702 19.3561C229.598 21.0601 230.594 23.5081 230.69 26.7001C230.738 28.0921 230.762 29.1241 230.762 29.7961C230.762 30.4441 230.738 31.4641 230.69 32.8561C230.57 36.1201 229.598 38.5801 227.774 40.2361C225.95 41.8921 223.406 42.7201 220.142 42.7201ZM220.142 38.5801C221.75 38.5801 223.034 38.1001 223.994 37.1401C224.954 36.1561 225.47 34.6681 225.542 32.6761C225.59 31.2361 225.614 30.2641 225.614 29.7601C225.614 29.2081 225.59 28.2361 225.542 26.8441C225.47 24.8521 224.954 23.3761 223.994 22.4161C223.034 21.4321 221.75 20.9401 220.142 20.9401C218.558 20.9401 217.286 21.4321 216.326 22.4161C215.366 23.3761 214.85 24.8521 214.778 26.8441C214.754 27.5401 214.742 28.5121 214.742 29.7601C214.742 30.9841 214.754 31.9561 214.778 32.6761C214.85 34.6681 215.354 36.1561 216.29 37.1401C217.25 38.1001 218.534 38.5801 220.142 38.5801Z" fill="#E82127"/>
<path d="M236.354 42.3601C236.114 42.3601 235.91 42.2761 235.742 42.1081C235.574 41.9401 235.49 41.7361 235.49 41.4961V18.0241C235.49 17.7601 235.574 17.5561 235.742 17.4121C235.91 17.244 236.114 17.16 236.354 17.16H239.738C240.002 17.16 240.206 17.244 240.35 17.4121C240.518 17.5561 240.602 17.7601 240.602 18.0241V41.4961C240.602 41.7361 240.518 41.9401 240.35 42.1081C240.206 42.2761 240.002 42.3601 239.738 42.3601H236.354Z" fill="#E82127"/>
<path d="M247.111 42.3601C246.871 42.3601 246.667 42.2761 246.499 42.1081C246.331 41.9401 246.247 41.7361 246.247 41.4961V18.0601C246.247 17.7961 246.319 17.5801 246.463 17.4121C246.631 17.244 246.847 17.16 247.111 17.16H249.883C250.171 17.16 250.387 17.22 250.531 17.34C250.675 17.436 250.807 17.5681 250.927 17.7361L261.295 33.8641V18.0601C261.295 17.7961 261.367 17.5801 261.511 17.4121C261.679 17.244 261.895 17.16 262.159 17.16H265.183C265.447 17.16 265.663 17.244 265.831 17.4121C265.999 17.5801 266.083 17.7961 266.083 18.0601V41.4601C266.083 41.7241 265.999 41.9401 265.831 42.1081C265.663 42.2761 265.459 42.3601 265.219 42.3601H262.411C262.003 42.3601 261.655 42.1681 261.367 41.7841L251.035 26.0161V41.4961C251.035 41.7601 250.951 41.9761 250.783 42.1441C250.615 42.2881 250.399 42.3601 250.135 42.3601H247.111Z" fill="#E82127"/>
<path d="M30.1321 60L38.562 12.5898C46.5972 12.5898 49.1317 13.4709 49.4976 17.0674C49.4976 17.0674 54.8878 15.0575 57.6065 10.9757C46.9976 6.05974 36.3381 5.83804 36.3381 5.83804L30.1181 13.4139L30.1321 13.413L23.9121 5.83685C23.9121 5.83685 13.2524 6.05879 2.6449 10.9747C5.36116 15.0566 10.7535 17.0664 10.7535 17.0664C11.1216 13.4698 13.653 12.5887 21.6343 12.5829L30.1321 60Z" fill="#E82127"/>
<path d="M30.1286 3.64988C38.7044 3.58429 48.5203 4.97652 58.5689 9.35614C59.9119 6.93881 60.2572 5.87046 60.2572 5.87046C49.2726 1.52458 38.9857 0.0373067 30.1274 0C21.2696 0.0373067 10.9831 1.52482 0 5.87046C0 5.87046 0.489977 7.18641 1.68712 9.35614C11.7338 4.97652 21.5514 3.58429 30.1274 3.64988H30.1286" fill="#E82127"/>
</svg>
