<svg width="55" height="55" viewBox="0 0 55 55" fill="none" xmlns="http://www.w3.org/2000/svg">
<path fill-rule="evenodd" clip-rule="evenodd" d="M27.5 0C42.6776 0 55 12.3224 55 27.5C55 42.6776 42.6776 55 27.5 55C12.3224 55 0 42.6776 0 27.5C0 12.3224 12.3224 0 27.5 0ZM43.553 41.9933V41.4518L41.0405 38.9851C40.8187 38.8161 40.7087 38.5381 40.7547 38.2631V20.139C40.7087 19.8639 40.8187 19.586 41.0405 19.4169L43.6133 16.9503V16.4088H34.7067L28.3575 32.2469L21.1359 16.4088H11.7929V16.9503L14.802 20.5752C15.0975 20.8413 15.2482 21.2325 15.2081 21.6281V35.8717C15.2957 36.3854 15.1338 36.9104 14.772 37.2855L11.3867 41.3916V41.933H20.9855V41.3916L17.6003 37.2855C17.2357 36.9111 17.0638 36.3896 17.1339 35.8717V23.5533L25.5593 41.933H26.5372L33.7739 23.5533V38.2031C33.7739 38.594 33.7739 38.6693 33.518 38.9249L30.9153 41.4518V41.9933H43.553Z" fill="white"/>
</svg>
