<svg width="90" height="90" viewBox="0 0 90 90" fill="none" xmlns="http://www.w3.org/2000/svg">
<rect y="-0.000244141" width="90" height="90" rx="16" fill="#E82127"/>
<g clip-path="url(#clip0)">
<path fill-rule="evenodd" clip-rule="evenodd" d="M28.9483 27.8486C28.7707 26.9476 28.7837 26.0194 28.9864 25.1238C29.1892 24.2281 29.5773 23.3848 30.1258 22.6483C30.6742 21.9117 31.3708 21.2981 32.1708 20.847C32.9707 20.396 33.8562 20.1174 34.7703 20.0294C35.6844 19.9413 36.6068 20.0456 37.4782 20.3356C38.3495 20.6256 39.1505 21.0948 39.8295 21.7131C40.5085 22.3314 41.0505 23.085 41.4206 23.9255C41.7907 24.7659 41.9807 25.6746 41.9783 26.5929V34.7558C42.9205 34.7558 43.8619 34.5986 44.8041 34.5986C45.6965 34.5727 46.5894 34.6253 47.4726 34.7558V26.5929C47.4829 24.8474 48.1809 23.1763 49.4152 21.9419C50.6495 20.7076 52.3207 20.0097 54.0662 19.9993C55.0379 20.0154 55.9948 20.2399 56.8723 20.6577C57.7498 21.0754 58.5273 21.6767 59.1524 22.4208C59.7775 23.165 60.2356 24.0346 60.4956 24.971C60.7557 25.9074 60.8116 26.8887 60.6598 27.8486L58.9326 37.4279C65.0548 40.0965 69.7648 44.8065 69.7648 50.6144V54.2251C69.7648 59.0915 66.6219 63.1729 62.0726 65.8422C57.5198 68.6679 51.5548 70.2379 44.8041 70.2379C38.0533 70.2379 32.0898 68.6665 27.5355 65.8422C23.1433 63.1701 20.0005 59.0886 20.0005 54.2222V50.6115C20.0005 44.8029 24.5533 40.0936 30.6755 37.4279L28.9483 27.8486ZM56.5783 38.6808L58.6191 27.3779C58.7439 26.7086 58.72 26.02 58.5491 25.3609C58.3782 24.7018 58.0644 24.0884 57.6299 23.5641C57.1955 23.0398 56.651 22.6175 56.0351 22.3271C55.4193 22.0367 54.7471 21.8853 54.0662 21.8836C52.8589 21.8844 51.7013 22.3643 50.8477 23.218C49.994 24.0716 49.5141 25.2292 49.5133 26.4365V36.7965C48.8414 36.6663 48.1566 36.6135 47.4726 36.6393C46.5305 36.6393 45.7455 36.4822 44.8041 36.4822C43.8594 36.4562 42.9143 36.5088 41.9783 36.6393C41.3505 36.6393 40.5655 36.7965 39.9376 36.7965V26.5929C39.9414 25.9563 39.8108 25.326 39.5544 24.7432C39.298 24.1605 38.9216 23.6384 38.4497 23.211C37.9778 22.7837 37.421 22.4607 36.8158 22.2631C36.2106 22.0656 35.5705 21.9979 34.9373 22.0646C34.3041 22.1313 33.6922 22.3307 33.1414 22.65C32.5905 22.9693 32.1133 23.4012 31.7407 23.9174C31.3682 24.4337 31.1087 25.0228 30.9793 25.6461C30.8499 26.2695 30.8535 26.9132 30.9898 27.5351L33.0305 38.8379C26.4369 41.3493 22.0412 45.7451 22.0412 50.7665V54.3772C22.0412 62.0694 32.2455 68.3486 44.8041 68.3486C57.3626 68.3486 67.5669 62.0708 67.5669 54.3794V50.7686C67.7241 45.5879 63.3283 41.1922 56.5783 38.6808Z" fill="#633001"/>
<path d="M67.724 54.2223C67.724 61.9144 57.5197 68.1937 44.9611 68.1937C32.4025 68.1937 22.1982 61.9144 22.1982 54.2223V50.6116H67.8811V54.2223H67.724Z" fill="#FEDC90"/>
<path fill-rule="evenodd" clip-rule="evenodd" d="M30.9897 27.5344C30.8534 26.9125 30.8498 26.2688 30.9793 25.6454C31.1087 25.022 31.3682 24.4329 31.7407 23.9166C32.1133 23.4004 32.5906 22.9685 33.1415 22.6492C33.6924 22.33 34.3044 22.1305 34.9376 22.0639C35.5708 21.9973 36.2109 22.065 36.8161 22.2626C37.4214 22.4602 37.9781 22.7833 38.45 23.2107C38.9219 23.6382 39.2982 24.1604 39.5546 24.7432C39.8109 25.326 39.9414 25.9563 39.9375 26.593V36.9537C41.5532 36.7657 43.1775 36.6608 44.804 36.6394C46.3754 36.6394 47.9468 36.7965 49.5132 36.9537V26.593C49.514 25.3857 49.9939 24.2281 50.8476 23.3745C51.7012 22.5208 52.8588 22.0409 54.0661 22.0401C54.7425 22.0554 55.4078 22.2158 56.0169 22.5105C56.6259 22.8052 57.1646 23.2273 57.5963 23.7483C58.028 24.2693 58.3427 24.877 58.5192 25.5302C58.6956 26.1834 58.7297 26.8669 58.619 27.5344L56.5782 38.8373C63.1718 41.3487 67.7211 45.7444 67.7211 50.7658C67.7211 58.458 57.5168 64.7373 44.9582 64.7373C32.3997 64.7373 22.1982 58.4608 22.1982 50.7687C22.1982 45.7451 26.594 41.3494 33.1875 38.8401L30.9897 27.5344Z" fill="#D1884F"/>
<path d="M38.5245 49.6702C38.5245 51.7109 37.426 53.438 36.0131 53.438C34.6003 53.438 33.501 51.7109 33.501 49.6702C33.501 47.6295 34.5995 45.9023 36.0124 45.9023C37.4253 45.9023 38.5245 47.6295 38.5245 49.6702Z" fill="#633001"/>
<path d="M55.9498 49.6702C55.9498 51.7109 54.8513 53.438 53.4384 53.438C52.0256 53.438 50.9263 51.7109 50.9263 49.6702C50.9263 47.6295 52.0248 45.9023 53.4377 45.9023C54.8506 45.9023 55.9498 47.6295 55.9498 49.6702Z" fill="#633001"/>
</g>
<defs>
<clipPath id="clip0">
<rect width="49.7643" height="50.235" fill="white" transform="translate(20.0005 19.9995)"/>
</clipPath>
</defs>
</svg>
