<svg width="55" height="55" viewBox="0 0 55 55" fill="none" xmlns="http://www.w3.org/2000/svg">
<path fill-rule="evenodd" clip-rule="evenodd" d="M27.5 0C42.6776 0 55 12.3224 55 27.5C55 42.6776 42.6776 55 27.5 55C12.3224 55 0 42.6776 0 27.5C0 12.3224 12.3224 0 27.5 0ZM45.8334 27.5C45.8334 25.2807 44.0321 23.4795 41.8129 23.4795C40.7193 23.4795 39.7544 23.8976 39.0468 24.6053C36.3129 22.6432 32.5176 21.3568 28.3363 21.1959L30.1695 12.6082L36.1199 13.8626C36.1842 15.3742 37.4386 16.5965 38.9824 16.5965C40.5585 16.5965 41.845 15.31 41.845 13.7339C41.845 12.1579 40.5585 10.8713 38.9824 10.8713C37.8568 10.8713 36.8918 11.5147 36.4415 12.4795L29.7836 11.0643C29.5906 11.0321 29.3976 11.0643 29.2368 11.1608C29.076 11.2573 28.9795 11.4181 28.9152 11.6111L26.8889 21.1959C22.6111 21.3245 18.7836 22.5789 16.0176 24.6053C15.31 23.9298 14.3129 23.4795 13.2515 23.4795C11.0321 23.4795 9.23098 25.2807 9.23098 27.5C9.23098 29.1403 10.1959 30.5234 11.6111 31.1666C11.5468 31.5526 11.5147 31.9708 11.5147 32.3889C11.5147 38.5643 18.6871 43.5497 27.5643 43.5497C36.4415 43.5497 43.614 38.5643 43.614 32.3889C43.614 31.9708 43.5819 31.5848 43.5176 31.1989C44.8363 30.5555 45.8334 29.1403 45.8334 27.5ZM34.3187 37.9211C32.3568 39.8831 28.6258 40.0117 27.5321 40.0117C26.4386 40.0117 22.6755 39.8508 20.7456 37.9211C20.4561 37.6316 20.4561 37.1492 20.7456 36.8597C21.0351 36.5702 21.5176 36.5702 21.8071 36.8597C23.0292 38.0819 25.6666 38.5321 27.5643 38.5321C29.462 38.5321 32.0673 38.0819 33.3216 36.8597C33.6111 36.5702 34.0936 36.5702 34.3831 36.8597C34.6082 37.1813 34.6082 37.6316 34.3187 37.9211V37.9211ZM18.3334 30.3626C18.3334 28.7866 19.6199 27.5 21.1959 27.5C22.7719 27.5 24.0585 28.7866 24.0585 30.3626C24.0585 31.9386 22.7719 33.2252 21.1959 33.2252C19.6199 33.2252 18.3334 31.9386 18.3334 30.3626ZM33.8041 33.2252C32.2281 33.2252 30.9415 31.9386 30.9415 30.3626C30.9415 28.7866 32.2281 27.5 33.8041 27.5C35.3801 27.5 36.6666 28.7866 36.6666 30.3626C36.6666 31.9386 35.3801 33.2252 33.8041 33.2252Z" fill="white"/>
</svg>
