<svg width="55" height="55" viewBox="0 0 55 55" fill="none" xmlns="http://www.w3.org/2000/svg">
<path d="M27.5 0C12.3122 0 0 12.3122 0 27.5C0 42.6878 12.3122 55 27.5 55C42.6878 55 55 42.6878 55 27.5C55 12.3122 42.6878 0 27.5 0ZM41.7934 17.3955L36.9092 40.7129C36.8501 40.9949 36.7211 41.2576 36.534 41.4767C36.3469 41.6959 36.1077 41.8645 35.8385 41.9671C35.5692 42.0697 35.2785 42.103 34.993 42.0639C34.7075 42.0248 34.4364 41.9146 34.2046 41.7434L27.1002 36.4946L22.796 40.5552C22.7397 40.6084 22.6733 40.6497 22.6008 40.677C22.5283 40.7042 22.4511 40.7167 22.3737 40.7138C22.2962 40.7108 22.2202 40.6925 22.15 40.6598C22.0797 40.6272 22.0167 40.5809 21.9646 40.5236L21.8721 40.422L22.6199 33.1844L36.0997 20.8684C36.1663 20.8076 36.2078 20.724 36.2158 20.6342C36.2239 20.5443 36.198 20.4547 36.1432 20.383C36.0885 20.3113 36.0088 20.2627 35.92 20.2468C35.8312 20.2309 35.7396 20.2489 35.6634 20.2973L18.4245 31.2081L11 28.7146C10.8026 28.6483 10.6305 28.5225 10.5074 28.3545C10.3843 28.1866 10.3162 27.9846 10.3125 27.7764C10.3087 27.5682 10.3695 27.3639 10.4864 27.1916C10.6033 27.0192 10.7707 26.8873 10.9656 26.8139L40.0146 15.8709C40.2387 15.7866 40.4813 15.764 40.7171 15.8056C40.9529 15.8471 41.1732 15.9512 41.355 16.107C41.5368 16.2628 41.6734 16.4646 41.7505 16.6912C41.8277 16.9179 41.8425 17.1611 41.7934 17.3955Z" fill="white"/>
</svg>
