<svg width="955" height="72" viewBox="0 0 955 72" fill="none" xmlns="http://www.w3.org/2000/svg">
<path d="M23.3961 71C22.7294 71 22.1294 70.7667 21.5961 70.3C21.1294 69.7667 20.8961 69.1667 20.8961 68.5V16.7H3.0961C2.42943 16.7 1.82943 16.4667 1.2961 16C0.829433 15.4667 0.5961 14.8667 0.5961 14.2V3.5C0.5961 2.76667 0.829433 2.16667 1.2961 1.7C1.82943 1.23333 2.42943 0.999999 3.0961 0.999999H56.8961C57.6294 0.999999 58.2294 1.23333 58.6961 1.7C59.1628 2.16667 59.3961 2.76667 59.3961 3.5V14.2C59.3961 14.9333 59.1628 15.5333 58.6961 16C58.2294 16.4667 57.6294 16.7 56.8961 16.7H39.0961V68.5C39.0961 69.1667 38.8628 69.7667 38.3961 70.3C37.9294 70.7667 37.3294 71 36.5961 71H23.3961Z" fill="url(#paint0_linear)" fill-opacity="0.15"/>
<path d="M70.9844 71C70.3177 71 69.7177 70.7667 69.1844 70.3C68.7177 69.7667 68.4844 69.1667 68.4844 68.5V3.5C68.4844 2.76667 68.7177 2.16667 69.1844 1.7C69.7177 1.23333 70.3177 0.999999 70.9844 0.999999H117.684C118.418 0.999999 119.018 1.23333 119.484 1.7C119.951 2.16667 120.184 2.76667 120.184 3.5V12.9C120.184 13.5667 119.951 14.1667 119.484 14.7C119.018 15.1667 118.418 15.4 117.684 15.4H85.7844V28.9H115.484C116.218 28.9 116.818 29.1667 117.284 29.7C117.751 30.1667 117.984 30.7667 117.984 31.5V40.2C117.984 40.8667 117.751 41.4667 117.284 42C116.818 42.4667 116.218 42.7 115.484 42.7H85.7844V56.6H118.484C119.218 56.6 119.818 56.8333 120.284 57.3C120.751 57.7667 120.984 58.3667 120.984 59.1V68.5C120.984 69.1667 120.751 69.7667 120.284 70.3C119.818 70.7667 119.218 71 118.484 71H70.9844Z" fill="url(#paint1_linear)" fill-opacity="0.15"/>
<path d="M158.452 72C152.118 72 146.685 71.0667 142.152 69.2C137.618 67.3333 134.185 64.9 131.852 61.9C129.585 58.8333 128.385 55.5 128.252 51.9C128.252 51.3667 128.452 50.9 128.852 50.5C129.318 50.0333 129.852 49.8 130.452 49.8H143.052C143.852 49.8 144.485 49.9667 144.952 50.3C145.485 50.5667 146.018 51 146.552 51.6C147.418 53.3333 148.818 54.7667 150.752 55.9C152.685 57.0333 155.252 57.6 158.452 57.6C162.252 57.6 165.152 57 167.152 55.8C169.152 54.6 170.152 52.9667 170.152 50.9C170.152 49.4333 169.618 48.2333 168.552 47.3C167.552 46.3667 165.952 45.5333 163.752 44.8C161.552 44.0667 158.285 43.2333 153.952 42.3C145.952 40.6333 139.952 38.2 135.952 35C132.018 31.7333 130.052 27.1 130.052 21.1C130.052 17.0333 131.185 13.4 133.452 10.2C135.718 7 138.952 4.5 143.152 2.7C147.352 0.9 152.252 0 157.852 0C163.652 0 168.685 1 172.952 3C177.218 5 180.452 7.53333 182.652 10.6C184.918 13.6 186.118 16.5667 186.252 19.5C186.252 20.1 186.052 20.6 185.652 21C185.252 21.4 184.752 21.6 184.152 21.6H170.952C170.152 21.6 169.485 21.4667 168.952 21.2C168.485 20.9333 168.052 20.5 167.652 19.9C167.252 18.3667 166.152 17.0667 164.352 16C162.618 14.9333 160.452 14.4 157.852 14.4C154.852 14.4 152.552 14.9333 150.952 16C149.352 17.0667 148.552 18.6333 148.552 20.7C148.552 22.1 148.985 23.2667 149.852 24.2C150.785 25.1333 152.252 26 154.252 26.8C156.318 27.5333 159.252 28.3 163.052 29.1C169.252 30.2333 174.185 31.6667 177.852 33.4C181.585 35.0667 184.318 37.2667 186.052 40C187.785 42.6667 188.652 46.0333 188.652 50.1C188.652 54.5667 187.352 58.4667 184.752 61.8C182.218 65.0667 178.652 67.6 174.052 69.4C169.518 71.1333 164.318 72 158.452 72Z" fill="url(#paint2_linear)" fill-opacity="0.15"/>
<path d="M201.16 71C200.493 71 199.894 70.7667 199.36 70.3C198.894 69.7667 198.66 69.1667 198.66 68.5V3.5C198.66 2.76667 198.894 2.16667 199.36 1.7C199.894 1.23333 200.493 0.999999 201.16 0.999999H214.36C215.094 0.999999 215.693 1.23333 216.16 1.7C216.627 2.16667 216.86 2.76667 216.86 3.5V55.9H247.16C247.893 55.9 248.493 56.1667 248.96 56.7C249.427 57.1667 249.66 57.7667 249.66 58.5V68.5C249.66 69.1667 249.427 69.7667 248.96 70.3C248.493 70.7667 247.893 71 247.16 71H201.16Z" fill="url(#paint3_linear)" fill-opacity="0.15"/>
<path d="M254.328 71C253.795 71 253.295 70.8 252.828 70.4C252.428 69.9333 252.228 69.4333 252.228 68.9C252.228 68.5 252.261 68.2 252.328 68L275.828 3.8C276.028 3 276.461 2.33334 277.128 1.8C277.795 1.26667 278.661 0.999999 279.728 0.999999H294.528C295.595 0.999999 296.461 1.26667 297.128 1.8C297.795 2.33334 298.228 3 298.428 3.8L321.828 68L322.028 68.9C322.028 69.4333 321.795 69.9333 321.328 70.4C320.928 70.8 320.428 71 319.828 71H307.528C305.928 71 304.861 70.3 304.328 68.9L300.428 58.7H273.728L269.928 68.9C269.395 70.3 268.295 71 266.628 71H254.328ZM296.428 44.3L287.128 17.9L277.828 44.3H296.428Z" fill="url(#paint4_linear)" fill-opacity="0.15"/>
<path d="M377.36 72C367.827 72 360.36 69.7 354.96 65.1C349.627 60.4333 346.794 53.7 346.46 44.9C346.394 43.1 346.36 40.1667 346.36 36.1C346.36 31.9667 346.394 28.9667 346.46 27.1C346.794 18.4333 349.693 11.7667 355.16 7.1C360.627 2.36667 368.027 0 377.36 0C383.227 0 388.493 1 393.16 3C397.827 4.93334 401.493 7.73334 404.16 11.4C406.893 15 408.293 19.2333 408.36 24.1V24.3C408.36 24.8333 408.127 25.3 407.66 25.7C407.26 26.0333 406.793 26.2 406.26 26.2H392.76C391.893 26.2 391.227 26.0333 390.76 25.7C390.293 25.3 389.893 24.6 389.56 23.6C388.627 20.2 387.16 17.8333 385.16 16.5C383.16 15.1 380.527 14.4 377.26 14.4C369.393 14.4 365.327 18.8 365.06 27.6C364.993 29.4 364.96 32.1667 364.96 35.9C364.96 39.6333 364.993 42.4667 365.06 44.4C365.327 53.2 369.393 57.6 377.26 57.6C380.527 57.6 383.193 56.9 385.26 55.5C387.327 54.0333 388.76 51.6667 389.56 48.4C389.827 47.4 390.193 46.7333 390.66 46.4C391.127 46 391.827 45.8 392.76 45.8H406.26C406.86 45.8 407.36 46 407.76 46.4C408.227 46.8 408.427 47.3 408.36 47.9C408.293 52.7667 406.893 57.0333 404.16 60.7C401.493 64.3 397.827 67.1 393.16 69.1C388.493 71.0333 383.227 72 377.36 72Z" fill="url(#paint5_linear)" fill-opacity="0.15"/>
<path d="M447.475 72C438.075 72 430.675 69.7 425.275 65.1C419.875 60.5 417.008 53.7333 416.675 44.8C416.608 42.8667 416.575 40 416.575 36.2C416.575 32.3333 416.608 29.4333 416.675 27.5C417.008 18.7 419.908 11.9333 425.375 7.2C430.908 2.4 438.275 0 447.475 0C456.675 0 464.042 2.4 469.575 7.2C475.108 11.9333 478.008 18.7 478.275 27.5C478.408 31.3667 478.475 34.2667 478.475 36.2C478.475 38.0667 478.408 40.9333 478.275 44.8C477.942 53.7333 475.075 60.5 469.675 65.1C464.275 69.7 456.875 72 447.475 72ZM447.475 57.6C451.142 57.6 454.042 56.5 456.175 54.3C458.375 52.1 459.542 48.7333 459.675 44.2C459.808 40.3333 459.875 37.6 459.875 36C459.875 34.2667 459.808 31.5333 459.675 27.8C459.542 23.2667 458.375 19.9 456.175 17.7C453.975 15.5 451.075 14.4 447.475 14.4C443.875 14.4 440.975 15.5 438.775 17.7C436.642 19.9 435.475 23.2667 435.275 27.8C435.208 29.6667 435.175 32.4 435.175 36C435.175 39.5333 435.208 42.2667 435.275 44.2C435.475 48.7333 436.642 52.1 438.775 54.3C440.908 56.5 443.808 57.6 447.475 57.6Z" fill="url(#paint6_linear)" fill-opacity="0.15"/>
<path d="M492.566 71C491.9 71 491.3 70.7667 490.766 70.3C490.3 69.7667 490.066 69.1667 490.066 68.5V3.5C490.066 2.76667 490.3 2.16667 490.766 1.7C491.3 1.23333 491.9 0.999999 492.566 0.999999H503.366C504.966 0.999999 506.133 1.73333 506.866 3.2L524.466 34.7L542.066 3.2C542.8 1.73333 543.966 0.999999 545.566 0.999999H556.266C557 0.999999 557.6 1.23333 558.066 1.7C558.6 2.16667 558.866 2.76667 558.866 3.5V68.5C558.866 69.2333 558.6 69.8333 558.066 70.3C557.6 70.7667 557 71 556.266 71H544.366C543.633 71 543 70.7667 542.466 70.3C542 69.8333 541.766 69.2333 541.766 68.5V31L530.566 51.9C529.7 53.4333 528.533 54.2 527.066 54.2H521.866C521 54.2 520.3 54 519.766 53.6C519.233 53.2 518.766 52.6333 518.366 51.9L507.066 31V68.5C507.066 69.1667 506.833 69.7667 506.366 70.3C505.9 70.7667 505.3 71 504.566 71H492.566Z" fill="url(#paint7_linear)" fill-opacity="0.15"/>
<path d="M575.379 71C574.712 71 574.112 70.7667 573.579 70.3C573.112 69.7667 572.879 69.1667 572.879 68.5V3.5C572.879 2.76667 573.112 2.16667 573.579 1.7C574.112 1.23333 574.712 0.999999 575.379 0.999999H586.179C587.779 0.999999 588.946 1.73333 589.679 3.2L607.279 34.7L624.879 3.2C625.612 1.73333 626.779 0.999999 628.379 0.999999H639.079C639.812 0.999999 640.412 1.23333 640.879 1.7C641.412 2.16667 641.679 2.76667 641.679 3.5V68.5C641.679 69.2333 641.412 69.8333 640.879 70.3C640.412 70.7667 639.812 71 639.079 71H627.179C626.446 71 625.812 70.7667 625.279 70.3C624.812 69.8333 624.579 69.2333 624.579 68.5V31L613.379 51.9C612.512 53.4333 611.346 54.2 609.879 54.2H604.679C603.812 54.2 603.112 54 602.579 53.6C602.046 53.2 601.579 52.6333 601.179 51.9L589.879 31V68.5C589.879 69.1667 589.646 69.7667 589.179 70.3C588.712 70.7667 588.112 71 587.379 71H575.379Z" fill="url(#paint8_linear)" fill-opacity="0.15"/>
<path d="M685.091 72C675.691 72 668.325 69.7 662.991 65.1C657.725 60.5 655.091 53.5667 655.091 44.3V3.5C655.091 2.76667 655.325 2.16667 655.791 1.7C656.325 1.23333 656.925 0.999999 657.591 0.999999H670.491C671.225 0.999999 671.825 1.23333 672.291 1.7C672.825 2.16667 673.091 2.76667 673.091 3.5V44.2C673.091 48.5333 674.091 51.8 676.091 54C678.158 56.1333 681.125 57.2 684.991 57.2C688.791 57.2 691.725 56.1 693.791 53.9C695.858 51.7 696.891 48.4667 696.891 44.2V3.5C696.891 2.76667 697.125 2.16667 697.591 1.7C698.125 1.23333 698.725 0.999999 699.391 0.999999H712.391C713.125 0.999999 713.725 1.23333 714.191 1.7C714.658 2.16667 714.891 2.76667 714.891 3.5V44.3C714.891 53.5667 712.225 60.5 706.891 65.1C701.625 69.7 694.358 72 685.091 72Z" fill="url(#paint9_linear)" fill-opacity="0.15"/>
<path d="M730.652 71C729.986 71 729.386 70.7667 728.852 70.3C728.386 69.7667 728.152 69.1667 728.152 68.5V3.5C728.152 2.76667 728.386 2.16667 728.852 1.7C729.386 1.23333 729.986 0.999999 730.652 0.999999H741.252C742.919 0.999999 744.052 1.63333 744.652 2.9L769.052 41.3V3.5C769.052 2.76667 769.286 2.16667 769.752 1.7C770.286 1.23333 770.886 0.999999 771.552 0.999999H783.552C784.286 0.999999 784.886 1.23333 785.352 1.7C785.819 2.16667 786.052 2.76667 786.052 3.5V68.4C786.052 69.1333 785.819 69.7667 785.352 70.3C784.886 70.7667 784.286 71 783.552 71H772.852C771.386 71 770.286 70.3667 769.552 69.1L745.152 32.1V68.5C745.152 69.1667 744.919 69.7667 744.452 70.3C743.986 70.7667 743.386 71 742.652 71H730.652Z" fill="url(#paint10_linear)" fill-opacity="0.15"/>
<path d="M802.527 71C801.861 71 801.261 70.7667 800.727 70.3C800.261 69.7667 800.027 69.1667 800.027 68.5V3.5C800.027 2.76667 800.261 2.16667 800.727 1.7C801.261 1.23333 801.861 0.999999 802.527 0.999999H815.927C816.661 0.999999 817.261 1.23333 817.727 1.7C818.261 2.16667 818.527 2.76667 818.527 3.5V68.5C818.527 69.2333 818.261 69.8333 817.727 70.3C817.261 70.7667 816.661 71 815.927 71H802.527Z" fill="url(#paint11_linear)" fill-opacity="0.15"/>
<path d="M850.349 71C849.683 71 849.083 70.7667 848.549 70.3C848.083 69.7667 847.849 69.1667 847.849 68.5V16.7H830.049C829.383 16.7 828.783 16.4667 828.249 16C827.783 15.4667 827.549 14.8667 827.549 14.2V3.5C827.549 2.76667 827.783 2.16667 828.249 1.7C828.783 1.23333 829.383 0.999999 830.049 0.999999H883.849C884.583 0.999999 885.183 1.23333 885.649 1.7C886.116 2.16667 886.349 2.76667 886.349 3.5V14.2C886.349 14.9333 886.116 15.5333 885.649 16C885.183 16.4667 884.583 16.7 883.849 16.7H866.049V68.5C866.049 69.1667 865.816 69.7667 865.349 70.3C864.883 70.7667 864.283 71 863.549 71H850.349Z" fill="url(#paint12_linear)" fill-opacity="0.15"/>
<path d="M915.938 71C915.271 71 914.671 70.7667 914.137 70.3C913.671 69.7667 913.438 69.1667 913.438 68.5V47L890.238 4.2C890.038 3.6 889.938 3.23333 889.938 3.1C889.938 2.56667 890.138 2.1 890.538 1.7C891.004 1.23333 891.537 0.999999 892.137 0.999999H904.637C905.971 0.999999 907.137 1.7 908.137 3.1L922.438 28.9L936.837 3.1C937.637 1.7 938.804 0.999999 940.337 0.999999H952.837C953.437 0.999999 953.937 1.23333 954.337 1.7C954.737 2.1 954.938 2.56667 954.938 3.1C954.938 3.43333 954.871 3.8 954.738 4.2L931.538 47V68.5C931.538 69.2333 931.271 69.8333 930.738 70.3C930.271 70.7667 929.671 71 928.938 71H915.938Z" fill="url(#paint13_linear)" fill-opacity="0.15"/>
<defs>
<linearGradient id="paint0_linear" x1="477.5" y1="-12.9907" x2="477.5" y2="70.4206" gradientUnits="userSpaceOnUse">
<stop stop-color="#E82127"/>
<stop offset="1" stop-color="#E82127" stop-opacity="0"/>
</linearGradient>
<linearGradient id="paint1_linear" x1="477.5" y1="-12.9907" x2="477.5" y2="70.4206" gradientUnits="userSpaceOnUse">
<stop stop-color="#E82127"/>
<stop offset="1" stop-color="#E82127" stop-opacity="0"/>
</linearGradient>
<linearGradient id="paint2_linear" x1="477.5" y1="-12.9907" x2="477.5" y2="70.4206" gradientUnits="userSpaceOnUse">
<stop stop-color="#E82127"/>
<stop offset="1" stop-color="#E82127" stop-opacity="0"/>
</linearGradient>
<linearGradient id="paint3_linear" x1="477.5" y1="-12.9907" x2="477.5" y2="70.4206" gradientUnits="userSpaceOnUse">
<stop stop-color="#E82127"/>
<stop offset="1" stop-color="#E82127" stop-opacity="0"/>
</linearGradient>
<linearGradient id="paint4_linear" x1="477.5" y1="-12.9907" x2="477.5" y2="70.4206" gradientUnits="userSpaceOnUse">
<stop stop-color="#E82127"/>
<stop offset="1" stop-color="#E82127" stop-opacity="0"/>
</linearGradient>
<linearGradient id="paint5_linear" x1="477.5" y1="-12.9907" x2="477.5" y2="70.4206" gradientUnits="userSpaceOnUse">
<stop stop-color="#E82127"/>
<stop offset="1" stop-color="#E82127" stop-opacity="0"/>
</linearGradient>
<linearGradient id="paint6_linear" x1="477.5" y1="-12.9907" x2="477.5" y2="70.4206" gradientUnits="userSpaceOnUse">
<stop stop-color="#E82127"/>
<stop offset="1" stop-color="#E82127" stop-opacity="0"/>
</linearGradient>
<linearGradient id="paint7_linear" x1="477.5" y1="-12.9907" x2="477.5" y2="70.4206" gradientUnits="userSpaceOnUse">
<stop stop-color="#E82127"/>
<stop offset="1" stop-color="#E82127" stop-opacity="0"/>
</linearGradient>
<linearGradient id="paint8_linear" x1="477.5" y1="-12.9907" x2="477.5" y2="70.4206" gradientUnits="userSpaceOnUse">
<stop stop-color="#E82127"/>
<stop offset="1" stop-color="#E82127" stop-opacity="0"/>
</linearGradient>
<linearGradient id="paint9_linear" x1="477.5" y1="-12.9907" x2="477.5" y2="70.4206" gradientUnits="userSpaceOnUse">
<stop stop-color="#E82127"/>
<stop offset="1" stop-color="#E82127" stop-opacity="0"/>
</linearGradient>
<linearGradient id="paint10_linear" x1="477.5" y1="-12.9907" x2="477.5" y2="70.4206" gradientUnits="userSpaceOnUse">
<stop stop-color="#E82127"/>
<stop offset="1" stop-color="#E82127" stop-opacity="0"/>
</linearGradient>
<linearGradient id="paint11_linear" x1="477.5" y1="-12.9907" x2="477.5" y2="70.4206" gradientUnits="userSpaceOnUse">
<stop stop-color="#E82127"/>
<stop offset="1" stop-color="#E82127" stop-opacity="0"/>
</linearGradient>
<linearGradient id="paint12_linear" x1="477.5" y1="-12.9907" x2="477.5" y2="70.4206" gradientUnits="userSpaceOnUse">
<stop stop-color="#E82127"/>
<stop offset="1" stop-color="#E82127" stop-opacity="0"/>
</linearGradient>
<linearGradient id="paint13_linear" x1="477.5" y1="-12.9907" x2="477.5" y2="70.4206" gradientUnits="userSpaceOnUse">
<stop stop-color="#E82127"/>
<stop offset="1" stop-color="#E82127" stop-opacity="0"/>
</linearGradient>
</defs>
</svg>
