<svg width="90" height="91" viewBox="0 0 90 91" fill="none" xmlns="http://www.w3.org/2000/svg">
<rect y="0.286133" width="90" height="90" rx="16" fill="#E82127"/>
<path d="M44.7639 72.4285L52.4913 28.9693C59.8569 28.9693 62.1802 29.777 62.5156 33.0737C62.5156 33.0737 67.4566 31.2313 69.9487 27.4896C60.2239 22.9834 50.4527 22.7801 50.4527 22.7801L44.7511 29.7247L44.7639 29.7238L39.0623 22.7791C39.0623 22.7791 29.2909 22.9825 19.5674 27.4888C22.0573 31.2305 27.0003 33.0728 27.0003 33.0728C27.3377 29.7759 29.6581 28.9682 36.9743 28.963L44.7639 72.4285Z" fill="white"/>
<path d="M44.7609 20.7744C52.622 20.7143 61.62 21.9905 70.8311 26.0052C72.0622 23.7893 72.3787 22.81 72.3787 22.81C62.3096 18.8262 52.8799 17.4629 44.7598 17.4287C36.6401 17.4629 27.2109 18.8265 17.1431 22.81C17.1431 22.81 17.5922 24.0162 18.6896 26.0052C27.899 21.9905 36.8985 20.7143 44.7598 20.7744H44.7609" fill="white"/>
</svg>
