<svg width="540" height="310" viewBox="0 0 540 310" fill="none" xmlns="http://www.w3.org/2000/svg">
<g clip-path="url(#clip0)">
<rect width="540" height="310" rx="16" fill="#E82127"/>
<circle cx="26.242" cy="72.2421" r="142.77" transform="rotate(99.7791 26.242 72.2421)" fill="url(#paint0_linear)" fill-opacity="0.1"/>
<circle cx="531.257" cy="19.2573" r="73.6948" transform="rotate(-105 531.257 19.2573)" fill="url(#paint1_linear)" fill-opacity="0.1"/>
<circle cx="531.046" cy="285.046" r="124.961" transform="rotate(-105 531.046 285.046)" fill="url(#paint2_linear)" fill-opacity="0.1"/>
<g filter="url(#filter0_b)">
<rect width="540" height="310" fill="#282626" fill-opacity="0.1"/>
</g>
<path d="M183.393 193.053C183.177 193.053 182.982 192.979 182.809 192.829C182.658 192.659 182.582 192.467 182.582 192.254V175.688H176.811C176.594 175.688 176.4 175.614 176.227 175.464C176.076 175.294 176 175.102 176 174.889V171.467C176 171.232 176.076 171.041 176.227 170.891C176.4 170.742 176.594 170.667 176.811 170.667H194.256C194.493 170.667 194.688 170.742 194.839 170.891C194.99 171.041 195.066 171.232 195.066 171.467V174.889C195.066 175.123 194.99 175.315 194.839 175.464C194.688 175.614 194.493 175.688 194.256 175.688H188.484V192.254C188.484 192.467 188.408 192.659 188.257 192.829C188.105 192.979 187.911 193.053 187.673 193.053H183.393Z" fill="white"/>
<path d="M198.824 193.053C198.608 193.053 198.413 192.979 198.24 192.829C198.089 192.659 198.013 192.467 198.013 192.254V171.467C198.013 171.232 198.089 171.041 198.24 170.891C198.413 170.742 198.608 170.667 198.824 170.667H213.966C214.204 170.667 214.399 170.742 214.55 170.891C214.701 171.041 214.777 171.232 214.777 171.467V174.473C214.777 174.686 214.701 174.878 214.55 175.049C214.399 175.198 214.204 175.273 213.966 175.273H203.623V179.59H213.253C213.491 179.59 213.685 179.675 213.837 179.846C213.988 179.995 214.064 180.187 214.064 180.421V183.203C214.064 183.417 213.988 183.609 213.837 183.779C213.685 183.928 213.491 184.003 213.253 184.003H203.623V188.448H214.226C214.464 188.448 214.658 188.523 214.809 188.672C214.961 188.821 215.036 189.013 215.036 189.248V192.254C215.036 192.467 214.961 192.659 214.809 192.829C214.658 192.979 214.464 193.053 214.226 193.053H198.824Z" fill="white"/>
<path d="M227.185 193.373C225.132 193.373 223.37 193.075 221.9 192.478C220.43 191.881 219.317 191.102 218.56 190.143C217.825 189.162 217.436 188.096 217.393 186.945C217.393 186.775 217.458 186.625 217.587 186.497C217.739 186.348 217.912 186.274 218.106 186.274H222.192C222.451 186.274 222.657 186.327 222.808 186.433C222.981 186.519 223.154 186.657 223.327 186.849C223.608 187.403 224.062 187.862 224.689 188.224C225.315 188.587 226.148 188.768 227.185 188.768C228.417 188.768 229.358 188.576 230.006 188.192C230.655 187.809 230.979 187.286 230.979 186.625C230.979 186.156 230.806 185.773 230.46 185.474C230.136 185.176 229.617 184.909 228.904 184.675C228.19 184.44 227.131 184.174 225.726 183.875C223.132 183.342 221.187 182.564 219.89 181.541C218.614 180.496 217.976 179.014 217.976 177.095C217.976 175.795 218.344 174.633 219.079 173.61C219.814 172.586 220.862 171.787 222.224 171.211C223.586 170.635 225.175 170.348 226.991 170.348C228.871 170.348 230.503 170.667 231.887 171.307C233.27 171.947 234.319 172.757 235.032 173.738C235.767 174.697 236.156 175.646 236.2 176.584C236.2 176.776 236.135 176.935 236.005 177.063C235.875 177.191 235.713 177.255 235.519 177.255H231.238C230.979 177.255 230.763 177.213 230.59 177.127C230.439 177.042 230.298 176.903 230.168 176.712C230.039 176.221 229.682 175.806 229.098 175.464C228.536 175.123 227.834 174.953 226.991 174.953C226.018 174.953 225.272 175.123 224.753 175.464C224.235 175.806 223.975 176.307 223.975 176.967C223.975 177.415 224.116 177.788 224.397 178.087C224.699 178.385 225.175 178.662 225.823 178.918C226.494 179.153 227.445 179.398 228.677 179.654C230.687 180.016 232.287 180.475 233.476 181.029C234.686 181.562 235.573 182.265 236.135 183.14C236.697 183.992 236.978 185.069 236.978 186.369C236.978 187.798 236.556 189.045 235.713 190.111C234.892 191.156 233.735 191.966 232.244 192.542C230.774 193.096 229.088 193.373 227.185 193.373Z" fill="white"/>
<path d="M241.034 193.053C240.818 193.053 240.623 192.979 240.45 192.829C240.299 192.659 240.223 192.467 240.223 192.254V171.467C240.223 171.232 240.299 171.041 240.45 170.891C240.623 170.742 240.818 170.667 241.034 170.667H245.314C245.552 170.667 245.746 170.742 245.898 170.891C246.049 171.041 246.125 171.232 246.125 171.467V188.224H255.949C256.187 188.224 256.382 188.31 256.533 188.48C256.684 188.629 256.76 188.821 256.76 189.056V192.254C256.76 192.467 256.684 192.659 256.533 192.829C256.382 192.979 256.187 193.053 255.949 193.053H241.034Z" fill="white"/>
<path d="M258.274 193.053C258.101 193.053 257.939 192.989 257.787 192.861C257.658 192.712 257.593 192.552 257.593 192.382C257.593 192.254 257.604 192.158 257.625 192.094L265.245 171.563C265.31 171.307 265.45 171.094 265.667 170.923C265.883 170.753 266.164 170.667 266.51 170.667H271.309C271.655 170.667 271.936 170.753 272.152 170.923C272.368 171.094 272.508 171.307 272.573 171.563L280.161 192.094L280.226 192.382C280.226 192.552 280.15 192.712 279.999 192.861C279.869 192.989 279.707 193.053 279.512 193.053H275.524C275.005 193.053 274.659 192.829 274.486 192.382L273.222 189.12H264.564L263.332 192.382C263.159 192.829 262.802 193.053 262.262 193.053H258.274ZM271.925 184.515L268.909 176.072L265.894 184.515H271.925Z" fill="white"/>
<path d="M298.167 193.373C295.076 193.373 292.655 192.638 290.904 191.166C289.175 189.674 288.256 187.521 288.148 184.707C288.126 184.131 288.115 183.193 288.115 181.892C288.115 180.57 288.126 179.611 288.148 179.014C288.256 176.243 289.196 174.111 290.969 172.618C292.741 171.105 295.141 170.348 298.167 170.348C300.07 170.348 301.777 170.667 303.291 171.307C304.804 171.925 305.993 172.821 306.857 173.993C307.744 175.145 308.198 176.498 308.219 178.055V178.119C308.219 178.289 308.144 178.439 307.992 178.566C307.862 178.673 307.711 178.726 307.538 178.726H303.161C302.88 178.726 302.664 178.673 302.512 178.566C302.361 178.439 302.231 178.215 302.123 177.895C301.821 176.808 301.345 176.051 300.696 175.624C300.048 175.177 299.194 174.953 298.135 174.953C295.584 174.953 294.265 176.36 294.179 179.174C294.157 179.75 294.147 180.634 294.147 181.828C294.147 183.022 294.157 183.928 294.179 184.547C294.265 187.361 295.584 188.768 298.135 188.768C299.194 188.768 300.059 188.544 300.729 188.096C301.399 187.627 301.864 186.87 302.123 185.826C302.21 185.506 302.329 185.293 302.48 185.186C302.631 185.058 302.858 184.994 303.161 184.994H307.538C307.733 184.994 307.895 185.058 308.025 185.186C308.176 185.314 308.241 185.474 308.219 185.666C308.198 187.222 307.744 188.587 306.857 189.759C305.993 190.911 304.804 191.806 303.291 192.446C301.777 193.064 300.07 193.373 298.167 193.373Z" fill="white"/>
<path d="M320.902 193.373C317.854 193.373 315.455 192.638 313.704 191.166C311.953 189.695 311.023 187.531 310.915 184.675C310.894 184.056 310.883 183.14 310.883 181.924C310.883 180.688 310.894 179.76 310.915 179.142C311.023 176.328 311.964 174.164 313.736 172.65C315.531 171.115 317.919 170.348 320.902 170.348C323.885 170.348 326.274 171.115 328.068 172.65C329.863 174.164 330.803 176.328 330.889 179.142C330.933 180.379 330.954 181.306 330.954 181.924C330.954 182.521 330.933 183.438 330.889 184.675C330.781 187.531 329.852 189.695 328.101 191.166C326.35 192.638 323.95 193.373 320.902 193.373ZM320.902 188.768C322.091 188.768 323.032 188.416 323.723 187.713C324.437 187.009 324.815 185.932 324.858 184.483C324.901 183.246 324.923 182.372 324.923 181.86C324.923 181.306 324.901 180.432 324.858 179.238C324.815 177.788 324.437 176.712 323.723 176.008C323.01 175.305 322.07 174.953 320.902 174.953C319.735 174.953 318.795 175.305 318.081 176.008C317.39 176.712 317.011 177.788 316.946 179.238C316.925 179.835 316.914 180.709 316.914 181.86C316.914 182.99 316.925 183.864 316.946 184.483C317.011 185.932 317.39 187.009 318.081 187.713C318.773 188.416 319.713 188.768 320.902 188.768Z" fill="white"/>
<path d="M335.523 193.053C335.307 193.053 335.113 192.979 334.94 192.829C334.788 192.659 334.713 192.467 334.713 192.254V171.467C334.713 171.232 334.788 171.041 334.94 170.891C335.113 170.742 335.307 170.667 335.523 170.667H339.868C340.106 170.667 340.301 170.742 340.452 170.891C340.625 171.041 340.711 171.232 340.711 171.467V192.254C340.711 192.488 340.625 192.68 340.452 192.829C340.301 192.979 340.106 193.053 339.868 193.053H335.523Z" fill="white"/>
<path d="M346.036 193.053C345.82 193.053 345.626 192.979 345.453 192.829C345.301 192.659 345.226 192.467 345.226 192.254V171.467C345.226 171.232 345.301 171.041 345.453 170.891C345.626 170.742 345.82 170.667 346.036 170.667H349.473C350.014 170.667 350.381 170.87 350.576 171.275L358.488 183.555V171.467C358.488 171.232 358.563 171.041 358.715 170.891C358.888 170.742 359.082 170.667 359.298 170.667H363.189C363.427 170.667 363.622 170.742 363.773 170.891C363.924 171.041 364 171.232 364 171.467V192.222C364 192.456 363.924 192.659 363.773 192.829C363.622 192.979 363.427 193.053 363.189 193.053H359.72C359.244 193.053 358.888 192.851 358.65 192.446L350.738 180.613V192.254C350.738 192.467 350.662 192.659 350.511 192.829C350.36 192.979 350.165 193.053 349.927 193.053H346.036Z" fill="white"/>
<path d="M212.585 233.348C212.247 233.348 212.046 233.175 211.981 232.83L209.472 220.511C209.459 220.447 209.452 220.377 209.452 220.3C209.452 220.198 209.491 220.108 209.569 220.031C209.647 219.955 209.738 219.916 209.841 219.916H210.853C211.125 219.916 211.281 220.025 211.32 220.242L213.304 230.143L215.406 223.351C215.522 223.044 215.73 222.89 216.028 222.89H216.748C216.917 222.89 217.046 222.935 217.137 223.025C217.241 223.114 217.312 223.223 217.351 223.351L219.472 230.143L221.437 220.242C221.476 220.025 221.638 219.916 221.923 219.916H222.935C223.039 219.916 223.129 219.955 223.207 220.031C223.285 220.108 223.324 220.198 223.324 220.3L223.304 220.511L220.795 232.83C220.717 233.175 220.516 233.348 220.192 233.348H219.433C219.096 233.348 218.882 233.188 218.791 232.868L216.378 225.557L213.985 232.868C213.882 233.188 213.668 233.348 213.343 233.348H212.585Z" fill="white"/>
<path d="M226.316 233.348C226.186 233.348 226.076 233.309 225.985 233.233C225.907 233.143 225.868 233.034 225.868 232.906V220.377C225.868 220.236 225.907 220.127 225.985 220.05C226.076 219.961 226.186 219.916 226.316 219.916H227.308C227.451 219.916 227.561 219.961 227.639 220.05C227.73 220.127 227.775 220.236 227.775 220.377V225.673H234.468V220.377C234.468 220.236 234.506 220.127 234.584 220.05C234.675 219.961 234.785 219.916 234.915 219.916H235.907C236.05 219.916 236.16 219.961 236.238 220.05C236.329 220.127 236.374 220.236 236.374 220.377V232.906C236.374 233.034 236.329 233.143 236.238 233.233C236.147 233.309 236.037 233.348 235.907 233.348H234.915C234.785 233.348 234.675 233.309 234.584 233.233C234.506 233.143 234.468 233.034 234.468 232.906V227.399H227.775V232.906C227.775 233.034 227.73 233.143 227.639 233.233C227.548 233.309 227.438 233.348 227.308 233.348H226.316Z" fill="white"/>
<path d="M240.204 233.348C240.075 233.348 239.964 233.309 239.873 233.233C239.796 233.143 239.757 233.034 239.757 232.906V220.358C239.757 220.23 239.796 220.127 239.873 220.05C239.964 219.961 240.075 219.916 240.204 219.916H241.235C241.365 219.916 241.469 219.961 241.547 220.05C241.637 220.127 241.683 220.23 241.683 220.358V232.906C241.683 233.034 241.637 233.143 241.547 233.233C241.469 233.309 241.365 233.348 241.235 233.348H240.204Z" fill="white"/>
<path d="M248.501 233.348C248.371 233.348 248.261 233.309 248.17 233.233C248.092 233.143 248.053 233.034 248.053 232.906V221.624H244.318C244.188 221.624 244.078 221.586 243.987 221.509C243.909 221.419 243.87 221.311 243.87 221.183V220.377C243.87 220.249 243.909 220.14 243.987 220.05C244.078 219.961 244.188 219.916 244.318 219.916H253.695C253.838 219.916 253.948 219.961 254.026 220.05C254.117 220.127 254.162 220.236 254.162 220.377V221.183C254.162 221.311 254.117 221.419 254.026 221.509C253.935 221.586 253.825 221.624 253.695 221.624H249.979V232.906C249.979 233.034 249.934 233.143 249.843 233.233C249.752 233.309 249.642 233.348 249.512 233.348H248.501Z" fill="white"/>
<path d="M256.791 233.348C256.661 233.348 256.551 233.309 256.46 233.233C256.382 233.143 256.343 233.034 256.343 232.906V220.377C256.343 220.236 256.382 220.127 256.46 220.05C256.551 219.961 256.661 219.916 256.791 219.916H264.826C264.955 219.916 265.059 219.961 265.137 220.05C265.228 220.127 265.273 220.236 265.273 220.377V221.106C265.273 221.234 265.234 221.342 265.156 221.432C265.079 221.509 264.968 221.547 264.826 221.547H258.211V225.749H264.398C264.527 225.749 264.631 225.794 264.709 225.884C264.8 225.96 264.845 226.069 264.845 226.21V226.92C264.845 227.048 264.8 227.156 264.709 227.246C264.631 227.323 264.527 227.361 264.398 227.361H258.211V231.717H264.981C265.124 231.717 265.234 231.755 265.312 231.832C265.39 231.909 265.429 232.017 265.429 232.158V232.906C265.429 233.034 265.383 233.143 265.293 233.233C265.215 233.309 265.111 233.348 264.981 233.348H256.791Z" fill="white"/>
<path d="M273.358 233.348C273.228 233.348 273.118 233.309 273.027 233.233C272.949 233.143 272.91 233.034 272.91 232.906V220.377C272.91 220.236 272.949 220.127 273.027 220.05C273.118 219.961 273.228 219.916 273.358 219.916H278.3C279.765 219.916 280.92 220.268 281.763 220.972C282.606 221.675 283.027 222.692 283.027 224.022C283.027 225.353 282.606 226.37 281.763 227.073C280.933 227.764 279.778 228.109 278.3 228.109H274.856V232.906C274.856 233.034 274.811 233.143 274.72 233.233C274.629 233.309 274.519 233.348 274.389 233.348H273.358ZM278.202 226.498C279.149 226.498 279.862 226.287 280.342 225.864C280.835 225.442 281.082 224.828 281.082 224.022C281.082 223.216 280.842 222.602 280.362 222.18C279.882 221.745 279.162 221.528 278.202 221.528H274.837V226.498H278.202Z" fill="white"/>
<path d="M283.7 233.348C283.596 233.348 283.505 233.309 283.427 233.233C283.349 233.156 283.311 233.066 283.311 232.964C283.311 232.862 283.317 232.791 283.33 232.753L288.155 220.338C288.259 220.057 288.466 219.916 288.777 219.916H290.1C290.412 219.916 290.619 220.057 290.723 220.338L295.528 232.753L295.567 232.964C295.567 233.066 295.528 233.156 295.451 233.233C295.373 233.309 295.282 233.348 295.178 233.348H294.186C294.043 233.348 293.933 233.316 293.855 233.252C293.777 233.175 293.726 233.098 293.7 233.021L292.63 230.297H286.248L285.178 233.021C285.152 233.098 285.094 233.175 285.003 233.252C284.925 233.316 284.822 233.348 284.692 233.348H283.7ZM292.065 228.647L289.439 221.835L286.812 228.647H292.065Z" fill="white"/>
<path d="M298.095 233.348C297.965 233.348 297.855 233.309 297.764 233.233C297.686 233.143 297.648 233.034 297.648 232.906V220.377C297.648 220.236 297.686 220.127 297.764 220.05C297.855 219.961 297.965 219.916 298.095 219.916H303.037C304.502 219.916 305.657 220.268 306.5 220.972C307.343 221.675 307.764 222.692 307.764 224.022C307.764 225.353 307.343 226.37 306.5 227.073C305.67 227.764 304.515 228.109 303.037 228.109H299.593V232.906C299.593 233.034 299.548 233.143 299.457 233.233C299.366 233.309 299.256 233.348 299.126 233.348H298.095ZM302.939 226.498C303.886 226.498 304.6 226.287 305.079 225.864C305.572 225.442 305.819 224.828 305.819 224.022C305.819 223.216 305.579 222.602 305.099 222.18C304.619 221.745 303.899 221.528 302.939 221.528H299.574V226.498H302.939Z" fill="white"/>
<path d="M310.577 233.348C310.448 233.348 310.338 233.309 310.247 233.233C310.169 233.143 310.13 233.034 310.13 232.906V220.377C310.13 220.236 310.169 220.127 310.247 220.05C310.338 219.961 310.448 219.916 310.577 219.916H318.613C318.742 219.916 318.846 219.961 318.924 220.05C319.015 220.127 319.06 220.236 319.06 220.377V221.106C319.06 221.234 319.021 221.342 318.943 221.432C318.865 221.509 318.755 221.547 318.613 221.547H311.998V225.749H318.184C318.314 225.749 318.418 225.794 318.496 225.884C318.587 225.96 318.632 226.069 318.632 226.21V226.92C318.632 227.048 318.587 227.156 318.496 227.246C318.418 227.323 318.314 227.361 318.184 227.361H311.998V231.717H318.768C318.911 231.717 319.021 231.755 319.099 231.832C319.177 231.909 319.216 232.017 319.216 232.158V232.906C319.216 233.034 319.17 233.143 319.079 233.233C319.002 233.309 318.898 233.348 318.768 233.348H310.577Z" fill="white"/>
<path d="M322.376 233.348C322.246 233.348 322.136 233.309 322.045 233.233C321.967 233.143 321.929 233.034 321.929 232.906V220.377C321.929 220.236 321.967 220.127 322.045 220.05C322.136 219.961 322.246 219.916 322.376 219.916H327.123C328.615 219.916 329.782 220.262 330.625 220.952C331.468 221.643 331.89 222.641 331.89 223.946C331.89 224.918 331.643 225.717 331.15 226.344C330.67 226.971 329.99 227.406 329.108 227.649L332.104 232.753C332.143 232.83 332.162 232.9 332.162 232.964C332.162 233.066 332.117 233.156 332.026 233.233C331.948 233.309 331.857 233.348 331.753 233.348H330.82C330.625 233.348 330.469 233.303 330.353 233.213C330.249 233.124 330.152 232.996 330.061 232.83L327.24 227.956H323.835V232.906C323.835 233.034 323.79 233.143 323.699 233.233C323.608 233.309 323.498 233.348 323.368 233.348H322.376ZM327.045 226.325C328.978 226.325 329.944 225.525 329.944 223.926C329.944 222.327 328.978 221.528 327.045 221.528H323.835V226.325H327.045Z" fill="white"/>
<path d="M247.49 285.14C247.348 285.14 247.227 285.098 247.128 285.015C247.043 284.918 247 284.8 247 284.661V283.995C247 283.676 247.178 283.371 247.533 283.08L252.051 278.669C253.145 277.782 253.898 277.061 254.31 276.506C254.722 275.937 254.928 275.341 254.928 274.717C254.928 273.912 254.693 273.281 254.224 272.823C253.77 272.366 253.102 272.137 252.221 272.137C251.397 272.137 250.737 272.38 250.239 272.865C249.742 273.337 249.437 273.968 249.323 274.758C249.294 274.925 249.223 275.049 249.11 275.133C249.01 275.202 248.897 275.237 248.769 275.237H247.661C247.533 275.237 247.426 275.202 247.341 275.133C247.256 275.049 247.213 274.952 247.213 274.841C247.242 274.092 247.448 273.378 247.831 272.699C248.215 272.005 248.776 271.443 249.515 271.013C250.268 270.57 251.17 270.348 252.221 270.348C253.827 270.348 255.034 270.757 255.844 271.575C256.668 272.38 257.08 273.406 257.08 274.654C257.08 275.528 256.853 276.319 256.398 277.026C255.958 277.719 255.269 278.468 254.331 279.273L250.239 283.33H256.888C257.045 283.33 257.165 283.378 257.251 283.475C257.35 283.558 257.4 283.669 257.4 283.808V284.661C257.4 284.8 257.35 284.918 257.251 285.015C257.151 285.098 257.03 285.14 256.888 285.14H247.49Z" fill="white"/>
<path d="M265.219 285.348C263.386 285.348 262.044 284.828 261.191 283.787C260.339 282.747 259.884 281.381 259.827 279.689C259.813 279.314 259.806 278.711 259.806 277.879C259.806 277.019 259.813 276.395 259.827 276.006C259.87 274.342 260.325 272.99 261.191 271.95C262.058 270.896 263.4 270.368 265.219 270.368C267.052 270.368 268.401 270.896 269.268 271.95C270.135 272.99 270.589 274.342 270.632 276.006C270.66 276.783 270.675 277.407 270.675 277.879C270.675 278.337 270.66 278.94 270.632 279.689C270.575 281.381 270.121 282.747 269.268 283.787C268.416 284.828 267.066 285.348 265.219 285.348ZM265.219 283.558C266.285 283.558 267.087 283.212 267.627 282.518C268.181 281.825 268.472 280.847 268.501 279.585C268.529 278.78 268.544 278.198 268.544 277.837C268.544 277.449 268.529 276.88 268.501 276.131C268.472 274.883 268.188 273.905 267.648 273.198C267.109 272.491 266.299 272.137 265.219 272.137C264.153 272.137 263.344 272.491 262.79 273.198C262.25 273.905 261.966 274.883 261.937 276.131L261.916 277.837L261.937 279.585C261.966 280.847 262.25 281.825 262.79 282.518C263.344 283.212 264.153 283.558 265.219 283.558Z" fill="white"/>
<path d="M273.525 285.14C273.383 285.14 273.262 285.098 273.163 285.015C273.078 284.918 273.035 284.8 273.035 284.661V283.995C273.035 283.676 273.213 283.371 273.568 283.08L278.086 278.669C279.18 277.782 279.933 277.061 280.345 276.506C280.757 275.937 280.963 275.341 280.963 274.717C280.963 273.912 280.728 273.281 280.26 272.823C279.805 272.366 279.137 272.137 278.256 272.137C277.432 272.137 276.772 272.38 276.274 272.865C275.777 273.337 275.472 273.968 275.358 274.758C275.33 274.925 275.259 275.049 275.145 275.133C275.045 275.202 274.932 275.237 274.804 275.237H273.696C273.568 275.237 273.461 275.202 273.376 275.133C273.291 275.049 273.248 274.952 273.248 274.841C273.277 274.092 273.483 273.378 273.866 272.699C274.25 272.005 274.811 271.443 275.55 271.013C276.303 270.57 277.205 270.348 278.256 270.348C279.862 270.348 281.069 270.757 281.879 271.575C282.703 272.38 283.115 273.406 283.115 274.654C283.115 275.528 282.888 276.319 282.433 277.026C281.993 277.719 281.304 278.468 280.366 279.273L276.274 283.33H282.923C283.08 283.33 283.2 283.378 283.286 283.475C283.385 283.558 283.435 283.669 283.435 283.808V284.661C283.435 284.8 283.385 284.918 283.286 285.015C283.186 285.098 283.065 285.14 282.923 285.14H273.525Z" fill="white"/>
<path d="M290.38 285.14C290.238 285.14 290.118 285.098 290.018 285.015C289.933 284.918 289.89 284.8 289.89 284.661V273.011L286.353 275.674C286.253 275.757 286.147 275.798 286.033 275.798C285.905 275.798 285.784 275.729 285.671 275.59L285.117 274.904C285.046 274.807 285.01 274.71 285.01 274.613C285.01 274.446 285.081 274.314 285.223 274.217L289.869 270.722C290.025 270.625 290.21 270.577 290.423 270.577H291.51C291.652 270.577 291.766 270.625 291.851 270.722C291.95 270.805 292 270.916 292 271.055V284.661C292 284.8 291.95 284.918 291.851 285.015C291.766 285.098 291.652 285.14 291.51 285.14H290.38Z" fill="white"/>
<path d="M269.752 141.757L282.523 70.0438C294.697 70.0438 298.537 71.3766 299.091 76.8166C299.091 76.8166 307.258 73.7765 311.377 67.6022C295.304 60.1662 279.154 59.8309 279.154 59.8309L269.73 71.2903L269.752 71.2889L260.328 59.8291C260.328 59.8291 244.178 60.1648 228.107 67.6007C232.222 73.775 240.392 76.8151 240.392 76.8151C240.95 71.3748 244.785 70.042 256.877 70.0334L269.752 141.757Z" fill="white"/>
<path d="M269.747 56.5209C282.739 56.4217 297.611 58.5276 312.835 65.1523C314.87 61.4958 315.393 59.8798 315.393 59.8798C298.751 53.3061 283.166 51.0564 269.745 51C256.325 51.0564 240.74 53.3065 224.1 59.8798C224.1 59.8798 224.842 61.8703 226.656 65.1523C241.877 58.5276 256.752 56.4217 269.745 56.5209H269.747" fill="white"/>
</g>
<defs>
<filter id="filter0_b" x="-10" y="-10" width="560" height="330" filterUnits="userSpaceOnUse" color-interpolation-filters="sRGB">
<feFlood flood-opacity="0" result="BackgroundImageFix"/>
<feGaussianBlur in="BackgroundImage" stdDeviation="5"/>
<feComposite in2="SourceAlpha" operator="in" result="effect1_backgroundBlur"/>
<feBlend mode="normal" in="SourceGraphic" in2="effect1_backgroundBlur" result="shape"/>
</filter>
<linearGradient id="paint0_linear" x1="26.242" y1="-70.5277" x2="26.242" y2="215.012" gradientUnits="userSpaceOnUse">
<stop stop-color="white"/>
<stop offset="1" stop-color="white" stop-opacity="0"/>
</linearGradient>
<linearGradient id="paint1_linear" x1="531.257" y1="-54.4374" x2="531.257" y2="92.9521" gradientUnits="userSpaceOnUse">
<stop stop-color="white"/>
<stop offset="1" stop-color="white" stop-opacity="0"/>
</linearGradient>
<linearGradient id="paint2_linear" x1="531.046" y1="160.085" x2="531.046" y2="410.007" gradientUnits="userSpaceOnUse">
<stop stop-color="white"/>
<stop offset="1" stop-color="white" stop-opacity="0"/>
</linearGradient>
<clipPath id="clip0">
<rect width="540" height="310" rx="16" fill="white"/>
</clipPath>
</defs>
</svg>
