<svg width="1131" height="72" viewBox="0 0 1131 72" fill="none" xmlns="http://www.w3.org/2000/svg">
<path d="M23.3707 71C22.704 71 22.104 70.7667 21.5707 70.3C21.104 69.7667 20.8707 69.1667 20.8707 68.5V16.7H3.07071C2.40404 16.7 1.80404 16.4667 1.27071 16C0.804043 15.4667 0.570709 14.8667 0.570709 14.2V3.5C0.570709 2.76667 0.804043 2.16667 1.27071 1.7C1.80404 1.23333 2.40404 0.999999 3.07071 0.999999H56.8707C57.604 0.999999 58.204 1.23333 58.6707 1.7C59.1374 2.16667 59.3707 2.76667 59.3707 3.5V14.2C59.3707 14.9333 59.1374 15.5333 58.6707 16C58.204 16.4667 57.604 16.7 56.8707 16.7H39.0707V68.5C39.0707 69.1667 38.8374 69.7667 38.3707 70.3C37.904 70.7667 37.304 71 36.5707 71H23.3707Z" fill="url(#paint0_linear)" fill-opacity="0.15"/>
<path d="M70.959 71C70.2923 71 69.6923 70.7667 69.159 70.3C68.6923 69.7667 68.459 69.1667 68.459 68.5V3.5C68.459 2.76667 68.6923 2.16667 69.159 1.7C69.6923 1.23333 70.2923 0.999999 70.959 0.999999H117.659C118.392 0.999999 118.992 1.23333 119.459 1.7C119.926 2.16667 120.159 2.76667 120.159 3.5V12.9C120.159 13.5667 119.926 14.1667 119.459 14.7C118.992 15.1667 118.392 15.4 117.659 15.4H85.759V28.9H115.459C116.192 28.9 116.792 29.1667 117.259 29.7C117.726 30.1667 117.959 30.7667 117.959 31.5V40.2C117.959 40.8667 117.726 41.4667 117.259 42C116.792 42.4667 116.192 42.7 115.459 42.7H85.759V56.6H118.459C119.192 56.6 119.792 56.8333 120.259 57.3C120.726 57.7667 120.959 58.3667 120.959 59.1V68.5C120.959 69.1667 120.726 69.7667 120.259 70.3C119.792 70.7667 119.192 71 118.459 71H70.959Z" fill="url(#paint1_linear)" fill-opacity="0.15"/>
<path d="M158.426 72C152.093 72 146.66 71.0667 142.126 69.2C137.593 67.3333 134.16 64.9 131.826 61.9C129.56 58.8333 128.36 55.5 128.226 51.9C128.226 51.3667 128.426 50.9 128.826 50.5C129.293 50.0333 129.826 49.8 130.426 49.8H143.026C143.826 49.8 144.46 49.9667 144.926 50.3C145.46 50.5667 145.993 51 146.526 51.6C147.393 53.3333 148.793 54.7667 150.726 55.9C152.66 57.0333 155.226 57.6 158.426 57.6C162.226 57.6 165.126 57 167.126 55.8C169.126 54.6 170.126 52.9667 170.126 50.9C170.126 49.4333 169.593 48.2333 168.526 47.3C167.526 46.3667 165.926 45.5333 163.726 44.8C161.526 44.0667 158.26 43.2333 153.926 42.3C145.926 40.6333 139.926 38.2 135.926 35C131.993 31.7333 130.026 27.1 130.026 21.1C130.026 17.0333 131.16 13.4 133.426 10.2C135.693 7 138.926 4.5 143.126 2.7C147.326 0.9 152.226 0 157.826 0C163.626 0 168.66 1 172.926 3C177.193 5 180.426 7.53333 182.626 10.6C184.893 13.6 186.093 16.5667 186.226 19.5C186.226 20.1 186.026 20.6 185.626 21C185.226 21.4 184.726 21.6 184.126 21.6H170.926C170.126 21.6 169.46 21.4667 168.926 21.2C168.46 20.9333 168.026 20.5 167.626 19.9C167.226 18.3667 166.126 17.0667 164.326 16C162.593 14.9333 160.426 14.4 157.826 14.4C154.826 14.4 152.526 14.9333 150.926 16C149.326 17.0667 148.526 18.6333 148.526 20.7C148.526 22.1 148.96 23.2667 149.826 24.2C150.76 25.1333 152.226 26 154.226 26.8C156.293 27.5333 159.226 28.3 163.026 29.1C169.226 30.2333 174.16 31.6667 177.826 33.4C181.56 35.0667 184.293 37.2667 186.026 40C187.76 42.6667 188.626 46.0333 188.626 50.1C188.626 54.5667 187.326 58.4667 184.726 61.8C182.193 65.0667 178.626 67.6 174.026 69.4C169.493 71.1333 164.293 72 158.426 72Z" fill="url(#paint2_linear)" fill-opacity="0.15"/>
<path d="M201.135 71C200.468 71 199.868 70.7667 199.335 70.3C198.868 69.7667 198.635 69.1667 198.635 68.5V3.5C198.635 2.76667 198.868 2.16667 199.335 1.7C199.868 1.23333 200.468 0.999999 201.135 0.999999H214.335C215.068 0.999999 215.668 1.23333 216.135 1.7C216.601 2.16667 216.835 2.76667 216.835 3.5V55.9H247.135C247.868 55.9 248.468 56.1667 248.935 56.7C249.401 57.1667 249.635 57.7667 249.635 58.5V68.5C249.635 69.1667 249.401 69.7667 248.935 70.3C248.468 70.7667 247.868 71 247.135 71H201.135Z" fill="url(#paint3_linear)" fill-opacity="0.15"/>
<path d="M254.303 71C253.769 71 253.269 70.8 252.803 70.4C252.403 69.9333 252.203 69.4333 252.203 68.9C252.203 68.5 252.236 68.2 252.303 68L275.803 3.8C276.003 3 276.436 2.33334 277.103 1.8C277.769 1.26667 278.636 0.999999 279.703 0.999999H294.503C295.569 0.999999 296.436 1.26667 297.103 1.8C297.769 2.33334 298.203 3 298.403 3.8L321.803 68L322.003 68.9C322.003 69.4333 321.769 69.9333 321.303 70.4C320.903 70.8 320.403 71 319.803 71H307.503C305.903 71 304.836 70.3 304.303 68.9L300.403 58.7H273.703L269.903 68.9C269.369 70.3 268.269 71 266.603 71H254.303ZM296.403 44.3L287.103 17.9L277.803 44.3H296.403Z" fill="url(#paint4_linear)" fill-opacity="0.15"/>
<path d="M377.335 72C367.801 72 360.335 69.7 354.935 65.1C349.601 60.4333 346.768 53.7 346.435 44.9C346.368 43.1 346.335 40.1667 346.335 36.1C346.335 31.9667 346.368 28.9667 346.435 27.1C346.768 18.4333 349.668 11.7667 355.135 7.1C360.601 2.36667 368.001 0 377.335 0C383.201 0 388.468 1 393.135 3C397.801 4.93334 401.468 7.73334 404.135 11.4C406.868 15 408.268 19.2333 408.335 24.1V24.3C408.335 24.8333 408.101 25.3 407.635 25.7C407.235 26.0333 406.768 26.2 406.235 26.2H392.735C391.868 26.2 391.201 26.0333 390.735 25.7C390.268 25.3 389.868 24.6 389.535 23.6C388.601 20.2 387.135 17.8333 385.135 16.5C383.135 15.1 380.501 14.4 377.235 14.4C369.368 14.4 365.301 18.8 365.035 27.6C364.968 29.4 364.935 32.1667 364.935 35.9C364.935 39.6333 364.968 42.4667 365.035 44.4C365.301 53.2 369.368 57.6 377.235 57.6C380.501 57.6 383.168 56.9 385.235 55.5C387.301 54.0333 388.735 51.6667 389.535 48.4C389.801 47.4 390.168 46.7333 390.635 46.4C391.101 46 391.801 45.8 392.735 45.8H406.235C406.835 45.8 407.335 46 407.735 46.4C408.201 46.8 408.401 47.3 408.335 47.9C408.268 52.7667 406.868 57.0333 404.135 60.7C401.468 64.3 397.801 67.1 393.135 69.1C388.468 71.0333 383.201 72 377.335 72Z" fill="url(#paint5_linear)" fill-opacity="0.15"/>
<path d="M447.45 72C438.05 72 430.65 69.7 425.25 65.1C419.85 60.5 416.983 53.7333 416.65 44.8C416.583 42.8667 416.55 40 416.55 36.2C416.55 32.3333 416.583 29.4333 416.65 27.5C416.983 18.7 419.883 11.9333 425.35 7.2C430.883 2.4 438.25 0 447.45 0C456.65 0 464.016 2.4 469.55 7.2C475.083 11.9333 477.983 18.7 478.25 27.5C478.383 31.3667 478.45 34.2667 478.45 36.2C478.45 38.0667 478.383 40.9333 478.25 44.8C477.916 53.7333 475.05 60.5 469.65 65.1C464.25 69.7 456.85 72 447.45 72ZM447.45 57.6C451.116 57.6 454.016 56.5 456.15 54.3C458.35 52.1 459.516 48.7333 459.65 44.2C459.783 40.3333 459.85 37.6 459.85 36C459.85 34.2667 459.783 31.5333 459.65 27.8C459.516 23.2667 458.35 19.9 456.15 17.7C453.95 15.5 451.05 14.4 447.45 14.4C443.85 14.4 440.95 15.5 438.75 17.7C436.616 19.9 435.45 23.2667 435.25 27.8C435.183 29.6667 435.15 32.4 435.15 36C435.15 39.5333 435.183 42.2667 435.25 44.2C435.45 48.7333 436.616 52.1 438.75 54.3C440.883 56.5 443.783 57.6 447.45 57.6Z" fill="url(#paint6_linear)" fill-opacity="0.15"/>
<path d="M492.541 71C491.874 71 491.274 70.7667 490.741 70.3C490.274 69.7667 490.041 69.1667 490.041 68.5V3.5C490.041 2.76667 490.274 2.16667 490.741 1.7C491.274 1.23333 491.874 0.999999 492.541 0.999999H505.941C506.674 0.999999 507.274 1.23333 507.741 1.7C508.274 2.16667 508.541 2.76667 508.541 3.5V68.5C508.541 69.2333 508.274 69.8333 507.741 70.3C507.274 70.7667 506.674 71 505.941 71H492.541Z" fill="url(#paint7_linear)" fill-opacity="0.15"/>
<path d="M524.963 71C524.296 71 523.696 70.7667 523.163 70.3C522.696 69.7667 522.463 69.1667 522.463 68.5V3.5C522.463 2.76667 522.696 2.16667 523.163 1.7C523.696 1.23333 524.296 0.999999 524.963 0.999999H535.563C537.23 0.999999 538.363 1.63333 538.963 2.9L563.363 41.3V3.5C563.363 2.76667 563.596 2.16667 564.063 1.7C564.596 1.23333 565.196 0.999999 565.863 0.999999H577.863C578.596 0.999999 579.196 1.23333 579.663 1.7C580.13 2.16667 580.363 2.76667 580.363 3.5V68.4C580.363 69.1333 580.13 69.7667 579.663 70.3C579.196 70.7667 578.596 71 577.863 71H567.163C565.696 71 564.596 70.3667 563.863 69.1L539.463 32.1V68.5C539.463 69.1667 539.23 69.7667 538.763 70.3C538.296 70.7667 537.696 71 536.963 71H524.963Z" fill="url(#paint8_linear)" fill-opacity="0.15"/>
<path d="M618.127 71C617.46 71 616.86 70.7667 616.327 70.3C615.86 69.7667 615.627 69.1667 615.627 68.5V3.5C615.627 2.76667 615.86 2.16667 616.327 1.7C616.86 1.23333 617.46 0.999999 618.127 0.999999H664.127C664.86 0.999999 665.46 1.23333 665.927 1.7C666.394 2.16667 666.627 2.76667 666.627 3.5V13.6C666.627 14.2667 666.394 14.8667 665.927 15.4C665.46 15.8667 664.86 16.1 664.127 16.1H633.227V30.8H662.127C662.86 30.8 663.46 31.0667 663.927 31.6C664.394 32.0667 664.627 32.6667 664.627 33.4V43.4C664.627 44.0667 664.394 44.6667 663.927 45.2C663.46 45.6667 662.86 45.9 662.127 45.9H633.227V68.5C633.227 69.2333 632.994 69.8333 632.527 70.3C632.06 70.7667 631.46 71 630.727 71H618.127Z" fill="url(#paint9_linear)" fill-opacity="0.15"/>
<path d="M679.943 71C679.277 71 678.677 70.7667 678.143 70.3C677.677 69.7667 677.443 69.1667 677.443 68.5V3.5C677.443 2.76667 677.677 2.16667 678.143 1.7C678.677 1.23333 679.277 0.999999 679.943 0.999999H726.643C727.377 0.999999 727.977 1.23333 728.443 1.7C728.91 2.16667 729.143 2.76667 729.143 3.5V12.9C729.143 13.5667 728.91 14.1667 728.443 14.7C727.977 15.1667 727.377 15.4 726.643 15.4H694.743V28.9H724.443C725.177 28.9 725.777 29.1667 726.243 29.7C726.71 30.1667 726.943 30.7667 726.943 31.5V40.2C726.943 40.8667 726.71 41.4667 726.243 42C725.777 42.4667 725.177 42.7 724.443 42.7H694.743V56.6H727.443C728.177 56.6 728.777 56.8333 729.243 57.3C729.71 57.7667 729.943 58.3667 729.943 59.1V68.5C729.943 69.1667 729.71 69.7667 729.243 70.3C728.777 70.7667 728.177 71 727.443 71H679.943Z" fill="url(#paint10_linear)" fill-opacity="0.15"/>
<path d="M737.311 71C736.777 71 736.277 70.8 735.811 70.4C735.411 69.9333 735.211 69.4333 735.211 68.9C735.211 68.5 735.244 68.2 735.311 68L758.811 3.8C759.011 3 759.444 2.33334 760.111 1.8C760.777 1.26667 761.644 0.999999 762.711 0.999999H777.511C778.577 0.999999 779.444 1.26667 780.111 1.8C780.777 2.33334 781.211 3 781.411 3.8L804.811 68L805.011 68.9C805.011 69.4333 804.777 69.9333 804.311 70.4C803.911 70.8 803.411 71 802.811 71H790.511C788.911 71 787.844 70.3 787.311 68.9L783.411 58.7H756.711L752.911 68.9C752.377 70.3 751.277 71 749.611 71H737.311ZM779.411 44.3L770.111 17.9L760.811 44.3H779.411Z" fill="url(#paint11_linear)" fill-opacity="0.15"/>
<path d="M823.664 71C822.997 71 822.397 70.7667 821.864 70.3C821.397 69.7667 821.164 69.1667 821.164 68.5V16.7H803.364C802.697 16.7 802.097 16.4667 801.564 16C801.097 15.4667 800.864 14.8667 800.864 14.2V3.5C800.864 2.76667 801.097 2.16667 801.564 1.7C802.097 1.23333 802.697 0.999999 803.364 0.999999H857.164C857.897 0.999999 858.497 1.23333 858.964 1.7C859.43 2.16667 859.664 2.76667 859.664 3.5V14.2C859.664 14.9333 859.43 15.5333 858.964 16C858.497 16.4667 857.897 16.7 857.164 16.7H839.364V68.5C839.364 69.1667 839.13 69.7667 838.664 70.3C838.197 70.7667 837.597 71 836.864 71H823.664Z" fill="url(#paint12_linear)" fill-opacity="0.15"/>
<path d="M898.152 72C888.752 72 881.385 69.7 876.052 65.1C870.785 60.5 868.152 53.5667 868.152 44.3V3.5C868.152 2.76667 868.385 2.16667 868.852 1.7C869.385 1.23333 869.985 0.999999 870.652 0.999999H883.552C884.285 0.999999 884.885 1.23333 885.352 1.7C885.885 2.16667 886.152 2.76667 886.152 3.5V44.2C886.152 48.5333 887.152 51.8 889.152 54C891.219 56.1333 894.185 57.2 898.052 57.2C901.852 57.2 904.785 56.1 906.852 53.9C908.919 51.7 909.952 48.4667 909.952 44.2V3.5C909.952 2.76667 910.185 2.16667 910.652 1.7C911.185 1.23333 911.785 0.999999 912.452 0.999999H925.452C926.185 0.999999 926.785 1.23333 927.252 1.7C927.719 2.16667 927.952 2.76667 927.952 3.5V44.3C927.952 53.5667 925.285 60.5 919.952 65.1C914.685 69.7 907.419 72 898.152 72Z" fill="url(#paint13_linear)" fill-opacity="0.15"/>
<path d="M943.713 71C943.046 71 942.446 70.7667 941.913 70.3C941.446 69.7667 941.213 69.1667 941.213 68.5V3.5C941.213 2.76667 941.446 2.16667 941.913 1.7C942.446 1.23333 943.046 0.999999 943.713 0.999999H970.913C979.646 0.999999 986.446 3 991.313 7C996.246 10.9333 998.713 16.5333 998.713 23.8C998.713 28.4667 997.613 32.4333 995.413 35.7C993.213 38.9667 990.18 41.4667 986.313 43.2L1000.01 67.8C1000.21 68.2 1000.31 68.5667 1000.31 68.9C1000.31 69.4333 1000.08 69.9333 999.613 70.4C999.213 70.8 998.746 71 998.213 71H984.913C982.98 71 981.613 70.1 980.813 68.3L969.413 46.3H959.213V68.5C959.213 69.2333 958.946 69.8333 958.413 70.3C957.946 70.7667 957.346 71 956.613 71H943.713ZM970.713 32.1C973.78 32.1 976.113 31.3667 977.713 29.9C979.313 28.3667 980.113 26.2667 980.113 23.6C980.113 20.9333 979.313 18.8333 977.713 17.3C976.18 15.7 973.846 14.9 970.713 14.9H959.213V32.1H970.713Z" fill="url(#paint14_linear)" fill-opacity="0.15"/>
<path d="M1012.85 71C1012.19 71 1011.59 70.7667 1011.05 70.3C1010.59 69.7667 1010.35 69.1667 1010.35 68.5V3.5C1010.35 2.76667 1010.59 2.16667 1011.05 1.7C1011.59 1.23333 1012.19 0.999999 1012.85 0.999999H1059.55C1060.29 0.999999 1060.89 1.23333 1061.35 1.7C1061.82 2.16667 1062.05 2.76667 1062.05 3.5V12.9C1062.05 13.5667 1061.82 14.1667 1061.35 14.7C1060.89 15.1667 1060.29 15.4 1059.55 15.4H1027.65V28.9H1057.35C1058.09 28.9 1058.69 29.1667 1059.15 29.7C1059.62 30.1667 1059.85 30.7667 1059.85 31.5V40.2C1059.85 40.8667 1059.62 41.4667 1059.15 42C1058.69 42.4667 1058.09 42.7 1057.35 42.7H1027.65V56.6H1060.35C1061.09 56.6 1061.69 56.8333 1062.15 57.3C1062.62 57.7667 1062.85 58.3667 1062.85 59.1V68.5C1062.85 69.1667 1062.62 69.7667 1062.15 70.3C1061.69 70.7667 1061.09 71 1060.35 71H1012.85Z" fill="url(#paint15_linear)" fill-opacity="0.15"/>
<path d="M1100.32 72C1093.99 72 1088.55 71.0667 1084.02 69.2C1079.49 67.3333 1076.05 64.9 1073.72 61.9C1071.45 58.8333 1070.25 55.5 1070.12 51.9C1070.12 51.3667 1070.32 50.9 1070.72 50.5C1071.19 50.0333 1071.72 49.8 1072.32 49.8H1084.92C1085.72 49.8 1086.35 49.9667 1086.82 50.3C1087.35 50.5667 1087.89 51 1088.42 51.6C1089.29 53.3333 1090.69 54.7667 1092.62 55.9C1094.55 57.0333 1097.12 57.6 1100.32 57.6C1104.12 57.6 1107.02 57 1109.02 55.8C1111.02 54.6 1112.02 52.9667 1112.02 50.9C1112.02 49.4333 1111.49 48.2333 1110.42 47.3C1109.42 46.3667 1107.82 45.5333 1105.62 44.8C1103.42 44.0667 1100.15 43.2333 1095.82 42.3C1087.82 40.6333 1081.82 38.2 1077.82 35C1073.89 31.7333 1071.92 27.1 1071.92 21.1C1071.92 17.0333 1073.05 13.4 1075.32 10.2C1077.59 7 1080.82 4.5 1085.02 2.7C1089.22 0.9 1094.12 0 1099.72 0C1105.52 0 1110.55 1 1114.82 3C1119.09 5 1122.32 7.53333 1124.52 10.6C1126.79 13.6 1127.99 16.5667 1128.12 19.5C1128.12 20.1 1127.92 20.6 1127.52 21C1127.12 21.4 1126.62 21.6 1126.02 21.6H1112.82C1112.02 21.6 1111.35 21.4667 1110.82 21.2C1110.35 20.9333 1109.92 20.5 1109.52 19.9C1109.12 18.3667 1108.02 17.0667 1106.22 16C1104.49 14.9333 1102.32 14.4 1099.72 14.4C1096.72 14.4 1094.42 14.9333 1092.82 16C1091.22 17.0667 1090.42 18.6333 1090.42 20.7C1090.42 22.1 1090.85 23.2667 1091.72 24.2C1092.65 25.1333 1094.12 26 1096.12 26.8C1098.19 27.5333 1101.12 28.3 1104.92 29.1C1111.12 30.2333 1116.05 31.6667 1119.72 33.4C1123.45 35.0667 1126.19 37.2667 1127.92 40C1129.65 42.6667 1130.52 46.0333 1130.52 50.1C1130.52 54.5667 1129.22 58.4667 1126.62 61.8C1124.09 65.0667 1120.52 67.6 1115.92 69.4C1111.39 71.1333 1106.19 72 1100.32 72Z" fill="url(#paint16_linear)" fill-opacity="0.15"/>
<defs>
<linearGradient id="paint0_linear" x1="566" y1="-12.9907" x2="566" y2="70.4206" gradientUnits="userSpaceOnUse">
<stop stop-color="#E82127"/>
<stop offset="1" stop-color="#E82127" stop-opacity="0"/>
</linearGradient>
<linearGradient id="paint1_linear" x1="566" y1="-12.9907" x2="566" y2="70.4206" gradientUnits="userSpaceOnUse">
<stop stop-color="#E82127"/>
<stop offset="1" stop-color="#E82127" stop-opacity="0"/>
</linearGradient>
<linearGradient id="paint2_linear" x1="566" y1="-12.9907" x2="566" y2="70.4206" gradientUnits="userSpaceOnUse">
<stop stop-color="#E82127"/>
<stop offset="1" stop-color="#E82127" stop-opacity="0"/>
</linearGradient>
<linearGradient id="paint3_linear" x1="566" y1="-12.9907" x2="566" y2="70.4206" gradientUnits="userSpaceOnUse">
<stop stop-color="#E82127"/>
<stop offset="1" stop-color="#E82127" stop-opacity="0"/>
</linearGradient>
<linearGradient id="paint4_linear" x1="566" y1="-12.9907" x2="566" y2="70.4206" gradientUnits="userSpaceOnUse">
<stop stop-color="#E82127"/>
<stop offset="1" stop-color="#E82127" stop-opacity="0"/>
</linearGradient>
<linearGradient id="paint5_linear" x1="566" y1="-12.9907" x2="566" y2="70.4206" gradientUnits="userSpaceOnUse">
<stop stop-color="#E82127"/>
<stop offset="1" stop-color="#E82127" stop-opacity="0"/>
</linearGradient>
<linearGradient id="paint6_linear" x1="566" y1="-12.9907" x2="566" y2="70.4206" gradientUnits="userSpaceOnUse">
<stop stop-color="#E82127"/>
<stop offset="1" stop-color="#E82127" stop-opacity="0"/>
</linearGradient>
<linearGradient id="paint7_linear" x1="566" y1="-12.9907" x2="566" y2="70.4206" gradientUnits="userSpaceOnUse">
<stop stop-color="#E82127"/>
<stop offset="1" stop-color="#E82127" stop-opacity="0"/>
</linearGradient>
<linearGradient id="paint8_linear" x1="566" y1="-12.9907" x2="566" y2="70.4206" gradientUnits="userSpaceOnUse">
<stop stop-color="#E82127"/>
<stop offset="1" stop-color="#E82127" stop-opacity="0"/>
</linearGradient>
<linearGradient id="paint9_linear" x1="566" y1="-12.9907" x2="566" y2="70.4206" gradientUnits="userSpaceOnUse">
<stop stop-color="#E82127"/>
<stop offset="1" stop-color="#E82127" stop-opacity="0"/>
</linearGradient>
<linearGradient id="paint10_linear" x1="566" y1="-12.9907" x2="566" y2="70.4206" gradientUnits="userSpaceOnUse">
<stop stop-color="#E82127"/>
<stop offset="1" stop-color="#E82127" stop-opacity="0"/>
</linearGradient>
<linearGradient id="paint11_linear" x1="566" y1="-12.9907" x2="566" y2="70.4206" gradientUnits="userSpaceOnUse">
<stop stop-color="#E82127"/>
<stop offset="1" stop-color="#E82127" stop-opacity="0"/>
</linearGradient>
<linearGradient id="paint12_linear" x1="566" y1="-12.9907" x2="566" y2="70.4206" gradientUnits="userSpaceOnUse">
<stop stop-color="#E82127"/>
<stop offset="1" stop-color="#E82127" stop-opacity="0"/>
</linearGradient>
<linearGradient id="paint13_linear" x1="566" y1="-12.9907" x2="566" y2="70.4206" gradientUnits="userSpaceOnUse">
<stop stop-color="#E82127"/>
<stop offset="1" stop-color="#E82127" stop-opacity="0"/>
</linearGradient>
<linearGradient id="paint14_linear" x1="566" y1="-12.9907" x2="566" y2="70.4206" gradientUnits="userSpaceOnUse">
<stop stop-color="#E82127"/>
<stop offset="1" stop-color="#E82127" stop-opacity="0"/>
</linearGradient>
<linearGradient id="paint15_linear" x1="566" y1="-12.9907" x2="566" y2="70.4206" gradientUnits="userSpaceOnUse">
<stop stop-color="#E82127"/>
<stop offset="1" stop-color="#E82127" stop-opacity="0"/>
</linearGradient>
<linearGradient id="paint16_linear" x1="566" y1="-12.9907" x2="566" y2="70.4206" gradientUnits="userSpaceOnUse">
<stop stop-color="#E82127"/>
<stop offset="1" stop-color="#E82127" stop-opacity="0"/>
</linearGradient>
</defs>
</svg>
