<svg width="843" height="72" viewBox="0 0 843 72" fill="none" xmlns="http://www.w3.org/2000/svg">
<path d="M22.9625 71C22.2958 71 21.6958 70.7667 21.1625 70.3C20.6958 69.7667 20.4625 69.1667 20.4625 68.5V16.7H2.66248C1.99581 16.7 1.39581 16.4667 0.862476 16C0.395809 15.4667 0.162476 14.8667 0.162476 14.2V3.5C0.162476 2.76667 0.395809 2.16667 0.862476 1.7C1.39581 1.23333 1.99581 0.999999 2.66248 0.999999H56.4625C57.1958 0.999999 57.7958 1.23333 58.2625 1.7C58.7291 2.16667 58.9625 2.76667 58.9625 3.5V14.2C58.9625 14.9333 58.7291 15.5333 58.2625 16C57.7958 16.4667 57.1958 16.7 56.4625 16.7H38.6625V68.5C38.6625 69.1667 38.4291 69.7667 37.9625 70.3C37.4958 70.7667 36.8958 71 36.1625 71H22.9625Z" fill="url(#paint0_linear)" fill-opacity="0.15"/>
<path d="M70.5508 71C69.8841 71 69.2841 70.7667 68.7508 70.3C68.2841 69.7667 68.0508 69.1667 68.0508 68.5V3.5C68.0508 2.76667 68.2841 2.16667 68.7508 1.7C69.2841 1.23333 69.8841 0.999999 70.5508 0.999999H117.251C117.984 0.999999 118.584 1.23333 119.051 1.7C119.517 2.16667 119.751 2.76667 119.751 3.5V12.9C119.751 13.5667 119.517 14.1667 119.051 14.7C118.584 15.1667 117.984 15.4 117.251 15.4H85.3508V28.9H115.051C115.784 28.9 116.384 29.1667 116.851 29.7C117.317 30.1667 117.551 30.7667 117.551 31.5V40.2C117.551 40.8667 117.317 41.4667 116.851 42C116.384 42.4667 115.784 42.7 115.051 42.7H85.3508V56.6H118.051C118.784 56.6 119.384 56.8333 119.851 57.3C120.317 57.7667 120.551 58.3667 120.551 59.1V68.5C120.551 69.1667 120.317 69.7667 119.851 70.3C119.384 70.7667 118.784 71 118.051 71H70.5508Z" fill="url(#paint1_linear)" fill-opacity="0.15"/>
<path d="M158.018 72C151.685 72 146.251 71.0667 141.718 69.2C137.185 67.3333 133.751 64.9 131.418 61.9C129.151 58.8333 127.951 55.5 127.818 51.9C127.818 51.3667 128.018 50.9 128.418 50.5C128.885 50.0333 129.418 49.8 130.018 49.8H142.618C143.418 49.8 144.051 49.9667 144.518 50.3C145.051 50.5667 145.585 51 146.118 51.6C146.985 53.3333 148.385 54.7667 150.318 55.9C152.251 57.0333 154.818 57.6 158.018 57.6C161.818 57.6 164.718 57 166.718 55.8C168.718 54.6 169.718 52.9667 169.718 50.9C169.718 49.4333 169.185 48.2333 168.118 47.3C167.118 46.3667 165.518 45.5333 163.318 44.8C161.118 44.0667 157.851 43.2333 153.518 42.3C145.518 40.6333 139.518 38.2 135.518 35C131.585 31.7333 129.618 27.1 129.618 21.1C129.618 17.0333 130.751 13.4 133.018 10.2C135.285 7 138.518 4.5 142.718 2.7C146.918 0.9 151.818 0 157.418 0C163.218 0 168.251 1 172.518 3C176.785 5 180.018 7.53333 182.218 10.6C184.485 13.6 185.685 16.5667 185.818 19.5C185.818 20.1 185.618 20.6 185.218 21C184.818 21.4 184.318 21.6 183.718 21.6H170.518C169.718 21.6 169.051 21.4667 168.518 21.2C168.051 20.9333 167.618 20.5 167.218 19.9C166.818 18.3667 165.718 17.0667 163.918 16C162.185 14.9333 160.018 14.4 157.418 14.4C154.418 14.4 152.118 14.9333 150.518 16C148.918 17.0667 148.118 18.6333 148.118 20.7C148.118 22.1 148.551 23.2667 149.418 24.2C150.351 25.1333 151.818 26 153.818 26.8C155.885 27.5333 158.818 28.3 162.618 29.1C168.818 30.2333 173.751 31.6667 177.418 33.4C181.151 35.0667 183.885 37.2667 185.618 40C187.351 42.6667 188.218 46.0333 188.218 50.1C188.218 54.5667 186.918 58.4667 184.318 61.8C181.785 65.0667 178.218 67.6 173.618 69.4C169.085 71.1333 163.885 72 158.018 72Z" fill="url(#paint2_linear)" fill-opacity="0.15"/>
<path d="M200.727 71C200.06 71 199.46 70.7667 198.927 70.3C198.46 69.7667 198.227 69.1667 198.227 68.5V3.5C198.227 2.76667 198.46 2.16667 198.927 1.7C199.46 1.23333 200.06 0.999999 200.727 0.999999H213.927C214.66 0.999999 215.26 1.23333 215.727 1.7C216.193 2.16667 216.427 2.76667 216.427 3.5V55.9H246.727C247.46 55.9 248.06 56.1667 248.527 56.7C248.993 57.1667 249.227 57.7667 249.227 58.5V68.5C249.227 69.1667 248.993 69.7667 248.527 70.3C248.06 70.7667 247.46 71 246.727 71H200.727Z" fill="url(#paint3_linear)" fill-opacity="0.15"/>
<path d="M253.895 71C253.361 71 252.861 70.8 252.395 70.4C251.995 69.9333 251.795 69.4333 251.795 68.9C251.795 68.5 251.828 68.2 251.895 68L275.395 3.8C275.595 3 276.028 2.33334 276.695 1.8C277.361 1.26667 278.228 0.999999 279.294 0.999999H294.095C295.161 0.999999 296.028 1.26667 296.695 1.8C297.361 2.33334 297.795 3 297.995 3.8L321.395 68L321.595 68.9C321.595 69.4333 321.361 69.9333 320.895 70.4C320.494 70.8 319.994 71 319.395 71H307.095C305.495 71 304.428 70.3 303.895 68.9L299.995 58.7H273.294L269.495 68.9C268.961 70.3 267.861 71 266.195 71H253.895ZM295.995 44.3L286.695 17.9L277.395 44.3H295.995Z" fill="url(#paint4_linear)" fill-opacity="0.15"/>
<path d="M350.727 71C350.06 71 349.46 70.7667 348.927 70.3C348.46 69.7667 348.227 69.1667 348.227 68.5V3.5C348.227 2.76667 348.46 2.16667 348.927 1.7C349.46 1.23333 350.06 0.999999 350.727 0.999999H377.927C386.66 0.999999 393.46 3 398.327 7C403.26 10.9333 405.727 16.5333 405.727 23.8C405.727 28.4667 404.627 32.4333 402.427 35.7C400.227 38.9667 397.193 41.4667 393.327 43.2L407.027 67.8C407.227 68.2 407.327 68.5667 407.327 68.9C407.327 69.4333 407.093 69.9333 406.627 70.4C406.227 70.8 405.76 71 405.227 71H391.927C389.993 71 388.627 70.1 387.827 68.3L376.427 46.3H366.227V68.5C366.227 69.2333 365.96 69.8333 365.427 70.3C364.96 70.7667 364.36 71 363.627 71H350.727ZM377.727 32.1C380.793 32.1 383.127 31.3667 384.727 29.9C386.327 28.3667 387.127 26.2667 387.127 23.6C387.127 20.9333 386.327 18.8333 384.727 17.3C383.193 15.7 380.86 14.9 377.727 14.9H366.227V32.1H377.727Z" fill="url(#paint5_linear)" fill-opacity="0.15"/>
<path d="M445.674 72C436.274 72 428.874 69.7 423.474 65.1C418.074 60.5 415.208 53.7333 414.874 44.8C414.808 42.8667 414.774 40 414.774 36.2C414.774 32.3333 414.808 29.4333 414.874 27.5C415.208 18.7 418.108 11.9333 423.574 7.2C429.108 2.4 436.474 0 445.674 0C454.874 0 462.241 2.4 467.774 7.2C473.308 11.9333 476.208 18.7 476.474 27.5C476.608 31.3667 476.674 34.2667 476.674 36.2C476.674 38.0667 476.608 40.9333 476.474 44.8C476.141 53.7333 473.274 60.5 467.874 65.1C462.474 69.7 455.074 72 445.674 72ZM445.674 57.6C449.341 57.6 452.241 56.5 454.374 54.3C456.574 52.1 457.741 48.7333 457.874 44.2C458.008 40.3333 458.074 37.6 458.074 36C458.074 34.2667 458.008 31.5333 457.874 27.8C457.741 23.2667 456.574 19.9 454.374 17.7C452.174 15.5 449.274 14.4 445.674 14.4C442.074 14.4 439.174 15.5 436.974 17.7C434.841 19.9 433.674 23.2667 433.474 27.8C433.408 29.6667 433.374 32.4 433.374 36C433.374 39.5333 433.408 42.2667 433.474 44.2C433.674 48.7333 434.841 52.1 436.974 54.3C439.108 56.5 442.008 57.6 445.674 57.6Z" fill="url(#paint6_linear)" fill-opacity="0.15"/>
<path d="M482.801 71C482.267 71 481.767 70.8 481.301 70.4C480.901 69.9333 480.701 69.4333 480.701 68.9C480.701 68.5 480.734 68.2 480.801 68L504.301 3.8C504.501 3 504.934 2.33334 505.601 1.8C506.267 1.26667 507.134 0.999999 508.201 0.999999H523.001C524.067 0.999999 524.934 1.26667 525.601 1.8C526.267 2.33334 526.701 3 526.901 3.8L550.301 68L550.501 68.9C550.501 69.4333 550.267 69.9333 549.801 70.4C549.401 70.8 548.901 71 548.301 71H536.001C534.401 71 533.334 70.3 532.801 68.9L528.901 58.7H502.201L498.401 68.9C497.867 70.3 496.767 71 495.101 71H482.801ZM524.901 44.3L515.601 17.9L506.301 44.3H524.901Z" fill="url(#paint7_linear)" fill-opacity="0.15"/>
<path d="M560.883 71C560.216 71 559.616 70.7667 559.083 70.3C558.616 69.7667 558.383 69.1667 558.383 68.5V3.5C558.383 2.76667 558.616 2.16667 559.083 1.7C559.616 1.23333 560.216 0.999999 560.883 0.999999H586.883C596.683 0.999999 604.283 3.33333 609.683 8C615.083 12.6667 617.916 19.4333 618.183 28.3C618.249 30.2333 618.283 32.8 618.283 36C618.283 39.2 618.249 41.7333 618.183 43.6C617.849 52.8667 615.083 59.7667 609.883 64.3C604.749 68.7667 597.249 71 587.383 71H560.883ZM586.883 56.6C591.283 56.6 594.516 55.5667 596.583 53.5C598.649 51.3667 599.749 48 599.883 43.4C600.016 41.4667 600.083 38.9667 600.083 35.9C600.083 32.8333 600.016 30.3667 599.883 28.5C599.749 24.0333 598.549 20.7333 596.283 18.6C594.083 16.4667 590.783 15.4 586.383 15.4H576.383V56.6H586.883Z" fill="url(#paint8_linear)" fill-opacity="0.15"/>
<path d="M632.465 71C631.798 71 631.198 70.7667 630.665 70.3C630.198 69.7667 629.965 69.1667 629.965 68.5V3.5C629.965 2.76667 630.198 2.16667 630.665 1.7C631.198 1.23333 631.798 0.999999 632.465 0.999999H643.265C644.865 0.999999 646.031 1.73333 646.765 3.2L664.365 34.7L681.965 3.2C682.698 1.73333 683.865 0.999999 685.465 0.999999H696.165C696.898 0.999999 697.498 1.23333 697.965 1.7C698.498 2.16667 698.765 2.76667 698.765 3.5V68.5C698.765 69.2333 698.498 69.8333 697.965 70.3C697.498 70.7667 696.898 71 696.165 71H684.265C683.531 71 682.898 70.7667 682.365 70.3C681.898 69.8333 681.665 69.2333 681.665 68.5V31L670.465 51.9C669.598 53.4333 668.432 54.2 666.965 54.2H661.765C660.898 54.2 660.198 54 659.665 53.6C659.131 53.2 658.665 52.6333 658.265 51.9L646.965 31V68.5C646.965 69.1667 646.731 69.7667 646.265 70.3C645.798 70.7667 645.198 71 644.465 71H632.465Z" fill="url(#paint9_linear)" fill-opacity="0.15"/>
<path d="M708.777 71C708.244 71 707.744 70.8 707.277 70.4C706.877 69.9333 706.677 69.4333 706.677 68.9C706.677 68.5 706.711 68.2 706.777 68L730.277 3.8C730.477 3 730.911 2.33334 731.577 1.8C732.244 1.26667 733.111 0.999999 734.177 0.999999H748.977C750.044 0.999999 750.911 1.26667 751.577 1.8C752.244 2.33334 752.677 3 752.877 3.8L776.277 68L776.477 68.9C776.477 69.4333 776.244 69.9333 775.777 70.4C775.377 70.8 774.877 71 774.277 71H761.977C760.377 71 759.311 70.3 758.777 68.9L754.877 58.7H728.177L724.377 68.9C723.844 70.3 722.744 71 721.077 71H708.777ZM750.877 44.3L741.577 17.9L732.277 44.3H750.877Z" fill="url(#paint10_linear)" fill-opacity="0.15"/>
<path d="M786.859 71C786.193 71 785.593 70.7667 785.059 70.3C784.593 69.7667 784.359 69.1667 784.359 68.5V3.5C784.359 2.76667 784.593 2.16667 785.059 1.7C785.593 1.23333 786.193 0.999999 786.859 0.999999H814.859C823.393 0.999999 830.093 2.96667 834.959 6.9C839.893 10.8333 842.359 16.5667 842.359 24.1C842.359 31.5667 839.926 37.2 835.059 41C830.193 44.7333 823.459 46.6 814.859 46.6H802.959V68.5C802.959 69.2333 802.693 69.8333 802.159 70.3C801.693 70.7667 801.093 71 800.359 71H786.859ZM814.359 32.8C817.293 32.8 819.593 32.0667 821.259 30.6C822.926 29.0667 823.759 26.8333 823.759 23.9C823.759 21.1667 822.959 19 821.359 17.4C819.826 15.7333 817.493 14.9 814.359 14.9H802.659V32.8H814.359Z" fill="url(#paint11_linear)" fill-opacity="0.15"/>
<defs>
<linearGradient id="paint0_linear" x1="421.5" y1="-12.9907" x2="421.5" y2="70.4206" gradientUnits="userSpaceOnUse">
<stop stop-color="#E82127"/>
<stop offset="1" stop-color="#E82127" stop-opacity="0"/>
</linearGradient>
<linearGradient id="paint1_linear" x1="421.5" y1="-12.9907" x2="421.5" y2="70.4206" gradientUnits="userSpaceOnUse">
<stop stop-color="#E82127"/>
<stop offset="1" stop-color="#E82127" stop-opacity="0"/>
</linearGradient>
<linearGradient id="paint2_linear" x1="421.5" y1="-12.9907" x2="421.5" y2="70.4206" gradientUnits="userSpaceOnUse">
<stop stop-color="#E82127"/>
<stop offset="1" stop-color="#E82127" stop-opacity="0"/>
</linearGradient>
<linearGradient id="paint3_linear" x1="421.5" y1="-12.9907" x2="421.5" y2="70.4206" gradientUnits="userSpaceOnUse">
<stop stop-color="#E82127"/>
<stop offset="1" stop-color="#E82127" stop-opacity="0"/>
</linearGradient>
<linearGradient id="paint4_linear" x1="421.5" y1="-12.9907" x2="421.5" y2="70.4206" gradientUnits="userSpaceOnUse">
<stop stop-color="#E82127"/>
<stop offset="1" stop-color="#E82127" stop-opacity="0"/>
</linearGradient>
<linearGradient id="paint5_linear" x1="421.5" y1="-12.9907" x2="421.5" y2="70.4206" gradientUnits="userSpaceOnUse">
<stop stop-color="#E82127"/>
<stop offset="1" stop-color="#E82127" stop-opacity="0"/>
</linearGradient>
<linearGradient id="paint6_linear" x1="421.5" y1="-12.9907" x2="421.5" y2="70.4206" gradientUnits="userSpaceOnUse">
<stop stop-color="#E82127"/>
<stop offset="1" stop-color="#E82127" stop-opacity="0"/>
</linearGradient>
<linearGradient id="paint7_linear" x1="421.5" y1="-12.9907" x2="421.5" y2="70.4206" gradientUnits="userSpaceOnUse">
<stop stop-color="#E82127"/>
<stop offset="1" stop-color="#E82127" stop-opacity="0"/>
</linearGradient>
<linearGradient id="paint8_linear" x1="421.5" y1="-12.9907" x2="421.5" y2="70.4206" gradientUnits="userSpaceOnUse">
<stop stop-color="#E82127"/>
<stop offset="1" stop-color="#E82127" stop-opacity="0"/>
</linearGradient>
<linearGradient id="paint9_linear" x1="421.5" y1="-12.9907" x2="421.5" y2="70.4206" gradientUnits="userSpaceOnUse">
<stop stop-color="#E82127"/>
<stop offset="1" stop-color="#E82127" stop-opacity="0"/>
</linearGradient>
<linearGradient id="paint10_linear" x1="421.5" y1="-12.9907" x2="421.5" y2="70.4206" gradientUnits="userSpaceOnUse">
<stop stop-color="#E82127"/>
<stop offset="1" stop-color="#E82127" stop-opacity="0"/>
</linearGradient>
<linearGradient id="paint11_linear" x1="421.5" y1="-12.9907" x2="421.5" y2="70.4206" gradientUnits="userSpaceOnUse">
<stop stop-color="#E82127"/>
<stop offset="1" stop-color="#E82127" stop-opacity="0"/>
</linearGradient>
</defs>
</svg>
