<svg width="972" height="72" viewBox="0 0 972 72" fill="none" xmlns="http://www.w3.org/2000/svg">
<path d="M23.2652 71C22.5986 71 21.9986 70.7667 21.4652 70.3C20.9986 69.7667 20.7652 69.1667 20.7652 68.5V16.7H2.96524C2.29857 16.7 1.69857 16.4667 1.16524 16C0.698574 15.4667 0.46524 14.8667 0.46524 14.2V3.5C0.46524 2.76667 0.698574 2.16667 1.16524 1.7C1.69857 1.23333 2.29857 0.999999 2.96524 0.999999H56.7652C57.4986 0.999999 58.0986 1.23333 58.5652 1.7C59.0319 2.16667 59.2652 2.76667 59.2652 3.5V14.2C59.2652 14.9333 59.0319 15.5333 58.5652 16C58.0986 16.4667 57.4986 16.7 56.7652 16.7H38.9652V68.5C38.9652 69.1667 38.7319 69.7667 38.2652 70.3C37.7986 70.7667 37.1986 71 36.4652 71H23.2652Z" fill="url(#paint0_linear)" fill-opacity="0.15"/>
<path d="M70.8535 71C70.1869 71 69.5869 70.7667 69.0535 70.3C68.5869 69.7667 68.3535 69.1667 68.3535 68.5V3.5C68.3535 2.76667 68.5869 2.16667 69.0535 1.7C69.5869 1.23333 70.1869 0.999999 70.8535 0.999999H117.554C118.287 0.999999 118.887 1.23333 119.354 1.7C119.82 2.16667 120.054 2.76667 120.054 3.5V12.9C120.054 13.5667 119.82 14.1667 119.354 14.7C118.887 15.1667 118.287 15.4 117.554 15.4H85.6535V28.9H115.354C116.087 28.9 116.687 29.1667 117.154 29.7C117.62 30.1667 117.854 30.7667 117.854 31.5V40.2C117.854 40.8667 117.62 41.4667 117.154 42C116.687 42.4667 116.087 42.7 115.354 42.7H85.6535V56.6H118.354C119.087 56.6 119.687 56.8333 120.154 57.3C120.62 57.7667 120.854 58.3667 120.854 59.1V68.5C120.854 69.1667 120.62 69.7667 120.154 70.3C119.687 70.7667 119.087 71 118.354 71H70.8535Z" fill="url(#paint1_linear)" fill-opacity="0.15"/>
<path d="M158.321 72C151.987 72 146.554 71.0667 142.021 69.2C137.487 67.3333 134.054 64.9 131.721 61.9C129.454 58.8333 128.254 55.5 128.121 51.9C128.121 51.3667 128.321 50.9 128.721 50.5C129.187 50.0333 129.721 49.8 130.321 49.8H142.921C143.721 49.8 144.354 49.9667 144.821 50.3C145.354 50.5667 145.887 51 146.421 51.6C147.287 53.3333 148.687 54.7667 150.621 55.9C152.554 57.0333 155.121 57.6 158.321 57.6C162.121 57.6 165.021 57 167.021 55.8C169.021 54.6 170.021 52.9667 170.021 50.9C170.021 49.4333 169.487 48.2333 168.421 47.3C167.421 46.3667 165.821 45.5333 163.621 44.8C161.421 44.0667 158.154 43.2333 153.821 42.3C145.821 40.6333 139.821 38.2 135.821 35C131.887 31.7333 129.921 27.1 129.921 21.1C129.921 17.0333 131.054 13.4 133.321 10.2C135.587 7 138.821 4.5 143.021 2.7C147.221 0.9 152.121 0 157.721 0C163.521 0 168.554 1 172.821 3C177.087 5 180.321 7.53333 182.521 10.6C184.787 13.6 185.987 16.5667 186.121 19.5C186.121 20.1 185.921 20.6 185.521 21C185.121 21.4 184.621 21.6 184.021 21.6H170.821C170.021 21.6 169.354 21.4667 168.821 21.2C168.354 20.9333 167.921 20.5 167.521 19.9C167.121 18.3667 166.021 17.0667 164.221 16C162.487 14.9333 160.321 14.4 157.721 14.4C154.721 14.4 152.421 14.9333 150.821 16C149.221 17.0667 148.421 18.6333 148.421 20.7C148.421 22.1 148.854 23.2667 149.721 24.2C150.654 25.1333 152.121 26 154.121 26.8C156.187 27.5333 159.121 28.3 162.921 29.1C169.121 30.2333 174.054 31.6667 177.721 33.4C181.454 35.0667 184.187 37.2667 185.921 40C187.654 42.6667 188.521 46.0333 188.521 50.1C188.521 54.5667 187.221 58.4667 184.621 61.8C182.087 65.0667 178.521 67.6 173.921 69.4C169.387 71.1333 164.187 72 158.321 72Z" fill="url(#paint2_linear)" fill-opacity="0.15"/>
<path d="M201.029 71C200.363 71 199.763 70.7667 199.229 70.3C198.763 69.7667 198.529 69.1667 198.529 68.5V3.5C198.529 2.76667 198.763 2.16667 199.229 1.7C199.763 1.23333 200.363 0.999999 201.029 0.999999H214.229C214.963 0.999999 215.563 1.23333 216.029 1.7C216.496 2.16667 216.729 2.76667 216.729 3.5V55.9H247.029C247.763 55.9 248.363 56.1667 248.829 56.7C249.296 57.1667 249.529 57.7667 249.529 58.5V68.5C249.529 69.1667 249.296 69.7667 248.829 70.3C248.363 70.7667 247.763 71 247.029 71H201.029Z" fill="url(#paint3_linear)" fill-opacity="0.15"/>
<path d="M254.197 71C253.664 71 253.164 70.8 252.697 70.4C252.297 69.9333 252.097 69.4333 252.097 68.9C252.097 68.5 252.131 68.2 252.197 68L275.697 3.8C275.897 3 276.331 2.33334 276.997 1.8C277.664 1.26667 278.531 0.999999 279.597 0.999999H294.397C295.464 0.999999 296.331 1.26667 296.997 1.8C297.664 2.33334 298.097 3 298.297 3.8L321.697 68L321.897 68.9C321.897 69.4333 321.664 69.9333 321.197 70.4C320.797 70.8 320.297 71 319.697 71H307.397C305.797 71 304.731 70.3 304.197 68.9L300.297 58.7H273.597L269.797 68.9C269.264 70.3 268.164 71 266.497 71H254.197ZM296.297 44.3L286.997 17.9L277.697 44.3H296.297Z" fill="url(#paint4_linear)" fill-opacity="0.15"/>
<path d="M351.029 71C350.363 71 349.763 70.7667 349.229 70.3C348.763 69.7667 348.529 69.1667 348.529 68.5V3.5C348.529 2.76667 348.763 2.16667 349.229 1.7C349.763 1.23333 350.363 0.999999 351.029 0.999999H377.029C386.829 0.999999 394.429 3.33333 399.829 8C405.229 12.6667 408.063 19.4333 408.329 28.3C408.396 30.2333 408.429 32.8 408.429 36C408.429 39.2 408.396 41.7333 408.329 43.6C407.996 52.8667 405.229 59.7667 400.029 64.3C394.896 68.7667 387.396 71 377.529 71H351.029ZM377.029 56.6C381.429 56.6 384.663 55.5667 386.729 53.5C388.796 51.3667 389.896 48 390.029 43.4C390.163 41.4667 390.229 38.9667 390.229 35.9C390.229 32.8333 390.163 30.3667 390.029 28.5C389.896 24.0333 388.696 20.7333 386.429 18.6C384.229 16.4667 380.929 15.4 376.529 15.4H366.529V56.6H377.029Z" fill="url(#paint5_linear)" fill-opacity="0.15"/>
<path d="M448.711 72C439.311 72 431.911 69.7 426.511 65.1C421.111 60.5 418.245 53.7333 417.911 44.8C417.845 42.8667 417.811 40 417.811 36.2C417.811 32.3333 417.845 29.4333 417.911 27.5C418.245 18.7 421.145 11.9333 426.611 7.2C432.145 2.4 439.511 0 448.711 0C457.911 0 465.278 2.4 470.811 7.2C476.345 11.9333 479.245 18.7 479.511 27.5C479.645 31.3667 479.711 34.2667 479.711 36.2C479.711 38.0667 479.645 40.9333 479.511 44.8C479.178 53.7333 476.311 60.5 470.911 65.1C465.511 69.7 458.111 72 448.711 72ZM448.711 57.6C452.378 57.6 455.278 56.5 457.411 54.3C459.611 52.1 460.778 48.7333 460.911 44.2C461.045 40.3333 461.111 37.6 461.111 36C461.111 34.2667 461.045 31.5333 460.911 27.8C460.778 23.2667 459.611 19.9 457.411 17.7C455.211 15.5 452.311 14.4 448.711 14.4C445.111 14.4 442.211 15.5 440.011 17.7C437.878 19.9 436.711 23.2667 436.511 27.8C436.445 29.6667 436.411 32.4 436.411 36C436.411 39.5333 436.445 42.2667 436.511 44.2C436.711 48.7333 437.878 52.1 440.011 54.3C442.145 56.5 445.045 57.6 448.711 57.6Z" fill="url(#paint6_linear)" fill-opacity="0.15"/>
<path d="M520.003 72C510.469 72 503.003 69.7 497.603 65.1C492.269 60.4333 489.436 53.7 489.103 44.9C489.036 43.1 489.003 40.1667 489.003 36.1C489.003 31.9667 489.036 28.9667 489.103 27.1C489.436 18.4333 492.336 11.7667 497.803 7.1C503.269 2.36667 510.669 0 520.003 0C525.869 0 531.136 1 535.803 3C540.469 4.93334 544.136 7.73334 546.803 11.4C549.536 15 550.936 19.2333 551.003 24.1V24.3C551.003 24.8333 550.769 25.3 550.303 25.7C549.903 26.0333 549.436 26.2 548.903 26.2H535.403C534.536 26.2 533.869 26.0333 533.403 25.7C532.936 25.3 532.536 24.6 532.203 23.6C531.269 20.2 529.803 17.8333 527.803 16.5C525.803 15.1 523.169 14.4 519.903 14.4C512.036 14.4 507.969 18.8 507.703 27.6C507.636 29.4 507.603 32.1667 507.603 35.9C507.603 39.6333 507.636 42.4667 507.703 44.4C507.969 53.2 512.036 57.6 519.903 57.6C523.169 57.6 525.836 56.9 527.903 55.5C529.969 54.0333 531.403 51.6667 532.203 48.4C532.469 47.4 532.836 46.7333 533.303 46.4C533.769 46 534.469 45.8 535.403 45.8H548.903C549.503 45.8 550.003 46 550.403 46.4C550.869 46.8 551.069 47.3 551.003 47.9C550.936 52.7667 549.536 57.0333 546.803 60.7C544.136 64.3 540.469 67.1 535.803 69.1C531.136 71.0333 525.869 72 520.003 72Z" fill="url(#paint7_linear)" fill-opacity="0.15"/>
<path d="M590.918 72C581.518 72 574.151 69.7 568.818 65.1C563.551 60.5 560.918 53.5667 560.918 44.3V3.5C560.918 2.76667 561.151 2.16667 561.618 1.7C562.151 1.23333 562.751 0.999999 563.418 0.999999H576.318C577.051 0.999999 577.651 1.23333 578.118 1.7C578.651 2.16667 578.918 2.76667 578.918 3.5V44.2C578.918 48.5333 579.918 51.8 581.918 54C583.984 56.1333 586.951 57.2 590.818 57.2C594.618 57.2 597.551 56.1 599.618 53.9C601.684 51.7 602.718 48.4667 602.718 44.2V3.5C602.718 2.76667 602.951 2.16667 603.418 1.7C603.951 1.23333 604.551 0.999999 605.218 0.999999H618.218C618.951 0.999999 619.551 1.23333 620.018 1.7C620.484 2.16667 620.718 2.76667 620.718 3.5V44.3C620.718 53.5667 618.051 60.5 612.718 65.1C607.451 69.7 600.184 72 590.918 72Z" fill="url(#paint8_linear)" fill-opacity="0.15"/>
<path d="M636.479 71C635.812 71 635.212 70.7667 634.678 70.3C634.212 69.7667 633.979 69.1667 633.979 68.5V3.5C633.979 2.76667 634.212 2.16667 634.678 1.7C635.212 1.23333 635.812 0.999999 636.479 0.999999H647.279C648.879 0.999999 650.045 1.73333 650.779 3.2L668.379 34.7L685.979 3.2C686.712 1.73333 687.879 0.999999 689.479 0.999999H700.178C700.912 0.999999 701.512 1.23333 701.979 1.7C702.512 2.16667 702.779 2.76667 702.779 3.5V68.5C702.779 69.2333 702.512 69.8333 701.979 70.3C701.512 70.7667 700.912 71 700.178 71H688.279C687.545 71 686.912 70.7667 686.379 70.3C685.912 69.8333 685.678 69.2333 685.678 68.5V31L674.479 51.9C673.612 53.4333 672.445 54.2 670.979 54.2H665.779C664.912 54.2 664.212 54 663.678 53.6C663.145 53.2 662.679 52.6333 662.279 51.9L650.979 31V68.5C650.979 69.1667 650.745 69.7667 650.279 70.3C649.812 70.7667 649.212 71 648.479 71H636.479Z" fill="url(#paint9_linear)" fill-opacity="0.15"/>
<path d="M719.291 71C718.624 71 718.024 70.7667 717.491 70.3C717.024 69.7667 716.791 69.1667 716.791 68.5V3.5C716.791 2.76667 717.024 2.16667 717.491 1.7C718.024 1.23333 718.624 0.999999 719.291 0.999999H765.991C766.724 0.999999 767.324 1.23333 767.791 1.7C768.258 2.16667 768.491 2.76667 768.491 3.5V12.9C768.491 13.5667 768.258 14.1667 767.791 14.7C767.324 15.1667 766.724 15.4 765.991 15.4H734.091V28.9H763.791C764.524 28.9 765.124 29.1667 765.591 29.7C766.058 30.1667 766.291 30.7667 766.291 31.5V40.2C766.291 40.8667 766.058 41.4667 765.591 42C765.124 42.4667 764.524 42.7 763.791 42.7H734.091V56.6H766.791C767.524 56.6 768.124 56.8333 768.591 57.3C769.058 57.7667 769.291 58.3667 769.291 59.1V68.5C769.291 69.1667 769.058 69.7667 768.591 70.3C768.124 70.7667 767.524 71 766.791 71H719.291Z" fill="url(#paint10_linear)" fill-opacity="0.15"/>
<path d="M783.158 71C782.492 71 781.892 70.7667 781.358 70.3C780.892 69.7667 780.658 69.1667 780.658 68.5V3.5C780.658 2.76667 780.892 2.16667 781.358 1.7C781.892 1.23333 782.492 0.999999 783.158 0.999999H793.758C795.425 0.999999 796.558 1.63333 797.158 2.9L821.558 41.3V3.5C821.558 2.76667 821.792 2.16667 822.258 1.7C822.792 1.23333 823.392 0.999999 824.058 0.999999H836.058C836.792 0.999999 837.392 1.23333 837.858 1.7C838.325 2.16667 838.558 2.76667 838.558 3.5V68.4C838.558 69.1333 838.325 69.7667 837.858 70.3C837.392 70.7667 836.792 71 836.058 71H825.358C823.892 71 822.792 70.3667 822.058 69.1L797.658 32.1V68.5C797.658 69.1667 797.425 69.7667 796.958 70.3C796.492 70.7667 795.892 71 795.158 71H783.158Z" fill="url(#paint11_linear)" fill-opacity="0.15"/>
<path d="M870.433 71C869.767 71 869.167 70.7667 868.633 70.3C868.167 69.7667 867.933 69.1667 867.933 68.5V16.7H850.133C849.467 16.7 848.867 16.4667 848.333 16C847.867 15.4667 847.633 14.8667 847.633 14.2V3.5C847.633 2.76667 847.867 2.16667 848.333 1.7C848.867 1.23333 849.467 0.999999 850.133 0.999999H903.933C904.667 0.999999 905.267 1.23333 905.733 1.7C906.2 2.16667 906.433 2.76667 906.433 3.5V14.2C906.433 14.9333 906.2 15.5333 905.733 16C905.267 16.4667 904.667 16.7 903.933 16.7H886.133V68.5C886.133 69.1667 885.9 69.7667 885.433 70.3C884.967 70.7667 884.367 71 883.633 71H870.433Z" fill="url(#paint12_linear)" fill-opacity="0.15"/>
<path d="M941.426 72C935.093 72 929.66 71.0667 925.126 69.2C920.593 67.3333 917.16 64.9 914.826 61.9C912.56 58.8333 911.359 55.5 911.226 51.9C911.226 51.3667 911.426 50.9 911.826 50.5C912.293 50.0333 912.826 49.8 913.426 49.8H926.026C926.826 49.8 927.46 49.9667 927.926 50.3C928.46 50.5667 928.993 51 929.526 51.6C930.393 53.3333 931.793 54.7667 933.726 55.9C935.66 57.0333 938.226 57.6 941.426 57.6C945.226 57.6 948.126 57 950.126 55.8C952.126 54.6 953.126 52.9667 953.126 50.9C953.126 49.4333 952.593 48.2333 951.526 47.3C950.526 46.3667 948.926 45.5333 946.726 44.8C944.526 44.0667 941.26 43.2333 936.926 42.3C928.926 40.6333 922.926 38.2 918.926 35C914.993 31.7333 913.026 27.1 913.026 21.1C913.026 17.0333 914.16 13.4 916.426 10.2C918.693 7 921.926 4.5 926.126 2.7C930.326 0.9 935.226 0 940.826 0C946.626 0 951.66 1 955.926 3C960.193 5 963.426 7.53333 965.626 10.6C967.893 13.6 969.093 16.5667 969.226 19.5C969.226 20.1 969.026 20.6 968.626 21C968.226 21.4 967.726 21.6 967.126 21.6H953.926C953.126 21.6 952.46 21.4667 951.926 21.2C951.46 20.9333 951.026 20.5 950.626 19.9C950.226 18.3667 949.126 17.0667 947.326 16C945.593 14.9333 943.426 14.4 940.826 14.4C937.826 14.4 935.526 14.9333 933.926 16C932.326 17.0667 931.526 18.6333 931.526 20.7C931.526 22.1 931.96 23.2667 932.826 24.2C933.76 25.1333 935.226 26 937.226 26.8C939.293 27.5333 942.226 28.3 946.026 29.1C952.226 30.2333 957.16 31.6667 960.826 33.4C964.56 35.0667 967.293 37.2667 969.026 40C970.759 42.6667 971.626 46.0333 971.626 50.1C971.626 54.5667 970.326 58.4667 967.726 61.8C965.193 65.0667 961.626 67.6 957.026 69.4C952.493 71.1333 947.293 72 941.426 72Z" fill="url(#paint13_linear)" fill-opacity="0.15"/>
<defs>
<linearGradient id="paint0_linear" x1="486.5" y1="-12.9907" x2="486.5" y2="70.4206" gradientUnits="userSpaceOnUse">
<stop stop-color="#E82127"/>
<stop offset="1" stop-color="#E82127" stop-opacity="0"/>
</linearGradient>
<linearGradient id="paint1_linear" x1="486.5" y1="-12.9907" x2="486.5" y2="70.4206" gradientUnits="userSpaceOnUse">
<stop stop-color="#E82127"/>
<stop offset="1" stop-color="#E82127" stop-opacity="0"/>
</linearGradient>
<linearGradient id="paint2_linear" x1="486.5" y1="-12.9907" x2="486.5" y2="70.4206" gradientUnits="userSpaceOnUse">
<stop stop-color="#E82127"/>
<stop offset="1" stop-color="#E82127" stop-opacity="0"/>
</linearGradient>
<linearGradient id="paint3_linear" x1="486.5" y1="-12.9907" x2="486.5" y2="70.4206" gradientUnits="userSpaceOnUse">
<stop stop-color="#E82127"/>
<stop offset="1" stop-color="#E82127" stop-opacity="0"/>
</linearGradient>
<linearGradient id="paint4_linear" x1="486.5" y1="-12.9907" x2="486.5" y2="70.4206" gradientUnits="userSpaceOnUse">
<stop stop-color="#E82127"/>
<stop offset="1" stop-color="#E82127" stop-opacity="0"/>
</linearGradient>
<linearGradient id="paint5_linear" x1="486.5" y1="-12.9907" x2="486.5" y2="70.4206" gradientUnits="userSpaceOnUse">
<stop stop-color="#E82127"/>
<stop offset="1" stop-color="#E82127" stop-opacity="0"/>
</linearGradient>
<linearGradient id="paint6_linear" x1="486.5" y1="-12.9907" x2="486.5" y2="70.4206" gradientUnits="userSpaceOnUse">
<stop stop-color="#E82127"/>
<stop offset="1" stop-color="#E82127" stop-opacity="0"/>
</linearGradient>
<linearGradient id="paint7_linear" x1="486.5" y1="-12.9907" x2="486.5" y2="70.4206" gradientUnits="userSpaceOnUse">
<stop stop-color="#E82127"/>
<stop offset="1" stop-color="#E82127" stop-opacity="0"/>
</linearGradient>
<linearGradient id="paint8_linear" x1="486.5" y1="-12.9907" x2="486.5" y2="70.4206" gradientUnits="userSpaceOnUse">
<stop stop-color="#E82127"/>
<stop offset="1" stop-color="#E82127" stop-opacity="0"/>
</linearGradient>
<linearGradient id="paint9_linear" x1="486.5" y1="-12.9907" x2="486.5" y2="70.4206" gradientUnits="userSpaceOnUse">
<stop stop-color="#E82127"/>
<stop offset="1" stop-color="#E82127" stop-opacity="0"/>
</linearGradient>
<linearGradient id="paint10_linear" x1="486.5" y1="-12.9907" x2="486.5" y2="70.4206" gradientUnits="userSpaceOnUse">
<stop stop-color="#E82127"/>
<stop offset="1" stop-color="#E82127" stop-opacity="0"/>
</linearGradient>
<linearGradient id="paint11_linear" x1="486.5" y1="-12.9907" x2="486.5" y2="70.4206" gradientUnits="userSpaceOnUse">
<stop stop-color="#E82127"/>
<stop offset="1" stop-color="#E82127" stop-opacity="0"/>
</linearGradient>
<linearGradient id="paint12_linear" x1="486.5" y1="-12.9907" x2="486.5" y2="70.4206" gradientUnits="userSpaceOnUse">
<stop stop-color="#E82127"/>
<stop offset="1" stop-color="#E82127" stop-opacity="0"/>
</linearGradient>
<linearGradient id="paint13_linear" x1="486.5" y1="-12.9907" x2="486.5" y2="70.4206" gradientUnits="userSpaceOnUse">
<stop stop-color="#E82127"/>
<stop offset="1" stop-color="#E82127" stop-opacity="0"/>
</linearGradient>
</defs>
</svg>
