<svg width="540" height="310" viewBox="0 0 540 310" fill="none" xmlns="http://www.w3.org/2000/svg">
<g clip-path="url(#clip0)">
<rect width="540" height="310" rx="16" fill="#444D61"/>
<circle cx="26.242" cy="72.2421" r="142.77" transform="rotate(99.7791 26.242 72.2421)" fill="url(#paint0_linear)" fill-opacity="0.1"/>
<circle cx="531.257" cy="19.2573" r="73.6948" transform="rotate(-105 531.257 19.2573)" fill="url(#paint1_linear)" fill-opacity="0.1"/>
<circle cx="531.046" cy="285.046" r="124.961" transform="rotate(-105 531.046 285.046)" fill="url(#paint2_linear)" fill-opacity="0.1"/>
<g filter="url(#filter0_b)">
<rect width="540" height="310" fill="#282626" fill-opacity="0.1"/>
</g>
<path d="M247.49 285.14C247.348 285.14 247.227 285.098 247.128 285.015C247.043 284.918 247 284.8 247 284.661V283.995C247 283.676 247.178 283.371 247.533 283.08L252.051 278.669C253.145 277.782 253.898 277.061 254.31 276.506C254.722 275.937 254.928 275.341 254.928 274.717C254.928 273.912 254.693 273.281 254.224 272.823C253.77 272.366 253.102 272.137 252.221 272.137C251.397 272.137 250.737 272.38 250.239 272.865C249.742 273.337 249.437 273.968 249.323 274.758C249.294 274.925 249.223 275.049 249.11 275.133C249.01 275.202 248.897 275.237 248.769 275.237H247.661C247.533 275.237 247.426 275.202 247.341 275.133C247.256 275.049 247.213 274.952 247.213 274.841C247.242 274.092 247.448 273.378 247.831 272.699C248.215 272.005 248.776 271.443 249.515 271.013C250.268 270.57 251.17 270.348 252.221 270.348C253.827 270.348 255.034 270.757 255.844 271.575C256.668 272.38 257.08 273.406 257.08 274.654C257.08 275.528 256.853 276.319 256.398 277.026C255.958 277.719 255.269 278.468 254.331 279.273L250.239 283.33H256.888C257.045 283.33 257.165 283.378 257.251 283.475C257.35 283.558 257.4 283.669 257.4 283.808V284.661C257.4 284.8 257.35 284.918 257.251 285.015C257.151 285.098 257.03 285.14 256.888 285.14H247.49Z" fill="white"/>
<path d="M265.219 285.348C263.386 285.348 262.044 284.828 261.191 283.787C260.339 282.747 259.884 281.381 259.827 279.689C259.813 279.314 259.806 278.711 259.806 277.879C259.806 277.019 259.813 276.395 259.827 276.006C259.87 274.342 260.325 272.99 261.191 271.95C262.058 270.896 263.4 270.368 265.219 270.368C267.052 270.368 268.401 270.896 269.268 271.95C270.135 272.99 270.589 274.342 270.632 276.006C270.66 276.783 270.675 277.407 270.675 277.879C270.675 278.337 270.66 278.94 270.632 279.689C270.575 281.381 270.121 282.747 269.268 283.787C268.416 284.828 267.066 285.348 265.219 285.348ZM265.219 283.558C266.285 283.558 267.087 283.212 267.627 282.518C268.181 281.825 268.472 280.847 268.501 279.585C268.529 278.78 268.544 278.198 268.544 277.837C268.544 277.449 268.529 276.88 268.501 276.131C268.472 274.883 268.188 273.905 267.648 273.198C267.109 272.491 266.299 272.137 265.219 272.137C264.153 272.137 263.344 272.491 262.79 273.198C262.25 273.905 261.966 274.883 261.937 276.131L261.916 277.837L261.937 279.585C261.966 280.847 262.25 281.825 262.79 282.518C263.344 283.212 264.153 283.558 265.219 283.558Z" fill="white"/>
<path d="M273.525 285.14C273.383 285.14 273.262 285.098 273.163 285.015C273.078 284.918 273.035 284.8 273.035 284.661V283.995C273.035 283.676 273.213 283.371 273.568 283.08L278.086 278.669C279.18 277.782 279.933 277.061 280.345 276.506C280.757 275.937 280.963 275.341 280.963 274.717C280.963 273.912 280.728 273.281 280.26 272.823C279.805 272.366 279.137 272.137 278.256 272.137C277.432 272.137 276.772 272.38 276.274 272.865C275.777 273.337 275.472 273.968 275.358 274.758C275.33 274.925 275.259 275.049 275.145 275.133C275.045 275.202 274.932 275.237 274.804 275.237H273.696C273.568 275.237 273.461 275.202 273.376 275.133C273.291 275.049 273.248 274.952 273.248 274.841C273.277 274.092 273.483 273.378 273.866 272.699C274.25 272.005 274.811 271.443 275.55 271.013C276.303 270.57 277.205 270.348 278.256 270.348C279.862 270.348 281.069 270.757 281.879 271.575C282.703 272.38 283.115 273.406 283.115 274.654C283.115 275.528 282.888 276.319 282.433 277.026C281.993 277.719 281.304 278.468 280.366 279.273L276.274 283.33H282.923C283.08 283.33 283.2 283.378 283.286 283.475C283.385 283.558 283.435 283.669 283.435 283.808V284.661C283.435 284.8 283.385 284.918 283.286 285.015C283.186 285.098 283.065 285.14 282.923 285.14H273.525Z" fill="white"/>
<path d="M290.38 285.14C290.238 285.14 290.118 285.098 290.018 285.015C289.933 284.918 289.89 284.8 289.89 284.661V273.011L286.353 275.674C286.253 275.757 286.147 275.798 286.033 275.798C285.905 275.798 285.784 275.729 285.671 275.59L285.117 274.904C285.046 274.807 285.01 274.71 285.01 274.613C285.01 274.446 285.081 274.314 285.223 274.217L289.869 270.722C290.025 270.625 290.21 270.577 290.423 270.577H291.51C291.652 270.577 291.766 270.625 291.851 270.722C291.95 270.805 292 270.916 292 271.055V284.661C292 284.8 291.95 284.918 291.851 285.015C291.766 285.098 291.652 285.14 291.51 285.14H290.38Z" fill="white"/>
<path d="M269.752 141.757L282.523 70.0438C294.697 70.0438 298.537 71.3766 299.091 76.8166C299.091 76.8166 307.258 73.7765 311.377 67.6022C295.304 60.1662 279.154 59.8309 279.154 59.8309L269.73 71.2903L269.752 71.2889L260.328 59.8291C260.328 59.8291 244.178 60.1648 228.107 67.6007C232.222 73.775 240.392 76.8151 240.392 76.8151C240.95 71.3748 244.785 70.042 256.877 70.0334L269.752 141.757Z" fill="white"/>
<path d="M269.747 56.5209C282.739 56.4217 297.611 58.5276 312.835 65.1523C314.87 61.4958 315.393 59.8798 315.393 59.8798C298.751 53.3061 283.166 51.0564 269.745 51C256.325 51.0564 240.74 53.3065 224.1 59.8798C224.1 59.8798 224.842 61.8703 226.656 65.1523C241.877 58.5276 256.752 56.4217 269.745 56.5209H269.747" fill="white"/>
<path d="M183.393 193.022C183.177 193.022 182.982 192.946 182.809 192.795C182.658 192.622 182.582 192.428 182.582 192.211V175.415H176.811C176.594 175.415 176.4 175.339 176.227 175.188C176.076 175.015 176 174.821 176 174.604V171.135C176 170.897 176.076 170.703 176.227 170.551C176.4 170.4 176.594 170.324 176.811 170.324H194.256C194.493 170.324 194.688 170.4 194.839 170.551C194.99 170.703 195.066 170.897 195.066 171.135V174.604C195.066 174.842 194.99 175.037 194.839 175.188C194.688 175.339 194.493 175.415 194.256 175.415H188.484V192.211C188.484 192.428 188.408 192.622 188.257 192.795C188.105 192.946 187.911 193.022 187.673 193.022H183.393Z" fill="white"/>
<path d="M198.824 193.022C198.608 193.022 198.413 192.946 198.24 192.795C198.089 192.622 198.013 192.428 198.013 192.211V171.135C198.013 170.897 198.089 170.703 198.24 170.551C198.413 170.4 198.608 170.324 198.824 170.324H213.966C214.204 170.324 214.399 170.4 214.55 170.551C214.701 170.703 214.777 170.897 214.777 171.135V174.183C214.777 174.399 214.701 174.594 214.55 174.767C214.399 174.918 214.204 174.994 213.966 174.994H203.623V179.371H213.253C213.491 179.371 213.685 179.457 213.837 179.63C213.988 179.782 214.064 179.976 214.064 180.214V183.035C214.064 183.251 213.988 183.446 213.837 183.619C213.685 183.77 213.491 183.846 213.253 183.846H203.623V188.353H214.226C214.464 188.353 214.658 188.428 214.809 188.58C214.961 188.731 215.036 188.926 215.036 189.163V192.211C215.036 192.428 214.961 192.622 214.809 192.795C214.658 192.946 214.464 193.022 214.226 193.022H198.824Z" fill="white"/>
<path d="M227.185 193.346C225.132 193.346 223.37 193.044 221.9 192.438C220.43 191.833 219.317 191.044 218.56 190.071C217.825 189.077 217.436 187.996 217.393 186.829C217.393 186.656 217.458 186.505 217.587 186.375C217.739 186.224 217.912 186.148 218.106 186.148H222.192C222.451 186.148 222.657 186.202 222.808 186.31C222.981 186.396 223.154 186.537 223.327 186.732C223.608 187.294 224.062 187.758 224.689 188.126C225.315 188.493 226.148 188.677 227.185 188.677C228.417 188.677 229.358 188.482 230.006 188.093C230.655 187.704 230.979 187.175 230.979 186.505C230.979 186.029 230.806 185.64 230.46 185.337C230.136 185.035 229.617 184.764 228.904 184.527C228.19 184.289 227.131 184.019 225.726 183.716C223.132 183.176 221.187 182.387 219.89 181.349C218.614 180.29 217.976 178.787 217.976 176.842C217.976 175.523 218.344 174.345 219.079 173.307C219.814 172.27 220.862 171.459 222.224 170.875C223.586 170.292 225.175 170 226.991 170C228.871 170 230.503 170.324 231.887 170.973C233.27 171.621 234.319 172.443 235.032 173.437C235.767 174.41 236.156 175.372 236.2 176.323C236.2 176.518 236.135 176.68 236.005 176.809C235.875 176.939 235.713 177.004 235.519 177.004H231.238C230.979 177.004 230.763 176.961 230.59 176.874C230.439 176.788 230.298 176.647 230.168 176.453C230.039 175.955 229.682 175.534 229.098 175.188C228.536 174.842 227.834 174.669 226.991 174.669C226.018 174.669 225.272 174.842 224.753 175.188C224.235 175.534 223.975 176.042 223.975 176.712C223.975 177.166 224.116 177.544 224.397 177.847C224.699 178.15 225.175 178.431 225.823 178.69C226.494 178.928 227.445 179.176 228.677 179.436C230.687 179.803 232.287 180.268 233.476 180.83C234.686 181.371 235.573 182.084 236.135 182.97C236.697 183.835 236.978 184.926 236.978 186.245C236.978 187.693 236.556 188.958 235.713 190.039C234.892 191.098 233.735 191.92 232.244 192.503C230.774 193.065 229.088 193.346 227.185 193.346Z" fill="white"/>
<path d="M241.034 193.022C240.818 193.022 240.623 192.946 240.45 192.795C240.299 192.622 240.223 192.428 240.223 192.211V171.135C240.223 170.897 240.299 170.703 240.45 170.551C240.623 170.4 240.818 170.324 241.034 170.324H245.314C245.552 170.324 245.746 170.4 245.898 170.551C246.049 170.703 246.125 170.897 246.125 171.135V188.126H255.949C256.187 188.126 256.382 188.212 256.533 188.385C256.684 188.537 256.76 188.731 256.76 188.969V192.211C256.76 192.428 256.684 192.622 256.533 192.795C256.382 192.946 256.187 193.022 255.949 193.022H241.034Z" fill="white"/>
<path d="M258.274 193.022C258.101 193.022 257.939 192.957 257.787 192.827C257.658 192.676 257.593 192.514 257.593 192.341C257.593 192.211 257.604 192.114 257.625 192.049L265.245 171.232C265.31 170.973 265.45 170.757 265.667 170.584C265.883 170.411 266.164 170.324 266.51 170.324H271.309C271.655 170.324 271.936 170.411 272.152 170.584C272.368 170.757 272.508 170.973 272.573 171.232L280.161 192.049L280.226 192.341C280.226 192.514 280.15 192.676 279.999 192.827C279.869 192.957 279.707 193.022 279.512 193.022H275.524C275.005 193.022 274.659 192.795 274.486 192.341L273.222 189.034H264.564L263.332 192.341C263.159 192.795 262.802 193.022 262.262 193.022H258.274ZM271.925 184.364L268.909 175.804L265.894 184.364H271.925Z" fill="white"/>
<path d="M298.167 193.346C295.076 193.346 292.655 192.601 290.904 191.109C289.175 189.596 288.256 187.412 288.148 184.559C288.126 183.975 288.115 183.024 288.115 181.706C288.115 180.365 288.126 179.393 288.148 178.787C288.256 175.977 289.196 173.815 290.969 172.302C292.741 170.767 295.141 170 298.167 170C300.07 170 301.777 170.324 303.291 170.973C304.804 171.6 305.993 172.508 306.857 173.696C307.744 174.864 308.198 176.236 308.219 177.815V177.879C308.219 178.052 308.144 178.204 307.992 178.333C307.862 178.441 307.711 178.495 307.538 178.495H303.161C302.88 178.495 302.664 178.441 302.512 178.333C302.361 178.204 302.231 177.977 302.123 177.652C301.821 176.55 301.345 175.783 300.696 175.35C300.048 174.896 299.194 174.669 298.135 174.669C295.584 174.669 294.265 176.096 294.179 178.949C294.157 179.533 294.147 180.43 294.147 181.641C294.147 182.851 294.157 183.77 294.179 184.397C294.265 187.25 295.584 188.677 298.135 188.677C299.194 188.677 300.059 188.45 300.729 187.996C301.399 187.521 301.864 186.753 302.123 185.694C302.21 185.37 302.329 185.153 302.48 185.045C302.631 184.916 302.858 184.851 303.161 184.851H307.538C307.733 184.851 307.895 184.916 308.025 185.045C308.176 185.175 308.241 185.337 308.219 185.532C308.198 187.11 307.744 188.493 306.857 189.682C305.993 190.85 304.804 191.757 303.291 192.406C301.777 193.033 300.07 193.346 298.167 193.346Z" fill="white"/>
<path d="M320.902 193.346C317.854 193.346 315.455 192.601 313.704 191.109C311.953 189.617 311.023 187.423 310.915 184.527C310.894 183.9 310.883 182.97 310.883 181.738C310.883 180.484 310.894 179.544 310.915 178.917C311.023 176.064 311.964 173.869 313.736 172.335C315.531 170.778 317.919 170 320.902 170C323.885 170 326.274 170.778 328.068 172.335C329.863 173.869 330.803 176.064 330.889 178.917C330.933 180.171 330.954 181.111 330.954 181.738C330.954 182.343 330.933 183.273 330.889 184.527C330.781 187.423 329.852 189.617 328.101 191.109C326.35 192.601 323.95 193.346 320.902 193.346ZM320.902 188.677C322.091 188.677 323.032 188.32 323.723 187.607C324.437 186.894 324.815 185.802 324.858 184.332C324.901 183.078 324.923 182.192 324.923 181.673C324.923 181.111 324.901 180.225 324.858 179.014C324.815 177.544 324.437 176.453 323.723 175.739C323.01 175.026 322.07 174.669 320.902 174.669C319.735 174.669 318.795 175.026 318.081 175.739C317.39 176.453 317.011 177.544 316.946 179.014C316.925 179.62 316.914 180.506 316.914 181.673C316.914 182.819 316.925 183.705 316.946 184.332C317.011 185.802 317.39 186.894 318.081 187.607C318.773 188.32 319.713 188.677 320.902 188.677Z" fill="white"/>
<path d="M335.523 193.022C335.307 193.022 335.113 192.946 334.94 192.795C334.788 192.622 334.713 192.428 334.713 192.211V171.135C334.713 170.897 334.788 170.703 334.94 170.551C335.113 170.4 335.307 170.324 335.523 170.324H339.868C340.106 170.324 340.301 170.4 340.452 170.551C340.625 170.703 340.711 170.897 340.711 171.135V192.211C340.711 192.449 340.625 192.644 340.452 192.795C340.301 192.946 340.106 193.022 339.868 193.022H335.523Z" fill="white"/>
<path d="M346.036 193.022C345.82 193.022 345.626 192.946 345.453 192.795C345.301 192.622 345.226 192.428 345.226 192.211V171.135C345.226 170.897 345.301 170.703 345.453 170.551C345.626 170.4 345.82 170.324 346.036 170.324H349.473C350.014 170.324 350.381 170.53 350.576 170.94L358.488 183.392V171.135C358.488 170.897 358.563 170.703 358.715 170.551C358.888 170.4 359.082 170.324 359.298 170.324H363.189C363.427 170.324 363.622 170.4 363.773 170.551C363.924 170.703 364 170.897 364 171.135V192.179C364 192.417 363.924 192.622 363.773 192.795C363.622 192.946 363.427 193.022 363.189 193.022H359.72C359.244 193.022 358.888 192.817 358.65 192.406L350.738 180.409V192.211C350.738 192.428 350.662 192.622 350.511 192.795C350.36 192.946 350.165 193.022 349.927 193.022H346.036Z" fill="white"/>
<path d="M243.355 233.878C243.251 233.878 243.16 233.839 243.082 233.761C243.004 233.684 242.966 233.593 242.966 233.489C242.966 233.385 242.972 233.314 242.985 233.275L247.81 220.687C247.914 220.402 248.121 220.259 248.432 220.259H249.755C250.067 220.259 250.274 220.402 250.378 220.687L255.183 233.275L255.222 233.489C255.222 233.593 255.183 233.684 255.106 233.761C255.028 233.839 254.937 233.878 254.833 233.878H253.841C253.698 233.878 253.588 233.846 253.51 233.781C253.432 233.703 253.381 233.625 253.355 233.547L252.285 230.785H245.903L244.833 233.547C244.807 233.625 244.749 233.703 244.658 233.781C244.58 233.846 244.477 233.878 244.347 233.878H243.355ZM251.72 229.112L249.094 222.205L246.468 229.112H251.72Z" fill="white"/>
<path d="M262.192 234.073C260.519 234.073 259.222 233.625 258.301 232.73C257.393 231.822 256.939 230.454 256.939 228.625V220.726C256.939 220.584 256.978 220.473 257.056 220.396C257.146 220.305 257.257 220.259 257.386 220.259H258.379C258.521 220.259 258.631 220.305 258.709 220.396C258.8 220.473 258.845 220.584 258.845 220.726V228.664C258.845 229.909 259.137 230.843 259.721 231.466C260.305 232.088 261.128 232.399 262.192 232.399C263.255 232.399 264.079 232.088 264.663 231.466C265.246 230.843 265.538 229.909 265.538 228.664V220.726C265.538 220.584 265.577 220.473 265.655 220.396C265.746 220.305 265.856 220.259 265.986 220.259H266.997C267.127 220.259 267.231 220.305 267.308 220.396C267.399 220.486 267.445 220.597 267.445 220.726V228.625C267.445 230.454 266.984 231.822 266.063 232.73C265.155 233.625 263.865 234.073 262.192 234.073Z" fill="white"/>
<path d="M271.145 233.878C271.015 233.878 270.905 233.839 270.814 233.761C270.736 233.671 270.697 233.56 270.697 233.431V220.726C270.697 220.584 270.736 220.473 270.814 220.396C270.905 220.305 271.015 220.259 271.145 220.259H275.561C277.519 220.259 278.933 220.7 279.802 221.582C280.671 222.451 281.125 223.768 281.164 225.532C281.177 225.908 281.183 226.414 281.183 227.049C281.183 227.685 281.177 228.197 281.164 228.586C281.125 229.818 280.918 230.824 280.541 231.602C280.178 232.367 279.601 232.938 278.81 233.314C278.019 233.69 276.968 233.878 275.658 233.878H271.145ZM275.561 232.224C276.456 232.224 277.163 232.101 277.681 231.855C278.213 231.608 278.596 231.219 278.829 230.687C279.076 230.143 279.212 229.416 279.238 228.508C279.264 227.73 279.277 227.244 279.277 227.049C279.277 226.842 279.264 226.362 279.238 225.61C279.212 224.326 278.907 223.392 278.324 222.808C277.74 222.211 276.787 221.913 275.464 221.913H272.604V232.224H275.561Z" fill="white"/>
<path d="M284.558 233.878C284.428 233.878 284.318 233.839 284.227 233.761C284.149 233.671 284.111 233.56 284.111 233.431V220.707C284.111 220.577 284.149 220.473 284.227 220.396C284.318 220.305 284.428 220.259 284.558 220.259H285.589C285.719 220.259 285.823 220.305 285.9 220.396C285.991 220.473 286.037 220.577 286.037 220.707V233.431C286.037 233.56 285.991 233.671 285.9 233.761C285.823 233.839 285.719 233.878 285.589 233.878H284.558Z" fill="white"/>
<path d="M292.854 233.878C292.725 233.878 292.615 233.839 292.524 233.761C292.446 233.671 292.407 233.56 292.407 233.431V221.991H288.672C288.542 221.991 288.432 221.952 288.341 221.874C288.263 221.783 288.224 221.673 288.224 221.543V220.726C288.224 220.597 288.263 220.486 288.341 220.396C288.432 220.305 288.542 220.259 288.672 220.259H298.049C298.192 220.259 298.302 220.305 298.38 220.396C298.471 220.473 298.516 220.584 298.516 220.726V221.543C298.516 221.673 298.471 221.783 298.38 221.874C298.289 221.952 298.179 221.991 298.049 221.991H294.333V233.431C294.333 233.56 294.288 233.671 294.197 233.761C294.106 233.839 293.996 233.878 293.866 233.878H292.854Z" fill="white"/>
</g>
<defs>
<filter id="filter0_b" x="-10" y="-10" width="560" height="330" filterUnits="userSpaceOnUse" color-interpolation-filters="sRGB">
<feFlood flood-opacity="0" result="BackgroundImageFix"/>
<feGaussianBlur in="BackgroundImage" stdDeviation="5"/>
<feComposite in2="SourceAlpha" operator="in" result="effect1_backgroundBlur"/>
<feBlend mode="normal" in="SourceGraphic" in2="effect1_backgroundBlur" result="shape"/>
</filter>
<linearGradient id="paint0_linear" x1="26.242" y1="-70.5277" x2="26.242" y2="215.012" gradientUnits="userSpaceOnUse">
<stop stop-color="white"/>
<stop offset="1" stop-color="white" stop-opacity="0"/>
</linearGradient>
<linearGradient id="paint1_linear" x1="531.257" y1="-54.4374" x2="531.257" y2="92.9521" gradientUnits="userSpaceOnUse">
<stop stop-color="white"/>
<stop offset="1" stop-color="white" stop-opacity="0"/>
</linearGradient>
<linearGradient id="paint2_linear" x1="531.046" y1="160.085" x2="531.046" y2="410.007" gradientUnits="userSpaceOnUse">
<stop stop-color="white"/>
<stop offset="1" stop-color="white" stop-opacity="0"/>
</linearGradient>
<clipPath id="clip0">
<rect width="540" height="310" rx="16" fill="white"/>
</clipPath>
</defs>
</svg>
