<svg width="55" height="55" viewBox="0 0 55 55" fill="none" xmlns="http://www.w3.org/2000/svg">
<path d="M27.5011 0C12.3127 0 0 12.3149 0 27.5011C0 42.6896 12.3127 55 27.5011 55C42.6896 55 55 42.6896 55 27.5011C55 12.3149 42.6884 0 27.5011 0ZM41.3539 21.9562C41.3684 22.2533 41.374 22.5515 41.374 22.853C41.374 32.0119 34.4029 42.5712 21.6558 42.5712C17.7425 42.5712 14.0984 41.4242 11.0317 39.4587C11.5745 39.5223 12.1251 39.5547 12.6846 39.5547C15.9322 39.5547 18.9208 38.4468 21.2917 36.5885C18.2596 36.5315 15.701 34.5269 14.8188 31.774C15.2409 31.8566 15.6754 31.898 16.1221 31.898C16.7542 31.898 17.3662 31.8153 17.948 31.6556C14.7763 31.019 12.3875 28.2159 12.3875 24.861C12.3875 24.8309 12.3875 24.8018 12.3886 24.7717C13.3223 25.291 14.391 25.6026 15.5279 25.6394C13.6674 24.3942 12.4445 22.2756 12.4445 19.87C12.4445 18.6002 12.7862 17.4086 13.3826 16.3856C16.8011 20.5781 21.9082 23.3377 27.6686 23.6258C27.5503 23.1199 27.4888 22.5894 27.4888 22.0467C27.4888 18.2205 30.5913 15.117 34.4197 15.117C36.4132 15.117 38.2134 15.959 39.4776 17.3048C41.0568 16.9954 42.5399 16.4169 43.8789 15.6229C43.3596 17.2422 42.2618 18.6003 40.8301 19.4568C42.2339 19.2893 43.5696 18.9163 44.8115 18.3657C43.8845 19.7584 42.7085 20.979 41.3539 21.9562Z" fill="white"/>
</svg>
