<svg xmlns="http://www.w3.org/2000/svg" xmlns:xlink="http://www.w3.org/1999/xlink" width="130" height="130" viewBox="0 0 130 130">
  <defs>
    <linearGradient id="linear-gradient" x1="0.862" y1="1.026" x2="-0.342" y2="0.208" gradientUnits="objectBoundingBox">
      <stop offset="0" stop-color="#f2e900"/>
      <stop offset="0.13" stop-color="#f2e102"/>
      <stop offset="0.334" stop-color="#f2ca09"/>
      <stop offset="0.588" stop-color="#f1a514"/>
      <stop offset="0.879" stop-color="#f07222"/>
      <stop offset="1" stop-color="#f05b29"/>
    </linearGradient>
    <linearGradient id="linear-gradient-2" x1="-0.036" y1="0.499" x2="1.08" y2="0.499" gradientUnits="objectBoundingBox">
      <stop offset="0" stop-color="#674195"/>
      <stop offset="1" stop-color="#b6529c"/>
    </linearGradient>
    <radialGradient id="radial-gradient" cx="0.956" cy="0.837" r="0.381" gradientTransform="translate(-0.867) scale(2.734 1)" gradientUnits="objectBoundingBox">
      <stop offset="0" stop-color="#b6529c"/>
      <stop offset="1" stop-color="#674195"/>
    </radialGradient>
    <radialGradient id="radial-gradient-2" cx="1.044" cy="0.524" r="0.469" gradientTransform="translate(-0.693) scale(2.387 1)" xlink:href="#linear-gradient"/>
    <linearGradient id="linear-gradient-3" x1="0.947" y1="0.799" x2="-0.345" y2="0.12" gradientUnits="objectBoundingBox">
      <stop offset="0" stop-color="#6ac8de"/>
      <stop offset="0.475" stop-color="#687fb6"/>
      <stop offset="1" stop-color="#66338b"/>
    </linearGradient>
  </defs>
  <g id="artius" transform="translate(-140 -4504)">
    <rect id="Rectangle_18" data-name="Rectangle 18" width="130" height="130" rx="20" transform="translate(140 4504)" fill="#0f122a"/>
    <g id="XMLID_3363_" transform="translate(170 4534)">
      <path id="XMLID_3374_" d="M260.47,140.035a34.835,34.835,0,1,0-56.516,27.245V140.186a21.681,21.681,0,1,1,43.362,0V167.28A34.833,34.833,0,0,0,260.47,140.035Z" transform="translate(-190.8 -105.2)" fill="#0ca0d5"/>
      <g id="XMLID_3371_" transform="translate(15.966 43.241)">
        <rect id="XMLID_3373_" width="37.738" height="3.115" fill="#0ca0d5"/>
        <path id="XMLID_3372_" d="M281.338,269.584H243.6V266.5h37.738Z" transform="translate(-243.6 -260.966)" fill="#0ca0d5"/>
      </g>
      <path id="XMLID_3370_" d="M266.028,257.076v6.652a6.569,6.569,0,0,0-.03-.786c-.847-8.074-9.586-13.728-10.825-22.225-.03-.3-.091-.6-.151-.937a12.882,12.882,0,0,1-.121-1.905V237.3C256.049,246.069,265.181,251.21,266.028,257.076Z" transform="translate(-235.517 -197.355)" fill="#ee6925"/>
      <path id="XMLID_3369_" d="M266.028,265.124v3.024a39.568,39.568,0,0,1-11.128-3.356V239.3a12.881,12.881,0,0,0,.121,1.905,8.669,8.669,0,0,0,.151.937c1.663,8.5,10.311,14,10.825,22.225A5.826,5.826,0,0,1,266.028,265.124Z" transform="translate(-235.517 -198.75)" fill="url(#linear-gradient)"/>
      <path id="XMLID_3368_" d="M300.068,186.082c0-.151-.03-.363-.03-.514a4.388,4.388,0,0,0-4.294-3.75,3.615,3.615,0,0,0-1.27.212,4.149,4.149,0,0,0-1.754,1.058,4.563,4.563,0,0,0-1.179,2.147,4.317,4.317,0,0,0-.091.877l-.061,2.51c-.03.091.03.242.03.333a27.88,27.88,0,0,1,.7-9.525,16.3,16.3,0,0,1,2.963-6.169c.151-.212.333-.363.514-.575.151-.151.333-.3.454-.423a4.109,4.109,0,0,1,.363-.363,17.317,17.317,0,0,1,3.508,8.8,28.748,28.748,0,0,1,.151,6.713Z" transform="translate(-260.908 -151.731)" fill="url(#linear-gradient-2)"/>
      <path id="XMLID_3367_" d="M320.23,259.742l-.03,4.778c.786-.091,1.572-.212,2.328-.363a34.229,34.229,0,0,0,8.588-2.9c.06-.03.151-.06.212-.091V234.1C330.058,246.347,320.2,251.729,320.23,259.742Z" transform="translate(-281.071 -195.122)" fill="url(#radial-gradient)"/>
      <path id="XMLID_3366_" d="M331.5,232.3v.544c0,12.216-11.1,18.808-11.1,25.612v-6.562C320.491,246.149,329.653,240.495,331.5,232.3Z" transform="translate(-281.211 -193.867)" fill="#3c6baf"/>
      <path id="XMLID_3365_" d="M269.938,169.9a11.522,11.522,0,0,0-2.026.212h-.03A15.414,15.414,0,0,0,255,185.322v4.959c.786,9.1,9.888,14.242,11.128,19.746V187.5c0-.665,0-1.3.03-1.966.03-.6.03-1.179.091-1.754.363-5.171,1.512-9.253,3.6-11.944.151-.212.363-.423.514-.6a5.584,5.584,0,0,1,.423-.423,4.522,4.522,0,0,0,.393-.333,3.766,3.766,0,0,0,.635-.575C271.389,169.93,270.391,169.9,269.938,169.9Z" transform="translate(-235.587 -150.336)" fill="url(#radial-gradient-2)"/>
      <path id="XMLID_3364_" d="M322.289,185.461v3.447a15.412,15.412,0,0,1-1.24,4.808,20.88,20.88,0,0,1-1.724,3.115,29.131,29.131,0,0,1-1.754,2.419c-.877,1.089-1.754,2.117-2.57,3.115-1.814,2.147-3.356,4.143-3.81,6.169v-22.77c0-.484,0-1-.03-1.451a29.028,29.028,0,0,0-.484-4.778,18.915,18.915,0,0,0-3.477-8.527,4.109,4.109,0,0,1,.363-.363c.212-.181.423-.363.665-.544a15,15,0,0,1,7.318,2.57c.03.03.06.06.091.06a1.321,1.321,0,0,1,.212.181c.363.272.726.544,1.058.816.333.3.665.6,1,.937a12.468,12.468,0,0,1,1.693,2.086,11.711,11.711,0,0,1,.635,1.028.257.257,0,0,1,.091.151,6.076,6.076,0,0,1,.484,1,.9.9,0,0,1,.121.242c.151.333.3.665.423,1a1.084,1.084,0,0,1,.121.333l.363,1.179v.03a9.035,9.035,0,0,1,.3,1.572c.03.151.06.3.091.423a3.289,3.289,0,0,1,.03.544C322.259,184.645,322.289,185.068,322.289,185.461Z" transform="translate(-272.002 -150.475)" fill="url(#linear-gradient-3)"/>
    </g>
  </g>
</svg>
